SplineFontDB: 3.2
FontName: Estedad-FD-SemiBold
FullName: Estedad-FD SemiBold
FamilyName: Estedad-FD SemiBold
Weight: Semi-bold
Copyright: Copyright (c) 2020 by Amin Abedi (@aminabedi68)-www.fontamin.com,\nwith Reserved Font Name Estedad.\n\nThis Font Software is licensed under the SIL Open Font License, Version 1.1.
Version: 5.0
ItalicAngle: 0
UnderlinePosition: -750
UnderlineWidth: 150
Ascent: 1554
Descent: 494
InvalidEm: 0
LayerCount: 2
Layer: 0 0 "Back" 1
Layer: 1 0 "Estedad" 0
StyleMap: 0x0040
FSType: 0
OS2Version: 0
OS2_WeightWidthSlopeOnly: 0
OS2_UseTypoMetrics: 0
CreationTime: 1606826028
ModificationTime: 1612945524
PfmFamily: 16
TTFWeight: 600
TTFWidth: 5
LineGap: 0
VLineGap: 0
OS2TypoAscent: 2400
OS2TypoAOffset: 0
OS2TypoDescent: -1200
OS2TypoDOffset: 0
OS2TypoLinegap: 0
OS2WinAscent: 2400
OS2WinAOffset: 0
OS2WinDescent: 1200
OS2WinDOffset: 0
HheadAscent: 2400
HheadAOffset: 0
HheadDescent: -1200
HheadDOffset: 0
OS2CapHeight: 1500
OS2XHeight: 1090
OS2Vendor: 'amin'
Lookup: 4 0 0 "'ccmp' Glyph Composition Decomposition lookup 0" { "'ccmp' Glyph Composition Decomposition lookup 0 subtable"  } ['ccmp' ('DFLT' <'dflt' > 'arab' <'FAR ' 'MLY ' 'SND ' 'URD ' 'dflt' > ) ]
Lookup: 1 1 0 "'locl' Localized Forms in Arabic lookup 5" { "'locl' Localized Forms in Arabic lookup 5 subtable"  } ['locl' ('arab' <'URD ' > ) ]
Lookup: 1 1 0 "'locl' Localized Forms in Arabic lookup 6" { "'locl' Localized Forms in Arabic lookup 6 subtable"  } ['locl' ('arab' <'FAR ' > ) ]
Lookup: 1 0 0 "Single Substitution 1" { "Single Substitution 1 subtable"  } []
Lookup: 1 0 0 "Single Substitution 2" { "Single Substitution 2 subtable"  } []
Lookup: 1 9 0 "'isol' Isolated Forms in Arabic lookup 11" { "'isol' Isolated Forms in Arabic lookup 11 subtable"  } ['isol' ('DFLT' <'dflt' > 'arab' <'FAR ' 'MLY ' 'SND ' 'URD ' 'dflt' > ) ]

StartChar: A
Encoding: 65 65 0
GlifName: A_
Width: 1354
VWidth: 0
GlyphClass: 2
Flags: HW
LayerCount: 2
Fore
SplineSet
407 350 m 257
 286 0 l 257
 1 0 l 257
 532 1440 l 257
 826 1440 l 257
 1353 0 l 257
 1069 0 l 257
 948 350 l 257
 407 350 l 257
475 559 m 257
 881 559 l 257
 679 1140 l 257
 475 559 l 257
EndSplineSet
Substitution2: "'c2sc' Capitals to Small Capitals in Latin lookup 0 subtable" uni1D00
EndChar

StartChar: AE
Encoding: 198 198 1
GlifName: A_E_
Width: 1694
VWidth: 0
GlyphClass: 2
Flags: HW
LayerCount: 2
Fore
SplineSet
799 1211 m 257
 751 1211 l 257
 526 613 l 257
 799 613 l 257
 799 1211 l 257
597 1440 m 257
 1614 1440 l 257
 1614 1211 l 257
 1066 1211 l 257
 1066 826 l 257
 1559 826 l 257
 1559 614 l 257
 1066 614 l 257
 1066 226 l 257
 1614 226 l 257
 1614 0 l 257
 799 0 l 257
 799 404 l 257
 450 404 l 257
 299 0 l 257
 15 0 l 257
 597 1440 l 257
EndSplineSet
EndChar

StartChar: Arabic_Double_Dot_H.alt
Encoding: 1114113 -1 11
GlifName: A_rabic_D_ouble_D_ot_H_.alt
Width: 758
VWidth: 0
GlyphClass: 2
Flags: HW
LayerCount: 2
Fore
SplineSet
361 110 m 257
 492 242 l 257
 624 110 l 257
 492 -21 l 257
 361 110 l 257
125 110 m 257
 256 242 l 257
 388 110 l 257
 256 -21 l 257
 125 110 l 257
EndSplineSet
EndChar

StartChar: Arabic_Double_Dot_V.alt
Encoding: 1114115 -1 13
GlifName: A_rabic_D_ouble_D_ot_V_.alt
Width: 497
VWidth: 0
GlyphClass: 2
Flags: HW
LayerCount: 2
Fore
SplineSet
244 228 m 257
 113 359 l 257
 244 490 l 257
 375 359 l 257
 244 228 l 257
244 -8 m 257
 113 123 l 257
 244 254 l 257
 375 123 l 257
 244 -8 l 257
EndSplineSet
EndChar

StartChar: Arabic_Single_Dot
Encoding: 1114117 -1 15
GlifName: A_rabic_S_ingle_D_ot
Width: 538
VWidth: 0
GlyphClass: 2
Flags: HW
LayerCount: 2
Fore
SplineSet
93 167 m 257
 270 344 l 257
 446 167 l 257
 270 -8 l 257
 93 167 l 257
EndSplineSet
EndChar

StartChar: Arabic_Single_Dot.alt
Encoding: 1114118 -1 16
GlifName: A_rabic_S_ingle_D_ot.alt
Width: 405
VWidth: 0
GlyphClass: 2
Flags: HW
LayerCount: 2
Fore
SplineSet
56 147 m 257
 203 295 l 257
 350 147 l 257
 203 0 l 257
 56 147 l 257
EndSplineSet
EndChar

StartChar: B
Encoding: 66 66 23
GlifName: B_
Width: 1330
VWidth: 0
GlyphClass: 2
Flags: HW
LayerCount: 2
Fore
SplineSet
146 1440 m 257
 730 1440 l 258
 1000 1440 1173 1297 1173 1035 c 256
 1173 894 1109 784 997 726 c 257
 1132 676 1224 545 1224 379 c 256
 1224 113 1057 0 772 0 c 258
 146 0 l 257
 146 1440 l 257
413 1211 m 257
 413 822 l 257
 698 822 l 258
 825 822 905 891 905 1018 c 256
 905 1145 826 1211 698 1211 c 258
 413 1211 l 257
413 620 m 257
 413 226 l 257
 752 226 l 258
 879 226 960 296 960 423 c 256
 960 549 880 620 752 620 c 258
 413 620 l 257
EndSplineSet
Substitution2: "'c2sc' Capitals to Small Capitals in Latin lookup 0 subtable" uni0299
EndChar

StartChar: C
Encoding: 67 67 24
GlifName: C_
Width: 1437
VWidth: 0
GlyphClass: 2
Flags: HW
LayerCount: 2
Fore
SplineSet
367 719 m 256
 367 408 489 217 729 217 c 256
 910 217 1021 335 1049 482 c 257
 1326 475 l 257
 1305 220 1075 -11 731 -11 c 256
 334 -11 100 279 100 719 c 256
 100 1160 334 1450 731 1450 c 256
 1075 1450 1305 1219 1326 964 c 257
 1049 957 l 257
 1021 1104 910 1222 729 1222 c 256
 489 1222 367 1030 367 719 c 256
EndSplineSet
Substitution2: "'c2sc' Capitals to Small Capitals in Latin lookup 0 subtable" uni1D04
EndChar

StartChar: D
Encoding: 68 68 30
GlifName: D_
Width: 1394
VWidth: 0
GlyphClass: 2
Flags: HW
LayerCount: 2
Fore
SplineSet
1289 719 m 256
 1289 333 1094 0 630 0 c 258
 159 0 l 257
 159 1440 l 257
 630 1440 l 258
 1094 1440 1289 1105 1289 719 c 256
1022 719 m 256
 1022 1044 911 1211 630 1211 c 258
 424 1211 l 257
 424 226 l 257
 630 226 l 258
 911 226 1022 393 1022 719 c 256
EndSplineSet
Substitution2: "'c2sc' Capitals to Small Capitals in Latin lookup 0 subtable" uni1D05
EndChar

StartChar: E
Encoding: 69 69 33
GlifName: E_
Width: 1106
VWidth: 0
GlyphClass: 2
Flags: HW
LayerCount: 2
Fore
SplineSet
1057 226 m 257
 1057 0 l 257
 159 0 l 257
 159 1440 l 257
 1057 1440 l 257
 1057 1211 l 257
 424 1211 l 257
 424 826 l 257
 1001 826 l 257
 1001 614 l 257
 424 614 l 257
 424 226 l 257
 1057 226 l 257
EndSplineSet
Substitution2: "'c2sc' Capitals to Small Capitals in Latin lookup 0 subtable" uni1D07
EndChar

StartChar: Eng
Encoding: 330 330 42
GlifName: E_ng
Width: 1454
VWidth: 0
GlyphClass: 2
Flags: HW
LayerCount: 2
Fore
SplineSet
176 1440 m 257
 443 1440 l 257
 443 0 l 257
 176 0 l 257
 176 1440 l 257
865 1450 m 256
 1202 1450 1340 1235 1340 881 c 258
 1340 281 l 258
 1340 69 1190 -11 1012 -11 c 256
 936 -11 857 4 788 30 c 257
 825 206 l 257
 861 197 901 191 937 191 c 256
 1025 191 1074 230 1074 312 c 258
 1074 881 l 258
 1074 1080 989 1210 779 1210 c 256
 575 1210 460 1061 442 866 c 257
 371 867 l 257
 402 1213 558 1450 865 1450 c 256
EndSplineSet
EndChar

StartChar: F
Encoding: 70 70 46
GlifName: F_
Width: 1102
VWidth: 0
GlyphClass: 2
Flags: HW
LayerCount: 2
Fore
SplineSet
424 0 m 257
 159 0 l 257
 159 1440 l 257
 1057 1440 l 257
 1057 1211 l 257
 424 1211 l 257
 424 780 l 257
 950 780 l 257
 950 570 l 257
 424 570 l 257
 424 0 l 257
EndSplineSet
Substitution2: "'c2sc' Capitals to Small Capitals in Latin lookup 0 subtable" uniA730
EndChar

StartChar: G
Encoding: 71 71 47
GlifName: G_
Width: 1490
VWidth: 0
GlyphClass: 2
Flags: HW
LayerCount: 2
Fore
SplineSet
718 780 m 257
 1378 780 l 257
 1378 234 l 257
 1249 77 1051 -12 794 -12 c 256
 374 -12 108 270 108 717 c 256
 108 1156 371 1450 764 1450 c 256
 1025 1450 1226 1307 1317 1056 c 257
 1110 974 l 257
 1052 1132 927 1222 765 1222 c 256
 520 1222 375 1035 375 717 c 256
 375 385 516 218 797 218 c 256
 906 218 1052 254 1112 295 c 257
 1112 570 l 257
 718 570 l 257
 718 780 l 257
EndSplineSet
Substitution2: "'c2sc' Capitals to Small Capitals in Latin lookup 0 subtable" uni0262
EndChar

StartChar: GAFbar
Encoding: 1114122 -1 48
GlifName: G_A_F_bar
Width: 1081
VWidth: 0
GlyphClass: 2
Flags: HW
LayerCount: 2
Fore
SplineSet
849 2110 m 257
 880 1973 l 257
 618 1911 345 1799 113 1656 c 257
 40 1776 l 257
 286 1926 568 2044 849 2110 c 257
EndSplineSet
EndChar

StartChar: H
Encoding: 72 72 53
GlifName: H_
Width: 1452
VWidth: 0
GlyphClass: 2
Flags: HW
LayerCount: 2
Fore
SplineSet
1027 1440 m 257
 1293 1440 l 257
 1293 0 l 257
 1027 0 l 257
 1027 614 l 257
 424 614 l 257
 424 0 l 257
 159 0 l 257
 159 1440 l 257
 424 1440 l 257
 424 826 l 257
 1027 826 l 257
 1027 1440 l 257
EndSplineSet
Substitution2: "'c2sc' Capitals to Small Capitals in Latin lookup 0 subtable" uni029C
EndChar

StartChar: I
Encoding: 73 73 63
GlifName: I_
Width: 655
VWidth: 0
GlyphClass: 2
Flags: HW
LayerCount: 2
Fore
SplineSet
461 0 m 257
 194 0 l 257
 194 1440 l 257
 461 1440 l 257
 461 0 l 257
EndSplineSet
Substitution2: "'c2sc' Capitals to Small Capitals in Latin lookup 0 subtable" uni026A
EndChar

StartChar: J
Encoding: 74 74 74
GlifName: J_
Width: 776
VWidth: 0
GlyphClass: 2
Flags: HW
LayerCount: 2
Fore
SplineSet
68 30 m 257
 104 206 l 257
 140 197 180 191 216 191 c 256
 304 191 354 230 354 312 c 258
 354 1440 l 257
 619 1440 l 257
 619 281 l 258
 619 69 469 -11 291 -11 c 256
 215 -11 137 4 68 30 c 257
EndSplineSet
Substitution2: "'c2sc' Capitals to Small Capitals in Latin lookup 0 subtable" uni1D0A
EndChar

StartChar: K
Encoding: 75 75 76
GlifName: K_
Width: 1350
VWidth: 0
GlyphClass: 2
Flags: HW
LayerCount: 2
Fore
SplineSet
1015 1440 m 257
 1331 1440 l 257
 724 718 l 257
 1331 0 l 257
 1015 0 l 257
 508 632 l 257
 424 632 l 257
 424 0 l 257
 159 0 l 257
 159 1440 l 257
 424 1440 l 257
 424 828 l 257
 506 828 l 257
 1015 1440 l 257
EndSplineSet
Substitution2: "'c2sc' Capitals to Small Capitals in Latin lookup 0 subtable" uni1D0B
EndChar

StartChar: K.alt
Encoding: 1114130 -1 77
GlifName: K_.alt
Width: 1350
VWidth: 0
GlyphClass: 2
Flags: HW
LayerCount: 2
Fore
SplineSet
1015 1440 m 257
 1331 1440 l 257
 724 718 l 257
 1331 0 l 257
 1015 0 l 257
 577 541 l 257
 424 362 l 257
 424 0 l 257
 159 0 l 257
 159 1440 l 257
 424 1440 l 257
 424 733 l 257
 1015 1440 l 257
EndSplineSet
Substitution2: "'c2sc' Capitals to Small Capitals in Latin lookup 0 subtable" uni1D0B
EndChar

StartChar: L
Encoding: 76 76 78
GlifName: L_
Width: 1105
VWidth: 0
GlyphClass: 2
Flags: HW
LayerCount: 2
Fore
SplineSet
1056 226 m 257
 1056 0 l 257
 159 0 l 257
 159 1440 l 257
 424 1440 l 257
 424 226 l 257
 1056 226 l 257
EndSplineSet
Substitution2: "'c2sc' Capitals to Small Capitals in Latin lookup 0 subtable" uni029F
EndChar

StartChar: M
Encoding: 77 77 83
GlifName: M_
Width: 1897
VWidth: 0
GlyphClass: 2
Flags: HW
LayerCount: 2
Fore
SplineSet
424 0 m 257
 159 0 l 257
 159 1440 l 257
 478 1440 l 257
 943 256 l 257
 1420 1440 l 257
 1742 1440 l 257
 1742 0 l 257
 1475 0 l 257
 1475 1018 l 257
 1074 0 l 257
 809 0 l 257
 424 1016 l 257
 424 0 l 257
EndSplineSet
Substitution2: "'c2sc' Capitals to Small Capitals in Latin lookup 0 subtable" uni1D0D
EndChar

StartChar: N
Encoding: 78 78 84
GlifName: N_
Width: 1461
VWidth: 0
GlyphClass: 2
Flags: HW
LayerCount: 2
Fore
SplineSet
1038 1440 m 257
 1305 1440 l 257
 1305 0 l 257
 1042 0 l 257
 424 999 l 257
 424 0 l 257
 159 0 l 257
 159 1440 l 257
 420 1440 l 257
 1038 440 l 257
 1038 1440 l 257
EndSplineSet
Substitution2: "'c2sc' Capitals to Small Capitals in Latin lookup 0 subtable" uni0274
EndChar

StartChar: O
Encoding: 79 79 88
GlifName: O_
Width: 1517
VWidth: 0
GlyphClass: 2
Flags: HW
LayerCount: 2
Fore
SplineSet
759 1450 m 256
 1211 1450 1407 1118 1407 719 c 256
 1407 321 1209 -11 759 -11 c 256
 309 -11 110 321 110 719 c 256
 110 1118 307 1450 759 1450 c 256
759 1220 m 256
 522 1220 379 1043 379 719 c 256
 379 395 519 218 759 218 c 256
 999 218 1140 395 1140 719 c 256
 1140 1043 996 1220 759 1220 c 256
EndSplineSet
Substitution2: "'c2sc' Capitals to Small Capitals in Latin lookup 0 subtable" uni1D0F
EndChar

StartChar: OE
Encoding: 338 338 89
GlifName: O_E_
Width: 1760
VWidth: 0
GlyphClass: 2
Flags: HW
LayerCount: 2
Fore
SplineSet
902 1211 m 257
 782 1211 l 258
 530 1211 381 1039 381 719 c 256
 381 398 530 226 782 226 c 258
 902 226 l 257
 902 1211 l 257
1169 1211 m 257
 1169 826 l 257
 1662 826 l 257
 1662 614 l 257
 1169 614 l 257
 1169 226 l 257
 1717 226 l 257
 1717 0 l 257
 782 0 l 258
 344 0 113 320 113 719 c 256
 113 1118 344 1440 782 1440 c 258
 1717 1440 l 257
 1717 1211 l 257
 1169 1211 l 257
EndSplineSet
EndChar

StartChar: P
Encoding: 80 80 102
GlifName: P_
Width: 1298
VWidth: 0
GlyphClass: 2
Flags: HW
LayerCount: 2
Fore
SplineSet
413 0 m 257
 146 0 l 257
 146 1440 l 257
 725 1440 l 258
 1033 1440 1202 1278 1202 994 c 256
 1202 710 1034 547 725 547 c 258
 413 547 l 257
 413 0 l 257
413 1211 m 257
 413 776 l 257
 718 776 l 258
 863 776 937 861 937 995 c 256
 937 1129 864 1211 718 1211 c 258
 413 1211 l 257
EndSplineSet
Substitution2: "'c2sc' Capitals to Small Capitals in Latin lookup 0 subtable" uni1D18
EndChar

StartChar: R
Encoding: 82 82 105
GlifName: R_
Width: 1297
VWidth: 0
GlyphClass: 2
Flags: HW
LayerCount: 2
Fore
SplineSet
916 689 m 257
 1282 0 l 257
 1019 0 l 257
 683 689 l 257
 916 689 l 257
EndSplineSet
Refer: 102 80 N 1 0 0 1 0 0 2
Substitution2: "'c2sc' Capitals to Small Capitals in Latin lookup 0 subtable" uni0280
EndChar

StartChar: S
Encoding: 83 83 108
GlifName: S_
Width: 1239
VWidth: 0
GlyphClass: 2
Flags: HW
LayerCount: 2
Fore
SplineSet
94 464 m 257
 356 464 l 257
 356 304 462 219 637 219 c 256
 776 219 883 277 883 398 c 256
 883 527 717 575 602 608 c 256
 388 668 128 764 128 1046 c 256
 128 1304 337 1450 598 1450 c 256
 914 1450 1125 1270 1125 996 c 257
 862 996 l 257
 862 1133 768 1221 615 1221 c 256
 483 1221 391 1158 391 1049 c 256
 391 919 564 870 680 836 c 256
 893 777 1146 676 1146 396 c 256
 1146 117 901 -11 647 -11 c 256
 323 -11 94 152 94 464 c 257
EndSplineSet
Substitution2: "'c2sc' Capitals to Small Capitals in Latin lookup 0 subtable" uniA731
EndChar

StartChar: T
Encoding: 84 84 113
GlifName: T_
Width: 1329
VWidth: 0
GlyphClass: 2
Flags: HW
LayerCount: 2
Fore
SplineSet
799 0 m 257
 532 0 l 257
 532 1211 l 257
 60 1211 l 257
 60 1440 l 257
 1270 1440 l 257
 1270 1211 l 257
 799 1211 l 257
 799 0 l 257
EndSplineSet
Substitution2: "'c2sc' Capitals to Small Capitals in Latin lookup 0 subtable" uni1D1B
EndChar

StartChar: Thorn
Encoding: 222 222 123
GlifName: T_horn
Width: 1298
VWidth: 0
GlyphClass: 2
Flags: HW
LayerCount: 2
Fore
SplineSet
414 499 m 257
 700 499 l 258
 849 499 938 565 938 717 c 256
 938 870 846 934 700 934 c 258
 414 934 l 257
 414 499 l 257
414 0 m 257
 148 0 l 257
 148 1440 l 257
 414 1440 l 257
 414 1161 l 257
 700 1161 l 258
 982 1161 1205 1003 1205 717 c 256
 1205 430 978 270 700 270 c 258
 414 270 l 257
 414 0 l 257
EndSplineSet
EndChar

StartChar: U
Encoding: 85 85 124
GlifName: U_
Width: 1444
VWidth: 0
GlyphClass: 2
Flags: HW
LayerCount: 2
Fore
SplineSet
1038 1440 m 257
 1305 1440 l 257
 1305 520 l 258
 1305 184 1098 -11 723 -11 c 256
 348 -11 141 184 141 520 c 258
 141 1440 l 257
 407 1440 l 257
 407 520 l 258
 407 340 503 229 723 229 c 256
 943 229 1038 340 1038 520 c 258
 1038 1440 l 257
EndSplineSet
Substitution2: "'c2sc' Capitals to Small Capitals in Latin lookup 0 subtable" uni1D1C
EndChar

StartChar: V
Encoding: 86 86 136
GlifName: V_
Width: 1354
VWidth: 0
GlyphClass: 2
Flags: HW
LayerCount: 2
Fore
SplineSet
677 300 m 257
 1069 1440 l 257
 1353 1440 l 257
 824 0 l 257
 530 0 l 257
 1 1440 l 257
 286 1440 l 257
 677 300 l 257
EndSplineSet
Substitution2: "'c2sc' Capitals to Small Capitals in Latin lookup 0 subtable" uni1D20
EndChar

StartChar: W
Encoding: 87 87 137
GlifName: W_
Width: 1933
VWidth: 0
GlyphClass: 2
Flags: HW
LayerCount: 2
Fore
SplineSet
1624 1440 m 257
 1901 1440 l 257
 1503 0 l 257
 1232 0 l 257
 967 1050 l 257
 698 0 l 257
 429 0 l 257
 32 1440 l 257
 308 1440 l 257
 578 379 l 257
 842 1440 l 257
 1091 1440 l 257
 1354 379 l 257
 1624 1440 l 257
EndSplineSet
Substitution2: "'c2sc' Capitals to Small Capitals in Latin lookup 0 subtable" uni1D21
EndChar

StartChar: X
Encoding: 88 88 142
GlifName: X_
Width: 1405
VWidth: 0
GlyphClass: 2
Flags: HW
LayerCount: 2
Fore
SplineSet
1391 0 m 257
 1077 0 l 257
 703 516 l 257
 329 0 l 257
 15 0 l 257
 555 718 l 257
 15 1440 l 257
 329 1440 l 257
 703 922 l 257
 1077 1440 l 257
 1391 1440 l 257
 850 718 l 257
 1391 0 l 257
EndSplineSet
Substitution2: "'c2sc' Capitals to Small Capitals in Latin lookup 0 subtable" uniA7EF
EndChar

StartChar: Y
Encoding: 89 89 143
GlifName: Y_
Width: 1340
VWidth: 0
GlyphClass: 2
Flags: HW
LayerCount: 2
Fore
SplineSet
1037 1440 m 257
 1345 1440 l 257
 805 624 l 257
 805 0 l 257
 537 0 l 257
 537 624 l 257
 -5 1440 l 257
 305 1440 l 257
 671 843 l 257
 1037 1440 l 257
EndSplineSet
Substitution2: "'c2sc' Capitals to Small Capitals in Latin lookup 0 subtable" uni028F
EndChar

StartChar: Z
Encoding: 90 90 148
GlifName: Z_
Width: 1221
VWidth: 0
GlyphClass: 2
Flags: HW
LayerCount: 2
Fore
SplineSet
71 1212 m 257
 71 1440 l 257
 1150 1440 l 257
 1150 1246 l 257
 372 226 l 257
 1150 226 l 257
 1150 0 l 257
 71 0 l 257
 71 193 l 257
 851 1212 l 257
 71 1212 l 257
EndSplineSet
Substitution2: "'c2sc' Capitals to Small Capitals in Latin lookup 0 subtable" uni1D22
EndChar

StartChar: a
Encoding: 97 97 152
GlifName: a
Width: 1112
VWidth: 0
GlyphClass: 2
Flags: HW
LayerCount: 2
Fore
SplineSet
545 1091 m 256
 837 1091 994 949 994 732 c 258
 994 277 l 258
 994 203 1018 164 1098 164 c 257
 1098 -1 l 257
 888 -29 728 47 728 278 c 258
 728 732 l 258
 728 835 657 883 533 883 c 256
 409 883 337 837 337 732 c 257
 109 732 l 257
 97 957 256 1091 545 1091 c 256
EndSplineSet
Refer: 1670 57355 N 1 0 0 1 -8 0 2
Substitution2: "'smcp' Lowercase to Small Capitals in Latin lookup 0 subtable" uni1D00
EndChar

StartChar: acute
Encoding: 180 180 156
GlifName: acute
Width: 525
VWidth: 0
GlyphClass: 2
Flags: HW
LayerCount: 2
Fore
SplineSet
241 1474 m 257
 438 1474 l 257
 257 1134 l 257
 88 1134 l 257
 241 1474 l 257
EndSplineSet
EndChar

StartChar: ae
Encoding: 230 230 158
GlifName: ae
Width: 1799
VWidth: 0
GlyphClass: 2
Flags: HW
LayerCount: 2
Fore
SplineSet
727 292 m 257
 727 732 l 258
 727 835 656 883 532 883 c 256
 408 883 336 837 336 732 c 257
 108 732 l 257
 96 957 256 1091 545 1091 c 256
 837 1091 994 949 994 732 c 258
 994 289 l 257
 727 292 l 257
84 283 m 256
 84 521 291 633 515 633 c 258
 966 633 l 257
 966 459 l 257
 532 459 l 258
 417 459 320 422 320 315 c 256
 320 242 364 187 474 187 c 256
 606 187 696 271 733 320 c 257
 814 312 l 257
 772 196 659 -17 387 -17 c 256
 191 -17 84 94 84 283 c 256
EndSplineSet
Refer: 225 101 N 1 0 0 1 655 0 2
Substitution2: "'c2sc' Capitals to Small Capitals in Latin lookup 0 subtable" uni1D01
Substitution2: "'smcp' Lowercase to Small Capitals in Latin lookup 0 subtable" uni1D01
EndChar

StartChar: ampersand
Encoding: 38 38 162
GlifName: ampersand
Width: 1442
VWidth: 0
GlyphClass: 2
Flags: HW
LayerCount: 2
Fore
SplineSet
195 1088 m 256
 195 1287 343 1444 581 1444 c 256
 812 1444 968 1293 968 1080 c 256
 968 887 837 769 619 655 c 256
 455 569 346 486 346 380 c 256
 346 270 449 210 579 210 c 256
 830 210 1037 444 1037 690 c 257
 1260 690 l 257
 1260 297 994 -10 585 -10 c 256
 300 -10 103 137 103 382 c 256
 103 576 235 699 482 833 c 256
 643 920 736 983 736 1088 c 256
 736 1175 675 1233 582 1233 c 256
 484 1233 427 1167 427 1091 c 256
 427 1018 471 953 548 882 c 258
 1344 158 l 257
 1189 -11 l 257
 363 748 l 258
 256 846 195 960 195 1088 c 256
EndSplineSet
EndChar

StartChar: approxequal
Encoding: 8776 8776 164
GlifName: approxequal
Width: 1149
VWidth: 0
GlyphClass: 2
Flags: HW
LayerCount: 2
Fore
SplineSet
103 354 m 257
 193 482 292 545 396 545 c 256
 451 545 515 526 592 481 c 256
 661 441 720 421 758 421 c 256
 812 421 872 459 935 533 c 257
 1044 430 l 257
 950 301 854 242 747 242 c 256
 691 242 635 260 545 309 c 256
 467 351 417 369 381 369 c 256
 328 369 275 334 217 258 c 257
 103 354 l 257
103 843 m 257
 193 971 292 1035 396 1035 c 256
 451 1035 515 1016 592 971 c 256
 661 931 720 911 758 911 c 256
 812 911 872 948 935 1022 c 257
 1044 919 l 257
 950 790 854 731 747 731 c 256
 691 731 635 749 545 798 c 256
 467 840 417 858 381 858 c 256
 328 858 275 823 217 747 c 257
 103 843 l 257
EndSplineSet
EndChar

StartChar: arrowboth
Encoding: 8596 8596 167
GlifName: arrowboth
Width: 1914
VWidth: 0
GlyphClass: 2
Flags: HW
LayerCount: 2
Fore
SplineSet
600 1007 m 257
 697 910 l 257
 396 609 l 257
 457 624 l 257
 1457 624 l 257
 1518 609 l 257
 1217 910 l 257
 1314 1007 l 257
 1764 556 l 257
 1314 106 l 257
 1217 203 l 257
 1518 504 l 257
 1457 489 l 257
 457 489 l 257
 396 504 l 257
 697 203 l 257
 600 106 l 257
 150 556 l 257
 600 1007 l 257
EndSplineSet
EndChar

StartChar: arrowdown
Encoding: 8595 8595 168
GlifName: arrowdown
Width: 1201
VWidth: 0
GlyphClass: 2
Flags: HW
LayerCount: 2
Fore
SplineSet
668 1157 m 257
 668 290 l 257
 653 230 l 257
 954 531 l 257
 1051 434 l 257
 600 -17 l 257
 150 434 l 257
 247 531 l 257
 548 230 l 257
 533 290 l 257
 533 1157 l 257
 668 1157 l 257
EndSplineSet
EndChar

StartChar: arrowleft
Encoding: 8592 8592 169
GlifName: arrowleft
Width: 1473
VWidth: 0
GlyphClass: 2
Flags: HW
LayerCount: 2
Fore
SplineSet
1323 489 m 257
 457 489 l 257
 396 504 l 257
 697 203 l 257
 600 106 l 257
 150 556 l 257
 600 1007 l 257
 697 910 l 257
 396 609 l 257
 457 624 l 257
 1323 624 l 257
 1323 489 l 257
EndSplineSet
EndChar

StartChar: arrowright
Encoding: 8594 8594 170
GlifName: arrowright
Width: 1473
VWidth: 0
GlyphClass: 2
Flags: HW
LayerCount: 2
Fore
SplineSet
150 624 m 257
 1016 624 l 257
 1077 609 l 257
 776 910 l 257
 873 1007 l 257
 1323 556 l 257
 873 106 l 257
 776 203 l 257
 1077 504 l 257
 1016 489 l 257
 150 489 l 257
 150 624 l 257
EndSplineSet
EndChar

StartChar: arrowup
Encoding: 8593 8593 171
GlifName: arrowup
Width: 1201
VWidth: 0
GlyphClass: 2
Flags: HW
LayerCount: 2
Fore
SplineSet
533 -54 m 257
 533 813 l 257
 548 874 l 257
 247 572 l 257
 150 669 l 257
 600 1120 l 257
 1051 669 l 257
 954 572 l 257
 653 874 l 257
 668 813 l 257
 668 -54 l 257
 533 -54 l 257
EndSplineSet
EndChar

StartChar: arrowupdn
Encoding: 8597 8597 172
GlifName: arrowupdn
Width: 1201
VWidth: 0
GlyphClass: 2
Flags: HW
LayerCount: 2
Fore
SplineSet
600 1364 m 257
 1051 914 l 257
 954 816 l 257
 653 1117 l 257
 668 1057 l 257
 668 56 l 257
 653 -4 l 257
 954 296 l 257
 1051 199 l 257
 600 -251 l 257
 150 199 l 257
 247 296 l 257
 548 -4 l 257
 533 56 l 257
 533 1057 l 257
 548 1117 l 257
 247 816 l 257
 150 914 l 257
 600 1364 l 257
EndSplineSet
EndChar

StartChar: asciicircum
Encoding: 94 94 173
GlifName: asciicircum
Width: 761
VWidth: 0
GlyphClass: 2
Flags: HW
LayerCount: 2
Fore
SplineSet
675 1134 m 257
 504 1134 l 257
 381 1361 l 257
 257 1134 l 257
 88 1134 l 257
 245 1474 l 257
 517 1474 l 257
 675 1134 l 257
EndSplineSet
Substitution2: "'tnum' Tabular Numbers lookup 22 subtable" asciicircum.tnum
EndChar

StartChar: asciitilde
Encoding: 126 126 175
GlifName: asciitilde
Width: 986
VWidth: 0
GlyphClass: 2
Flags: HW
LayerCount: 2
Fore
SplineSet
93 1186 m 257
 153 1320 240 1389 333 1389 c 256
 398 1389 442 1365 516 1320 c 256
 570 1286 610 1266 650 1266 c 256
 697 1266 743 1293 789 1389 c 257
 893 1334 l 257
 834 1194 750 1134 655 1134 c 256
 591 1134 543 1154 453 1207 c 256
 402 1237 364 1256 334 1256 c 256
 291 1256 246 1234 198 1133 c 257
 93 1186 l 257
EndSplineSet
EndChar

StartChar: asterisk
Encoding: 42 42 176
GlifName: asterisk
Width: 1227
VWidth: 0
GlyphClass: 2
Flags: HW
LayerCount: 2
Fore
SplineSet
166 1046 m 257
 225 1224 l 257
 529 1117 l 257
 520 1440 l 257
 709 1440 l 257
 700 1116 l 257
 1006 1224 l 257
 1063 1046 l 257
 754 954 l 257
 952 695 l 257
 798 586 l 257
 614 853 l 257
 431 586 l 257
 278 695 l 257
 475 954 l 257
 166 1046 l 257
EndSplineSet
Substitution2: "'tnum' Tabular Numbers lookup 22 subtable" asterisk.tnum
EndChar

StartChar: at
Encoding: 64 64 178
GlifName: at
Width: 1938
VWidth: 0
GlyphClass: 2
Flags: HW
LayerCount: 2
Fore
SplineSet
985 788 m 256
 809 788 694 663 694 427 c 256
 694 239 787 163 917 163 c 256
 1047 163 1135 271 1152 452 c 258
 1178 737 l 257
 1130 769 1079 788 985 788 c 256
985 954 m 256
 1163 954 1269 884 1362 812 c 257
 1318 318 l 258
 1316 300 1315 280 1315 272 c 256
 1315 200 1355 167 1424 167 c 256
 1568 167 1635 341 1635 551 c 256
 1635 899 1377 1172 1002 1172 c 256
 609 1172 315 881 315 440 c 256
 315 13 550 -203 970 -203 c 256
 1047 -203 1120 -188 1188 -167 c 257
 1248 -319 l 257
 1162 -348 1070 -366 969 -366 c 256
 448 -366 136 -70 136 438 c 256
 136 971 502 1333 1003 1333 c 256
 1488 1333 1804 985 1804 542 c 256
 1804 267 1692 -9 1424 -9 c 256
 1316 -9 1236 43 1206 141 c 257
 1147 37 1024 -9 917 -9 c 256
 688 -9 518 154 518 427 c 256
 518 756 699 954 985 954 c 256
EndSplineSet
EndChar

StartChar: b
Encoding: 98 98 180
GlifName: b
Width: 1159
VWidth: 0
GlyphClass: 2
Flags: HW
LayerCount: 2
Fore
SplineSet
405 0 m 257
 139 0 l 257
 139 1496 l 257
 405 1496 l 257
 405 0 l 257
EndSplineSet
Refer: 1674 57359 N 1 0 0 1 34 0 2
Substitution2: "'smcp' Lowercase to Small Capitals in Latin lookup 0 subtable" uni0299
EndChar

StartChar: backslash
Encoding: 92 92 181
GlifName: backslash
Width: 1156
VWidth: 0
GlyphClass: 2
Flags: HW
LayerCount: 2
Fore
SplineSet
1054 0 m 257
 739 0 l 257
 99 1440 l 257
 416 1440 l 257
 1054 0 l 257
EndSplineSet
Substitution2: "'tnum' Tabular Numbers lookup 22 subtable" backslash.tnum
EndChar

StartChar: bar
Encoding: 124 124 183
GlifName: bar
Width: 651
VWidth: 0
GlyphClass: 2
Flags: HW
LayerCount: 2
Fore
SplineSet
193 1475 m 257
 459 1475 l 257
 459 -451 l 257
 193 -451 l 257
 193 1475 l 257
EndSplineSet
Substitution2: "'tnum' Tabular Numbers lookup 22 subtable" bar.tnum
EndChar

StartChar: braceleft
Encoding: 123 123 185
GlifName: braceleft
Width: 942
VWidth: 0
GlyphClass: 2
Flags: HW
LayerCount: 2
Fore
SplineSet
349 700 m 257
 470 638 537 514 537 380 c 258
 537 181 l 258
 537 126 577 84 635 84 c 258
 821 84 l 257
 821 -128 l 257
 609 -128 l 258
 441 -128 321 -5 321 150 c 258
 321 380 l 258
 321 492 246 577 156 595 c 257
 86 602 l 257
 86 799 l 257
 156 807 l 257
 246 825 321 910 321 1022 c 258
 321 1251 l 258
 321 1406 440 1528 609 1528 c 258
 821 1528 l 257
 821 1317 l 257
 635 1317 l 258
 577 1317 537 1275 537 1220 c 258
 537 1022 l 258
 537 887 469 762 349 700 c 257
EndSplineSet
Substitution2: "'tnum' Tabular Numbers lookup 22 subtable" braceleft.tnum
EndChar

StartChar: braceright
Encoding: 125 125 187
GlifName: braceright
Width: 942
VWidth: 0
GlyphClass: 2
Flags: HW
LayerCount: 2
Fore
SplineSet
593 699 m 257
 472 761 405 885 405 1019 c 258
 405 1220 l 258
 405 1275 365 1317 307 1317 c 258
 121 1317 l 257
 121 1528 l 257
 333 1528 l 258
 501 1528 621 1406 621 1251 c 258
 621 1019 l 258
 621 907 696 823 786 805 c 257
 856 798 l 257
 856 602 l 257
 786 593 l 257
 696 575 621 491 621 379 c 258
 621 149 l 258
 621 -6 502 -128 333 -128 c 258
 121 -128 l 257
 121 83 l 257
 307 83 l 258
 365 83 405 125 405 180 c 258
 405 379 l 258
 405 514 473 637 593 699 c 257
EndSplineSet
Substitution2: "'tnum' Tabular Numbers lookup 22 subtable" braceright.tnum
EndChar

StartChar: bracketleft
Encoding: 91 91 189
GlifName: bracketleft
Width: 714
VWidth: 0
GlyphClass: 2
Flags: HW
LayerCount: 2
Fore
SplineSet
630 84 m 257
 630 -128 l 257
 130 -128 l 257
 130 1528 l 257
 630 1528 l 257
 630 1317 l 257
 345 1317 l 257
 345 84 l 257
 630 84 l 257
EndSplineSet
Substitution2: "'tnum' Tabular Numbers lookup 22 subtable" bracketleft.tnum
EndChar

StartChar: bracketright
Encoding: 93 93 191
GlifName: bracketright
Width: 715
VWidth: 0
GlyphClass: 2
Flags: HW
LayerCount: 2
Fore
SplineSet
85 1317 m 257
 85 1528 l 257
 586 1528 l 257
 586 -128 l 257
 85 -128 l 257
 85 83 l 257
 370 83 l 257
 370 1317 l 257
 85 1317 l 257
EndSplineSet
Substitution2: "'tnum' Tabular Numbers lookup 22 subtable" bracketright.tnum
EndChar

StartChar: breve
Encoding: 728 728 193
GlifName: breve
Width: 809
VWidth: 0
GlyphClass: 2
Flags: HW
LayerCount: 2
Fore
SplineSet
715 1449 m 257
 715 1250 602 1134 405 1134 c 256
 207 1134 93 1250 93 1449 c 257
 228 1449 l 257
 228 1324 292 1263 405 1263 c 256
 518 1263 582 1324 582 1449 c 257
 715 1449 l 257
EndSplineSet
EndChar

StartChar: brokenbar
Encoding: 166 166 194
GlifName: brokenbar
Width: 475
VWidth: 0
GlyphClass: 2
Flags: HW
LayerCount: 2
Fore
SplineSet
371 875 m 257
 105 875 l 257
 105 1440 l 257
 371 1440 l 257
 371 875 l 257
371 0 m 257
 105 0 l 257
 105 578 l 257
 371 578 l 257
 371 0 l 257
EndSplineSet
EndChar

StartChar: bullet
Encoding: 8226 8226 195
GlifName: bullet
Width: 565
VWidth: 0
GlyphClass: 2
Flags: HW
LayerCount: 2
Fore
SplineSet
100 688 m 256
 100 790 180 871 283 871 c 256
 387 871 466 790 466 688 c 256
 466 586 387 504 283 504 c 256
 180 504 100 586 100 688 c 256
EndSplineSet
EndChar

StartChar: c
Encoding: 99 99 196
GlifName: c
Width: 1163
VWidth: 0
GlyphClass: 2
Flags: HW
LayerCount: 2
Fore
SplineSet
591 1090 m 256
 871 1090 1040 936 1064 697 c 257
 808 688 l 257
 789 817 702 878 590 878 c 256
 446 878 350 778 350 542 c 256
 350 302 446 203 590 203 c 256
 702 203 789 264 808 393 c 257
 1064 385 l 257
 1040 145 871 -10 591 -10 c 256
 259 -10 84 201 84 541 c 256
 84 881 259 1090 591 1090 c 256
EndSplineSet
Substitution2: "'smcp' Lowercase to Small Capitals in Latin lookup 0 subtable" uni1D04
EndChar

StartChar: caron
Encoding: 711 711 198
GlifName: caron
Width: 761
VWidth: 0
GlyphClass: 2
Flags: HW
LayerCount: 2
Fore
SplineSet
88 1474 m 257
 257 1474 l 257
 381 1246 l 257
 504 1474 l 257
 675 1474 l 257
 517 1134 l 257
 245 1134 l 257
 88 1474 l 257
EndSplineSet
EndChar

StartChar: cedilla
Encoding: 184 184 203
GlifName: cedilla
Width: 643
VWidth: 0
GlyphClass: 2
Flags: HW
LayerCount: 2
Fore
SplineSet
550 -271 m 256
 550 -397 451 -475 289 -475 c 256
 218 -475 153 -460 93 -430 c 257
 140 -320 l 257
 179 -339 238 -351 292 -351 c 256
 372 -351 416 -324 416 -276 c 256
 416 -222 359 -189 265 -189 c 256
 247 -189 229 -190 212 -192 c 257
 212 1 l 257
 316 1 l 257
 316 -85 l 257
 466 -85 550 -153 550 -271 c 256
EndSplineSet
EndChar

StartChar: circumflex
Encoding: 710 710 206
GlifName: circumflex
Width: 761
VWidth: 0
GlyphClass: 2
Flags: HW
LayerCount: 2
Fore
SplineSet
675 1134 m 257
 504 1134 l 257
 381 1361 l 257
 257 1134 l 257
 88 1134 l 257
 245 1474 l 257
 517 1474 l 257
 675 1134 l 257
EndSplineSet
EndChar

StartChar: comma
Encoding: 44 44 208
GlifName: comma
Width: 629
VWidth: 0
GlyphClass: 2
Flags: HW
LayerCount: 2
Fore
SplineSet
195 332 m 257
 441 332 l 257
 270 -200 l 257
 99 -117 l 257
 195 332 l 257
EndSplineSet
Substitution2: "'tnum' Tabular Numbers lookup 22 subtable" comma.tnum
EndChar

StartChar: copyright
Encoding: 169 169 210
GlifName: copyright
Width: 1820
VWidth: 0
GlyphClass: 2
Flags: HW
LayerCount: 2
Fore
SplineSet
321 744 m 256
 321 408 579 149 912 149 c 256
 1245 149 1502 408 1502 744 c 256
 1502 1079 1245 1338 912 1338 c 256
 579 1338 321 1079 321 744 c 256
130 744 m 256
 130 1163 453 1514 912 1514 c 256
 1371 1514 1693 1163 1693 744 c 256
 1693 325 1371 -28 912 -28 c 256
 453 -28 130 325 130 744 c 256
1182 966 m 257
 1105 899 l 257
 1049 963 987 991 912 991 c 256
 779 991 690 881 690 746 c 256
 690 611 779 501 912 501 c 256
 987 501 1049 528 1105 592 c 257
 1182 524 l 257
 1103 436 1029 391 905 391 c 256
 697 391 569 566 569 746 c 256
 569 926 697 1101 905 1101 c 256
 1029 1101 1103 1054 1182 966 c 257
EndSplineSet
EndChar

StartChar: currency
Encoding: 164 164 211
GlifName: currency
Width: 1381
VWidth: 0
GlyphClass: 2
Flags: HW
LayerCount: 2
Fore
SplineSet
894 97 m 257
 1044 232 l 257
 1295 -40 l 257
 1145 -174 l 257
 894 97 l 257
338 232 m 257
 488 97 l 257
 237 -174 l 257
 88 -40 l 257
 338 232 l 257
1044 817 m 257
 894 952 l 257
 1145 1223 l 257
 1295 1089 l 257
 1044 817 l 257
488 952 m 257
 338 817 l 257
 88 1089 l 257
 237 1223 l 257
 488 952 l 257
EndSplineSet
Refer: 324 111 N 1 0 0 1 116 0 2
EndChar

StartChar: d
Encoding: 100 100 212
GlifName: d
Width: 1152
VWidth: 0
GlyphClass: 2
Flags: HW
LayerCount: 2
Fore
SplineSet
1015 0 m 257
 748 0 l 257
 748 1475 l 257
 1015 1475 l 257
 1015 0 l 257
EndSplineSet
Refer: 1674 57359 N -1 0 0 -1 1120 1081 2
Substitution2: "'smcp' Lowercase to Small Capitals in Latin lookup 0 subtable" uni1D05
EndChar

StartChar: dagger
Encoding: 8224 8224 213
GlifName: dagger
Width: 1439
VWidth: 0
GlyphClass: 2
Flags: HW
LayerCount: 2
Fore
SplineSet
200 868 m 257
 200 1101 l 257
 1240 1101 l 257
 1240 868 l 257
 200 868 l 257
602 1440 m 257
 837 1440 l 257
 837 -467 l 257
 602 -467 l 257
 602 1440 l 257
EndSplineSet
EndChar

StartChar: daggerdbl
Encoding: 8225 8225 214
GlifName: daggerdbl
Width: 1439
VWidth: 0
GlyphClass: 2
Flags: HW
LayerCount: 2
Fore
SplineSet
200 -128 m 257
 200 106 l 257
 1240 106 l 257
 1240 -128 l 257
 200 -128 l 257
200 868 m 257
 200 1101 l 257
 1240 1101 l 257
 1240 868 l 257
 200 868 l 257
602 1440 m 257
 837 1440 l 257
 837 -467 l 257
 602 -467 l 257
 602 1440 l 257
EndSplineSet
EndChar

StartChar: degree
Encoding: 176 176 217
GlifName: degree
Width: 697
VWidth: 0
GlyphClass: 2
Flags: HW
LayerCount: 2
Fore
SplineSet
491 1388 m 256
 491 1468 428 1531 348 1531 c 256
 268 1531 208 1468 208 1388 c 256
 208 1308 268 1247 348 1247 c 256
 428 1247 491 1308 491 1388 c 256
604 1388 m 256
 604 1246 490 1134 348 1134 c 256
 206 1134 93 1246 93 1388 c 256
 93 1530 206 1643 348 1643 c 256
 490 1643 604 1530 604 1388 c 256
EndSplineSet
EndChar

StartChar: dieresis
Encoding: 168 168 218
GlifName: dieresis
Width: 810
VWidth: 0
GlyphClass: 2
Flags: HW
LayerCount: 2
Fore
SplineSet
93 1254 m 256
 93 1320 149 1372 216 1372 c 256
 283 1372 337 1320 337 1254 c 256
 337 1188 283 1134 216 1134 c 256
 149 1134 93 1188 93 1254 c 256
474 1254 m 256
 474 1320 529 1372 596 1372 c 256
 663 1372 718 1320 718 1254 c 256
 718 1188 663 1134 596 1134 c 256
 529 1134 474 1188 474 1254 c 256
EndSplineSet
EndChar

StartChar: dollar.alt
Encoding: 1114151 -1 222
GlifName: dollar.alt
Width: 1239
VWidth: 0
GlyphClass: 2
Flags: HW
LayerCount: 2
Fore
SplineSet
676 107 m 257
 676 -202 l 257
 556 -202 l 257
 556 107 l 257
 676 107 l 257
556 1351 m 257
 556 1637 l 257
 676 1637 l 257
 676 1351 l 257
 556 1351 l 257
EndSplineSet
Refer: 108 83 N 1 0 0 1 0 0 2
EndChar

StartChar: dotaccent
Encoding: 729 729 223
GlifName: dotaccent
Width: 468
VWidth: 0
GlyphClass: 2
Flags: HW
LayerCount: 2
Fore
SplineSet
93 1273 m 256
 93 1349 159 1410 235 1410 c 256
 311 1410 375 1349 375 1273 c 256
 375 1197 311 1134 235 1134 c 256
 159 1134 93 1197 93 1273 c 256
EndSplineSet
EndChar

StartChar: dotlessi
Encoding: 305 305 224
GlifName: dotlessi
Width: 543
VWidth: 0
GlyphClass: 2
Flags: HW
LayerCount: 2
Fore
SplineSet
139 1081 m 257
 405 1081 l 257
 405 0 l 257
 139 0 l 257
 139 1081 l 257
EndSplineSet
EndChar

StartChar: e
Encoding: 101 101 225
GlifName: e
Width: 1142
VWidth: 0
GlyphClass: 2
Flags: HW
LayerCount: 2
Fore
SplineSet
342 459 m 257
 355 305 431 204 585 204 c 256
 687 204 762 254 790 327 c 257
 1044 283 l 257
 979 98 821 -11 576 -11 c 256
 245 -11 73 207 73 540 c 256
 73 874 250 1090 571 1090 c 256
 975 1090 1097 810 1076 459 c 257
 342 459 l 257
345 634 m 257
 806 634 l 257
 795 796 717 878 574 878 c 256
 448 878 355 792 345 634 c 257
EndSplineSet
Substitution2: "'smcp' Lowercase to Small Capitals in Latin lookup 0 subtable" uni1D07
EndChar

StartChar: eight.SC
Encoding: 1114152 -1 234
GlifName: eight.S_C_
Width: 962
VWidth: 0
GlyphClass: 2
Flags: HW
LayerCount: 2
Fore
SplineSet
483 1088 m 256
 694 1088 822 955 822 800 c 256
 822 710 784 618 696 564 c 257
 808 498 859 394 859 290 c 256
 859 126 751 -8 483 -8 c 256
 215 -8 104 126 104 291 c 256
 104 395 155 499 267 564 c 257
 179 618 141 710 141 800 c 256
 141 955 272 1088 483 1088 c 256
482 892 m 256
 406 892 359 844 359 763 c 256
 359 681 406 632 482 632 c 256
 558 632 604 681 604 763 c 256
 604 844 558 892 482 892 c 256
479 480 m 256
 390 480 331 422 331 335 c 256
 331 250 388 200 482 200 c 256
 576 200 631 248 631 332 c 256
 631 419 569 480 479 480 c 256
EndSplineSet
EndChar

StartChar: eight.onum
Encoding: 1114153 -1 235
GlifName: eight.onum
Width: 1207
VWidth: 0
GlyphClass: 2
Flags: HW
LayerCount: 2
Fore
SplineSet
604 1450 m 256
 884 1450 1053 1249 1053 1068 c 256
 1053 944 992 827 877 753 c 257
 1025 662 1103 520 1103 387 c 256
 1103 195 918 -11 604 -11 c 256
 290 -11 104 197 104 389 c 256
 104 522 181 663 329 753 c 257
 214 827 154 944 154 1067 c 256
 154 1248 324 1450 604 1450 c 256
604 1241 m 256
 488 1241 417 1144 417 1044 c 256
 417 919 489 843 604 843 c 256
 719 843 789 919 789 1044 c 256
 789 1145 720 1241 604 1241 c 256
600 643 m 256
 465 643 376 549 376 422 c 256
 376 304 462 210 604 210 c 256
 744 210 830 302 830 418 c 256
 830 545 738 643 600 643 c 256
EndSplineSet
EndChar

StartChar: emdash
Encoding: 8212 8212 239
GlifName: emdash
Width: 2048
VWidth: 0
GlyphClass: 2
Flags: HW
LayerCount: 2
Fore
SplineSet
1973 710 m 257
 1973 514 l 257
 75 514 l 257
 75 710 l 257
 1973 710 l 257
EndSplineSet
EndChar

StartChar: eng
Encoding: 331 331 241
GlifName: eng
Width: 1206
VWidth: 0
GlyphClass: 2
Flags: HW
LayerCount: 2
Fore
SplineSet
813 18 m 257
 1079 18 l 257
 1079 -194 l 258
 1079 -406 926 -487 748 -487 c 256
 660 -487 574 -467 507 -434 c 257
 551 -261 l 257
 586 -276 630 -285 673 -285 c 256
 761 -285 813 -247 813 -165 c 258
 813 18 l 257
EndSplineSet
Refer: 312 110 N 1 0 0 1 0 0 2
EndChar

StartChar: eth
Encoding: 240 240 245
GlifName: eth
Width: 1158
VWidth: 0
GlyphClass: 2
Flags: HW
LayerCount: 2
Fore
SplineSet
577 878 m 256
 417 878 340 759 340 540 c 256
 340 321 416 201 577 201 c 256
 738 201 820 321 820 540 c 256
 820 759 737 878 577 878 c 256
552 1089 m 256
 657 1089 754 1059 831 979 c 257
 779 1101 661 1250 579 1317 c 257
 429 1193 l 257
 345 1292 l 257
 478 1401 l 257
 426 1436 348 1469 288 1485 c 257
 340 1658 l 257
 427 1639 538 1582 624 1519 c 257
 761 1629 l 257
 843 1528 l 257
 722 1432 l 257
 974 1184 1086 894 1086 594 c 256
 1086 201 919 -11 580 -11 c 256
 241 -11 73 217 73 540 c 256
 73 900 282 1089 552 1089 c 256
EndSplineSet
EndChar

StartChar: exclam
Encoding: 33 33 246
GlifName: exclam
Width: 650
VWidth: 0
GlyphClass: 2
Flags: HW
LayerCount: 2
Fore
SplineSet
434 464 m 257
 217 464 l 257
 192 1440 l 257
 459 1440 l 257
 434 464 l 257
EndSplineSet
Refer: 357 46 N 1 0 0 1 23 0 2
Substitution2: "'tnum' Tabular Numbers lookup 22 subtable" exclam.tnum
EndChar

StartChar: f
Encoding: 102 102 249
GlifName: f
Width: 758
VWidth: 0
GlyphClass: 2
Flags: HW
LayerCount: 2
Fore
SplineSet
777 1451 m 257
 733 1277 l 257
 698 1292 654 1302 611 1302 c 256
 523 1302 472 1264 472 1182 c 258
 472 0 l 257
 205 0 l 257
 205 1212 l 258
 205 1424 358 1504 536 1504 c 256
 624 1504 710 1484 777 1451 c 257
EndSplineSet
Refer: 1669 57354 N 1 0 0 1 -46 360 2
Substitution2: "'smcp' Lowercase to Small Capitals in Latin lookup 0 subtable" uniA730
EndChar

StartChar: figuredash
Encoding: 8210 8210 250
GlifName: figuredash
Width: 1468
VWidth: 0
GlyphClass: 2
Flags: HW
LayerCount: 2
Fore
SplineSet
1376 710 m 257
 1376 514 l 257
 93 514 l 257
 93 710 l 257
 1376 710 l 257
EndSplineSet
EndChar

StartChar: filledbox
Encoding: 9632 9632 251
GlifName: filledbox
Width: 1078
VWidth: 0
GlyphClass: 2
Flags: HW
LayerCount: 2
Fore
SplineSet
174 732 m 257
 906 732 l 257
 906 0 l 257
 174 0 l 257
 174 732 l 257
EndSplineSet
EndChar

StartChar: five.SC
Encoding: 1114157 -1 253
GlifName: five.S_C_
Width: 942
VWidth: 0
GlyphClass: 2
Flags: HW
LayerCount: 2
Fore
SplineSet
106 334 m 257
 326 331 l 257
 326 249 375 202 463 202 c 256
 552 202 605 256 605 367 c 256
 605 477 559 536 456 536 c 256
 388 536 334 510 278 452 c 257
 115 532 l 257
 163 1081 l 257
 824 1081 l 257
 824 874 l 257
 351 874 l 257
 333 671 l 257
 386 702 442 721 510 721 c 256
 722 721 838 586 838 359 c 256
 838 119 703 -8 470 -8 c 256
 241 -8 106 116 106 334 c 257
EndSplineSet
EndChar

StartChar: five.onum
Encoding: 1114158 -1 254
GlifName: five.onum
Width: 1182
VWidth: 0
GlyphClass: 2
Flags: HW
LayerCount: 2
Fore
SplineSet
212 -38 m 257
 286 -80 393 -115 500 -115 c 256
 694 -115 811 -41 811 119 c 256
 811 281 694 349 534 349 c 256
 433 349 328 320 258 280 c 257
 146 364 l 257
 196 1081 l 257
 1038 1081 l 257
 1038 868 l 257
 409 868 l 257
 384 530 l 257
 430 546 491 558 547 558 c 256
 855 558 1045 398 1045 112 c 256
 1045 -195 829 -364 508 -364 c 256
 365 -364 240 -325 112 -250 c 257
 212 -38 l 257
EndSplineSet
EndChar

StartChar: four.SC
Encoding: 1114160 -1 258
GlifName: four.S_C_
Width: 1060
VWidth: 0
GlyphClass: 2
Flags: HW
LayerCount: 2
Fore
SplineSet
552 404 m 257
 552 818 l 257
 263 404 l 257
 552 404 l 257
552 204 m 257
 84 204 l 257
 84 463 l 257
 532 1081 l 257
 813 1081 l 257
 813 404 l 257
 991 404 l 257
 991 204 l 257
 813 204 l 257
 813 0 l 257
 552 0 l 257
 552 204 l 257
EndSplineSet
EndChar

StartChar: four.onum
Encoding: 1114161 -1 259
GlifName: four.onum
Width: 1251
VWidth: 0
GlyphClass: 2
Flags: HW
LayerCount: 2
Fore
SplineSet
700 208 m 257
 700 734 l 257
 306 208 l 257
 700 208 l 257
700 0 m 257
 84 0 l 257
 84 204 l 257
 721 1081 l 257
 967 1081 l 257
 967 208 l 257
 1183 208 l 257
 1183 0 l 257
 967 0 l 257
 967 -346 l 257
 700 -346 l 257
 700 0 l 257
EndSplineSet
EndChar

StartChar: g
Encoding: 103 103 261
GlifName: g
Width: 1159
VWidth: 0
GlyphClass: 2
Flags: HW
LayerCount: 2
Fore
SplineSet
560 -477 m 256
 264 -477 101 -333 113 -120 c 257
 341 -120 l 257
 341 -213 418 -269 548 -269 c 256
 679 -269 754 -211 754 -120 c 258
 754 1081 l 257
 1021 1081 l 257
 1021 -120 l 258
 1021 -324 859 -477 560 -477 c 256
EndSplineSet
Refer: 1674 57359 N -1 0 0 -1 1126 1080 2
Substitution2: "'smcp' Lowercase to Small Capitals in Latin lookup 0 subtable" uni0262
EndChar

StartChar: g.alt
Encoding: 1114163 -1 262
GlifName: g.alt
Width: 1156
VWidth: 0
GlyphClass: 2
Flags: HW
LayerCount: 2
Fore
SplineSet
834 991 m 257
 892 1081 993 1156 1133 1156 c 257
 1133 970 l 257
 1042 970 994 940 936 879 c 257
 834 991 l 257
580 1091 m 256
 883 1091 1025 920 1025 704 c 256
 1025 488 881 314 580 314 c 256
 279 314 135 488 135 704 c 256
 135 920 277 1091 580 1091 c 256
1116 -121 m 256
 1116 -370 891 -490 576 -490 c 256
 232 -490 74 -377 74 -199 c 256
 74 -83 155 22 283 66 c 257
 430 -27 l 257
 344 -58 296 -114 296 -180 c 256
 296 -280 400 -313 579 -313 c 256
 763 -313 859 -251 859 -164 c 256
 859 -85 790 -58 593 -58 c 256
 260 -58 137 23 137 213 c 256
 137 318 193 413 293 462 c 257
 404 362 l 257
 361 331 336 293 336 255 c 256
 336 168 419 148 692 148 c 256
 1018 148 1116 68 1116 -121 c 256
580 901 m 256
 461 901 401 830 401 704 c 256
 401 578 460 506 580 506 c 256
 700 506 760 578 760 704 c 256
 760 830 699 901 580 901 c 256
EndSplineSet
EndChar

StartChar: germandbls
Encoding: 223 223 267
GlifName: germandbls
Width: 1202
VWidth: 0
GlyphClass: 2
Flags: HW
LayerCount: 2
Fore
SplineSet
517 0 m 257
 541 223 l 257
 583 218 633 214 674 214 c 256
 802 214 860 255 860 311 c 256
 860 369 813 415 757 452 c 256
 679 505 577 581 577 716 c 256
 577 814 622 882 667 940 c 256
 710 994 735 1057 735 1127 c 256
 735 1214 682 1287 564 1287 c 256
 440 1287 390 1205 390 1084 c 258
 390 0 l 257
 146 0 l 257
 146 1084 l 258
 146 1292 276 1500 564 1500 c 256
 844 1500 982 1295 982 1101 c 256
 982 962 939 881 873 812 c 256
 839 775 820 751 820 718 c 256
 820 671 862 640 918 605 c 256
 998 554 1112 453 1112 290 c 256
 1112 64 938 -11 695 -11 c 256
 639 -11 579 -6 517 0 c 257
EndSplineSet
EndChar

StartChar: grave
Encoding: 96 96 268
GlifName: grave
Width: 525
VWidth: 0
GlyphClass: 2
Flags: HW
LayerCount: 2
Fore
SplineSet
438 1134 m 257
 268 1134 l 257
 88 1474 l 257
 284 1474 l 257
 438 1134 l 257
EndSplineSet
EndChar

StartChar: greater
Encoding: 62 62 269
GlifName: greater
Width: 757
VWidth: 0
GlyphClass: 2
Flags: HW
LayerCount: 2
Fore
SplineSet
172 215 m 257
 62 325 l 257
 480 704 l 257
 62 1084 l 257
 172 1195 l 257
 696 704 l 257
 172 215 l 257
EndSplineSet
EndChar

StartChar: guillemotleft.alt
Encoding: 1114164 -1 271
GlifName: guillemotleft.alt
Width: 916
VWidth: 0
GlyphClass: 2
Flags: HW
LayerCount: 2
Fore
SplineSet
440 710 m 256
 440 892 567 1055 745 1189 c 257
 854 1057 l 257
 729 961 620 847 620 710 c 256
 620 573 729 458 854 362 c 257
 745 229 l 257
 567 363 440 528 440 710 c 256
62 710 m 256
 62 905 143 1071 311 1256 c 257
 452 1140 l 257
 334 1004 256 869 256 710 c 256
 256 551 334 415 452 279 c 257
 311 163 l 257
 143 348 62 515 62 710 c 256
EndSplineSet
EndChar

StartChar: guillemotright.alt
Encoding: 1114165 -1 273
GlifName: guillemotright.alt
Width: 916
VWidth: 0
GlyphClass: 2
Flags: HW
LayerCount: 2
Fore
SplineSet
478 710 m 256
 478 528 350 363 172 229 c 257
 62 362 l 257
 187 458 297 573 297 710 c 256
 297 847 187 961 62 1057 c 257
 172 1189 l 257
 350 1055 478 892 478 710 c 256
854 710 m 256
 854 515 775 348 607 163 c 257
 465 279 l 257
 583 415 661 551 661 710 c 256
 661 869 583 1004 465 1140 c 257
 607 1256 l 257
 775 1071 854 905 854 710 c 256
EndSplineSet
EndChar

StartChar: h
Encoding: 104 104 274
GlifName: h
Width: 1206
VWidth: 0
GlyphClass: 2
Flags: HW
LayerCount: 2
Fore
SplineSet
396 0 m 257
 129 0 l 257
 129 1498 l 257
 396 1498 l 257
 396 0 l 257
EndSplineSet
Refer: 1672 57357 N 1 0 0 1 42 0 2
Substitution2: "'smcp' Lowercase to Small Capitals in Latin lookup 0 subtable" uni029C
EndChar

StartChar: hyphen
Encoding: 45 45 279
GlifName: hyphen
Width: 1081
VWidth: 0
GlyphClass: 2
Flags: HW
LayerCount: 2
Fore
SplineSet
988 710 m 257
 988 514 l 257
 93 514 l 257
 93 710 l 257
 988 710 l 257
EndSplineSet
Substitution2: "'tnum' Tabular Numbers lookup 22 subtable" hyphen.tnum
EndChar

StartChar: k
Encoding: 107 107 293
GlifName: k
Width: 1182
VWidth: 0
GlyphClass: 2
Flags: HW
LayerCount: 2
Fore
SplineSet
790 1081 m 257
 1126 1081 l 257
 717 578 l 257
 1167 0 l 257
 832 0 l 257
 485 480 l 257
 404 480 l 257
 404 0 l 257
 139 0 l 257
 139 1498 l 257
 404 1498 l 257
 404 647 l 257
 485 647 l 257
 790 1081 l 257
EndSplineSet
Substitution2: "'smcp' Lowercase to Small Capitals in Latin lookup 0 subtable" uni1D0B
EndChar

StartChar: k.alt
Encoding: 1114167 -1 294
GlifName: k.alt
Width: 1182
VWidth: 0
GlyphClass: 2
Flags: HW
LayerCount: 2
Fore
SplineSet
790 1081 m 257
 1126 1081 l 257
 714 608 l 257
 1167 0 l 257
 832 0 l 257
 560 437 l 257
 404 281 l 257
 404 0 l 257
 139 0 l 257
 139 1498 l 257
 404 1498 l 257
 404 615 l 257
 790 1081 l 257
EndSplineSet
Substitution2: "'smcp' Lowercase to Small Capitals in Latin lookup 0 subtable" uni1D0B
EndChar

StartChar: kgreenlandic
Encoding: 312 312 295
GlifName: kgreenlandic
Width: 1100
VWidth: 0
GlyphClass: 2
Flags: HW
LayerCount: 2
Fore
SplineSet
128 1081 m 257
 394 1081 l 257
 394 642 l 257
 760 1081 l 257
 1064 1081 l 257
 631 538 l 257
 1073 0 l 257
 760 0 l 257
 475 351 l 257
 394 257 l 257
 394 0 l 257
 128 0 l 257
 128 1081 l 257
EndSplineSet
EndChar

StartChar: l
Encoding: 108 108 296
GlifName: l
Width: 560
VWidth: 0
GlyphClass: 2
Flags: HW
LayerCount: 2
Fore
SplineSet
414 0 m 257
 148 0 l 257
 148 1498 l 257
 414 1498 l 257
 414 0 l 257
EndSplineSet
Substitution2: "'smcp' Lowercase to Small Capitals in Latin lookup 0 subtable" uni029F
EndChar

StartChar: less
Encoding: 60 60 300
GlifName: less
Width: 757
VWidth: 0
GlyphClass: 2
Flags: HW
LayerCount: 2
Fore
SplineSet
586 1194 m 257
 696 1084 l 257
 279 704 l 257
 696 325 l 257
 586 214 l 257
 62 704 l 257
 586 1194 l 257
EndSplineSet
EndChar

StartChar: logicalnot
Encoding: 172 172 301
GlifName: logicalnot
Width: 1129
VWidth: 0
GlyphClass: 2
Flags: HW
LayerCount: 2
Fore
SplineSet
86 514 m 257
 86 709 l 257
 964 709 l 257
 964 262 l 257
 768 262 l 257
 768 514 l 257
 86 514 l 257
EndSplineSet
EndChar

StartChar: longs
Encoding: 383 383 302
GlifName: longs
Width: 758
VWidth: 0
GlyphClass: 2
Flags: HW
LayerCount: 2
Fore
SplineSet
777 1451 m 257
 733 1277 l 257
 698 1292 654 1302 611 1302 c 256
 523 1302 472 1264 472 1182 c 258
 472 0 l 257
 205 0 l 257
 205 1212 l 258
 205 1424 358 1504 536 1504 c 256
 624 1504 710 1484 777 1451 c 257
EndSplineSet
Refer: 1681 57366 N 1 0 0 1 -34 0 2
EndChar

StartChar: m
Encoding: 109 109 304
GlifName: m
Width: 1838
VWidth: 0
GlyphClass: 2
Flags: HW
LayerCount: 2
Fore
SplineSet
132 1081 m 257
 386 1081 l 257
 398 808 l 257
 398 0 l 257
 132 0 l 257
 132 1081 l 257
EndSplineSet
Refer: 1671 57356 N 1 0 0 1 -565 0 2
Refer: 1671 57356 N 1 0 0 1 94 0 2
Substitution2: "'smcp' Lowercase to Small Capitals in Latin lookup 0 subtable" uni1D0D
EndChar

StartChar: macron
Encoding: 175 175 305
GlifName: macron
Width: 955
VWidth: 0
GlyphClass: 2
Flags: HW
LayerCount: 2
Fore
SplineSet
862 1298 m 257
 862 1134 l 257
 93 1134 l 257
 93 1298 l 257
 862 1298 l 257
EndSplineSet
EndChar

StartChar: macron.alt
Encoding: 1114168 -1 306
GlifName: macron.alt
Width: 758
VWidth: 0
GlyphClass: 2
Flags: HW
LayerCount: 2
Fore
SplineSet
665 1298 m 257
 665 1134 l 257
 93 1134 l 257
 93 1298 l 257
 665 1298 l 257
EndSplineSet
EndChar

StartChar: minute
Encoding: 8242 8242 308
GlifName: minute
Width: 464
VWidth: 0
GlyphClass: 2
Flags: HW
LayerCount: 2
Fore
SplineSet
210 1440 m 257
 366 1440 l 257
 222 962 l 257
 98 962 l 257
 210 1440 l 257
EndSplineSet
EndChar

StartChar: mu
Encoding: 181 181 309
GlifName: mu
Width: 1206
VWidth: 0
GlyphClass: 2
Flags: HW
LayerCount: 2
Fore
SplineSet
128 1081 m 257
 395 1081 l 257
 395 -429 l 257
 128 -429 l 257
 128 1081 l 257
EndSplineSet
Refer: 422 117 N 1 0 0 1 0 0 2
EndChar

StartChar: multiply
Encoding: 215 215 310
GlifName: multiply
Width: 1050
VWidth: 0
GlyphClass: 2
Flags: HW
LayerCount: 2
Fore
SplineSet
785 1012 m 257
 923 873 l 257
 664 616 l 257
 923 356 l 257
 785 218 l 257
 526 477 l 257
 268 217 l 257
 129 356 l 257
 388 616 l 257
 129 873 l 257
 267 1012 l 257
 526 753 l 257
 785 1012 l 257
EndSplineSet
Substitution2: "'tnum' Tabular Numbers lookup 22 subtable" multiply.tnum
EndChar

StartChar: n
Encoding: 110 110 312
GlifName: n
Width: 1206
VWidth: 0
GlyphClass: 2
Flags: HW
LayerCount: 2
Fore
SplineSet
396 0 m 257
 129 0 l 257
 129 1081 l 257
 382 1081 l 257
 396 808 l 257
 396 0 l 257
EndSplineSet
Refer: 1672 57357 N 1 0 0 1 42 0 2
Substitution2: "'smcp' Lowercase to Small Capitals in Latin lookup 0 subtable" uni0274
EndChar

StartChar: nine.SC
Encoding: 1114170 -1 317
GlifName: nine.S_C_
Width: 975
VWidth: 0
GlyphClass: 2
Flags: HW
LayerCount: 2
Fore
SplineSet
477 562 m 256
 541 562 609 598 640 654 c 257
 638 813 572 881 482 881 c 257
 388 881 334 819 334 719 c 256
 334 623 389 562 477 562 c 256
467 -11 m 256
 260 -11 136 123 136 307 c 257
 334 308 l 257
 334 256 377 198 467 198 c 256
 595 198 644 327 644 481 c 257
 593 422 509 392 422 392 c 256
 234 392 110 515 110 738 c 256
 110 970 259 1088 473 1088 c 256
 747 1088 866 902 866 578 c 256
 866 208 736 -11 467 -11 c 256
EndSplineSet
EndChar

StartChar: nine.onum
Encoding: 1114171 -1 318
GlifName: nine.onum
Width: 1183
VWidth: 0
GlyphClass: 2
Flags: HW
LayerCount: 2
Fore
SplineSet
591 861 m 256
 464 861 370 770 370 621 c 256
 370 484 461 400 579 400 c 256
 739 400 869 536 923 672 c 257
 955 471 l 257
 876 319 739 189 536 189 c 256
 292 189 110 358 110 619 c 256
 110 905 301 1091 595 1091 c 256
 909 1091 1085 879 1085 502 c 256
 1085 68 851 -216 408 -356 c 257
 318 -149 l 257
 681 -32 834 144 834 528 c 256
 834 734 761 861 591 861 c 256
EndSplineSet
EndChar

StartChar: numbersign
Encoding: 35 35 322
GlifName: numbersign
Width: 1823
VWidth: 0
GlyphClass: 2
Flags: HW
LayerCount: 2
Fore
SplineSet
1122 890 m 257
 798 890 l 257
 706 557 l 257
 1030 557 l 257
 1122 890 l 257
550 -6 m 257
 320 -6 l 257
 424 373 l 257
 164 373 l 257
 164 557 l 257
 475 557 l 257
 567 890 l 257
 265 890 l 257
 265 1073 l 257
 618 1073 l 257
 717 1431 l 257
 947 1431 l 257
 849 1073 l 257
 1172 1073 l 257
 1273 1431 l 257
 1502 1431 l 257
 1402 1073 l 257
 1661 1073 l 257
 1661 890 l 257
 1352 890 l 257
 1261 557 l 257
 1560 557 l 257
 1560 373 l 257
 1211 373 l 257
 1106 -6 l 257
 874 -6 l 257
 980 373 l 257
 655 373 l 257
 550 -6 l 257
EndSplineSet
Substitution2: "'tnum' Tabular Numbers lookup 22 subtable" numbersign.tnum
EndChar

StartChar: o
Encoding: 111 111 324
GlifName: o
Width: 1159
VWidth: 0
GlyphClass: 2
Flags: HW
LayerCount: 2
Fore
SplineSet
580 878 m 256
 436 878 340 779 340 540 c 256
 340 301 434 201 580 201 c 256
 726 201 820 301 820 540 c 256
 820 779 724 878 580 878 c 256
580 1090 m 256
 912 1090 1086 880 1086 540 c 256
 1086 200 910 -11 580 -11 c 256
 250 -11 73 200 73 540 c 256
 73 880 248 1090 580 1090 c 256
EndSplineSet
Substitution2: "'smcp' Lowercase to Small Capitals in Latin lookup 0 subtable" uni1D0F
EndChar

StartChar: ogonek
Encoding: 731 731 330
GlifName: ogonek
Width: 686
VWidth: 0
GlyphClass: 2
Flags: HW
LayerCount: 2
Fore
SplineSet
341 -514 m 256
 190 -514 93 -425 93 -287 c 256
 93 -234 109 -182 136 -134 c 258
 212 0 l 257
 212 1 l 257
 368 1 l 257
 368 0 l 257
 256 -201 l 257
 240 -227 231 -259 231 -288 c 256
 231 -349 270 -382 340 -382 c 256
 414 -382 455 -345 455 -280 c 257
 592 -280 l 257
 592 -423 494 -514 341 -514 c 256
EndSplineSet
EndChar

StartChar: one.SC
Encoding: 1114174 -1 336
GlifName: one.S_C_
Width: 734
VWidth: 0
GlyphClass: 2
Flags: HW
LayerCount: 2
Fore
SplineSet
376 688 m 257
 330 636 222 596 32 596 c 257
 32 805 l 257
 299 805 376 857 376 1081 c 257
 616 1081 l 257
 616 0 l 257
 376 0 l 257
 376 688 l 257
EndSplineSet
EndChar

StartChar: one.onum
Encoding: 1114175 -1 337
GlifName: one.onum
Width: 838
VWidth: 0
GlyphClass: 2
Flags: HW
LayerCount: 2
Fore
SplineSet
414 704 m 257
 364 640 240 603 50 603 c 257
 50 812 l 257
 317 812 414 857 414 1081 c 257
 678 1081 l 257
 678 0 l 257
 414 0 l 257
 414 704 l 257
EndSplineSet
EndChar

StartChar: ordfeminine
Encoding: 170 170 343
GlifName: ordfeminine
Width: 828
VWidth: 0
GlyphClass: 2
Flags: HW
LayerCount: 2
Fore
SplineSet
511 1523 m 257
 511 1592 l 258
 511 1655 466 1684 389 1684 c 256
 310 1684 269 1657 269 1591 c 257
 121 1591 l 257
 113 1736 215 1819 397 1819 c 256
 579 1819 681 1731 681 1592 c 258
 681 1306 l 258
 681 1259 696 1239 747 1239 c 257
 747 1131 l 257
 641 1118 558 1144 526 1225 c 257
 482 1166 412 1124 305 1124 c 256
 185 1124 107 1192 107 1311 c 256
 107 1460 236 1536 382 1536 c 256
 428 1536 472 1531 511 1523 c 257
511 1417 m 257
 478 1425 445 1427 406 1427 c 256
 316 1427 258 1388 258 1327 c 256
 258 1274 292 1247 355 1247 c 256
 431 1247 484 1290 511 1322 c 257
 511 1417 l 257
EndSplineSet
EndChar

StartChar: p
Encoding: 112 112 349
GlifName: p
Width: 1153
VWidth: 0
GlyphClass: 2
Flags: HW
LayerCount: 2
Fore
SplineSet
139 1081 m 257
 405 1081 l 257
 405 -447 l 257
 139 -447 l 257
 139 1081 l 257
EndSplineSet
Refer: 1674 57359 N 1 0 0 1 34 0 2
Substitution2: "'smcp' Lowercase to Small Capitals in Latin lookup 0 subtable" uni1D18
EndChar

StartChar: paragraph
Encoding: 182 182 350
GlifName: paragraph
Width: 1422
VWidth: 0
GlyphClass: 2
Flags: HW
LayerCount: 2
Fore
SplineSet
1269 -467 m 257
 1073 -467 l 257
 1073 1211 l 257
 926 1211 l 257
 926 -467 l 257
 731 -467 l 257
 731 343 l 257
 601 343 l 258
 295 343 103 581 103 890 c 256
 103 1199 295 1440 601 1440 c 258
 1269 1440 l 257
 1269 -467 l 257
EndSplineSet
EndChar

StartChar: parenleft
Encoding: 40 40 351
GlifName: parenleft
Width: 681
VWidth: 0
GlyphClass: 2
Flags: HW
LayerCount: 2
Fore
SplineSet
434 1560 m 257
 608 1464 l 257
 448 1212 363 877 363 495 c 256
 363 113 448 -220 608 -473 c 257
 434 -570 l 257
 224 -237 118 94 118 495 c 256
 118 896 224 1227 434 1560 c 257
EndSplineSet
Substitution2: "'tnum' Tabular Numbers lookup 22 subtable" parenleft.tnum
EndChar

StartChar: parenright
Encoding: 41 41 353
GlifName: parenright
Width: 681
VWidth: 0
GlyphClass: 2
Flags: HW
LayerCount: 2
Fore
SplineSet
247 -570 m 257
 73 -474 l 257
 233 -222 318 113 318 495 c 256
 318 877 233 1209 73 1462 c 257
 247 1560 l 257
 457 1227 564 896 564 495 c 256
 564 94 457 -237 247 -570 c 257
EndSplineSet
Substitution2: "'tnum' Tabular Numbers lookup 22 subtable" parenright.tnum
EndChar

StartChar: period
Encoding: 46 46 357
GlifName: period
Width: 604
VWidth: 0
GlyphClass: 2
Flags: HW
LayerCount: 2
Fore
SplineSet
150 140 m 256
 150 223 218 287 302 287 c 256
 386 287 454 223 454 140 c 256
 454 57 386 -11 302 -11 c 256
 218 -11 150 57 150 140 c 256
EndSplineSet
Substitution2: "'tnum' Tabular Numbers lookup 22 subtable" period.tnum
EndChar

StartChar: periodcentered
Encoding: 183 183 359
GlifName: periodcentered
Width: 550
VWidth: 0
GlyphClass: 2
Flags: HW
LayerCount: 2
Fore
SplineSet
124 722 m 256
 124 805 192 869 276 869 c 256
 360 869 428 805 428 722 c 256
 428 639 360 571 276 571 c 256
 192 571 124 639 124 722 c 256
EndSplineSet
EndChar

StartChar: plus
Encoding: 43 43 361
GlifName: plus
Width: 1048
VWidth: 0
GlyphClass: 2
Flags: HW
LayerCount: 2
Fore
SplineSet
956 677 m 257
 956 480 l 257
 632 480 l 257
 632 147 l 257
 418 147 l 257
 418 480 l 257
 93 480 l 257
 93 677 l 257
 418 677 l 257
 418 1011 l 257
 632 1011 l 257
 632 677 l 257
 956 677 l 257
EndSplineSet
Substitution2: "'tnum' Tabular Numbers lookup 22 subtable" plus.tnum
EndChar

StartChar: q
Encoding: 113 113 365
GlifName: q
Width: 1152
VWidth: 0
GlyphClass: 2
Flags: HW
LayerCount: 2
Fore
SplineSet
748 1081 m 257
 1015 1081 l 257
 1015 -453 l 257
 748 -453 l 257
 748 1081 l 257
EndSplineSet
Refer: 1674 57359 N -1 0 0 -1 1120 1081 2
Substitution2: "'smcp' Lowercase to Small Capitals in Latin lookup 0 subtable" uniA7EE
EndChar

StartChar: question
Encoding: 63 63 366
GlifName: question
Width: 1124
VWidth: 0
GlyphClass: 2
Flags: HW
LayerCount: 2
Fore
SplineSet
529 -11 m 256
 445 -11 376 57 376 140 c 256
 376 223 445 287 529 287 c 256
 613 287 681 223 681 140 c 256
 681 57 613 -11 529 -11 c 256
376 911 m 257
 158 907 l 257
 144 957 138 1015 138 1061 c 256
 138 1289 295 1440 554 1440 c 256
 832 1440 988 1246 988 1057 c 256
 988 871 898 788 808 712 c 256
 727 644 656 581 656 457 c 257
 410 457 l 257
 410 621 495 696 602 786 c 256
 695 863 741 924 741 1028 c 256
 741 1144 672 1228 548 1228 c 256
 426 1228 366 1142 366 1029 c 256
 366 991 369 947 376 911 c 257
EndSplineSet
Substitution2: "'tnum' Tabular Numbers lookup 22 subtable" question.tnum
EndChar

StartChar: quoteleft
Encoding: 8216 8216 373
GlifName: quoteleft
Width: 614
VWidth: 0
GlyphClass: 2
Flags: HW
LayerCount: 2
Fore
SplineSet
383 1567 m 257
 478 1116 l 257
 308 1034 l 257
 137 1567 l 257
 383 1567 l 257
EndSplineSet
EndChar

StartChar: quoteright
Encoding: 8217 8217 375
GlifName: quoteright
Width: 614
VWidth: 0
GlyphClass: 2
Flags: HW
LayerCount: 2
Fore
SplineSet
232 1567 m 257
 478 1567 l 257
 307 1034 l 257
 137 1116 l 257
 232 1567 l 257
EndSplineSet
EndChar

StartChar: quotesingle
Encoding: 39 39 377
GlifName: quotesingle
Width: 407
VWidth: 0
GlyphClass: 2
Flags: HW
LayerCount: 2
Fore
SplineSet
113 1476 m 257
 294 1476 l 257
 276 976 l 257
 132 976 l 257
 113 1476 l 257
EndSplineSet
EndChar

StartChar: r
Encoding: 114 114 378
GlifName: r
Width: 870
VWidth: 0
GlyphClass: 2
Flags: HW
LayerCount: 2
Fore
SplineSet
139 1081 m 257
 392 1081 l 257
 405 756 l 257
 405 0 l 257
 139 0 l 257
 139 1081 l 257
EndSplineSet
Refer: 1673 57358 N 1 0 0 1 0 0 2
Substitution2: "'smcp' Lowercase to Small Capitals in Latin lookup 0 subtable" uni0280
EndChar

StartChar: registered
Encoding: 174 174 381
GlifName: registered
Width: 1820
VWidth: 0
GlyphClass: 2
Flags: HW
LayerCount: 2
Fore
SplineSet
321 744 m 256
 321 408 579 149 912 149 c 256
 1245 149 1502 408 1502 744 c 256
 1502 1079 1245 1338 912 1338 c 256
 579 1338 321 1079 321 744 c 256
130 744 m 256
 130 1163 453 1514 912 1514 c 256
 1371 1514 1693 1163 1693 744 c 256
 1693 325 1371 -28 912 -28 c 256
 453 -28 130 325 130 744 c 256
1217 412 m 257
 1068 412 l 257
 923 592 l 257
 913 592 904 591 892 591 c 258
 789 591 l 257
 789 410 l 257
 678 410 l 257
 678 1092 l 257
 928 1092 l 258
 1086 1092 1209 987 1209 841 c 256
 1209 737 1145 653 1052 615 c 257
 1217 412 l 257
789 699 m 257
 928 699 l 258
 1017 699 1088 754 1088 841 c 256
 1088 928 1018 986 928 986 c 258
 789 986 l 257
 789 699 l 257
EndSplineSet
EndChar

StartChar: ring
Encoding: 730 730 382
GlifName: ring
Width: 721
VWidth: 0
GlyphClass: 2
Flags: HW
LayerCount: 2
Fore
SplineSet
360 1556 m 256
 268 1556 207 1486 207 1400 c 256
 207 1314 268 1246 360 1246 c 256
 452 1246 515 1314 515 1400 c 256
 515 1486 452 1556 360 1556 c 256
360 1667 m 256
 512 1667 627 1548 627 1400 c 256
 627 1252 512 1134 360 1134 c 256
 208 1134 93 1252 93 1400 c 256
 93 1548 208 1667 360 1667 c 256
EndSplineSet
EndChar

StartChar: s
Encoding: 115 115 383
GlifName: s
Width: 1031
VWidth: 0
GlyphClass: 2
Flags: HW
LayerCount: 2
Fore
SplineSet
522 1091 m 256
 798 1091 955 953 942 723 c 257
 728 729 l 257
 728 825 652 881 524 881 c 256
 409 881 337 836 337 760 c 256
 337 696 392 671 549 635 c 256
 832 571 952 468 952 309 c 256
 952 117 777 -10 512 -10 c 256
 230 -10 62 133 78 359 c 257
 291 352 l 257
 291 254 373 198 520 198 c 256
 642 198 712 240 712 312 c 256
 712 377 649 406 485 443 c 256
 211 505 98 606 98 770 c 256
 98 967 261 1091 522 1091 c 256
EndSplineSet
Substitution2: "'smcp' Lowercase to Small Capitals in Latin lookup 0 subtable" uniA731
EndChar

StartChar: section
Encoding: 167 167 389
GlifName: section
Width: 997
VWidth: 0
GlyphClass: 2
Flags: HW
LayerCount: 2
Fore
SplineSet
897 279 m 256
 897 56 697 -46 482 -46 c 256
 300 -46 156 6 78 56 c 257
 172 260 l 257
 236 220 362 170 484 170 c 256
 586 170 668 200 668 276 c 256
 668 343 609 371 482 400 c 256
 284 444 130 502 130 700 c 256
 130 806 181 885 251 934 c 257
 178 979 131 1041 131 1145 c 256
 131 1364 319 1480 524 1480 c 256
 662 1480 779 1436 861 1381 c 257
 780 1207 l 257
 713 1245 624 1276 534 1276 c 256
 445 1276 363 1239 363 1156 c 256
 363 1087 423 1066 537 1039 c 256
 743 991 897 934 897 724 c 256
 897 620 850 547 778 500 c 257
 850 456 897 390 897 279 c 256
520 596 m 257
 610 599 672 648 672 718 c 256
 672 786 611 821 515 836 c 257
 433 834 365 783 365 709 c 256
 365 644 422 611 520 596 c 257
EndSplineSet
EndChar

StartChar: seven.SC
Encoding: 1114185 -1 392
GlifName: seven.S_C_
Width: 1006
VWidth: 0
GlyphClass: 2
Flags: HW
LayerCount: 2
Fore
SplineSet
109 859 m 257
 109 1081 l 257
 868 1081 l 257
 905 906 l 257
 683 660 539 350 539 0 c 257
 299 0 l 257
 299 332 421 663 584 859 c 257
 109 859 l 257
EndSplineSet
EndChar

StartChar: seven.onum
Encoding: 1114186 -1 393
GlifName: seven.onum
Width: 1134
VWidth: 0
GlyphClass: 2
Flags: HW
LayerCount: 2
Fore
SplineSet
1058 853 m 257
 761 523 571 123 571 -346 c 257
 317 -346 l 257
 317 98 500 543 754 846 c 257
 78 846 l 257
 78 1081 l 257
 1011 1081 l 257
 1058 853 l 257
EndSplineSet
EndChar

StartChar: six.SC
Encoding: 1114188 -1 397
GlifName: six.S_C_
Width: 975
VWidth: 0
GlyphClass: 2
Flags: HW
LayerCount: 2
Fore
SplineSet
498 516 m 256
 434 516 367 480 336 424 c 257
 338 265 403 197 493 197 c 257
 587 197 642 259 642 359 c 256
 642 455 586 516 498 516 c 256
509 1088 m 256
 716 1088 841 955 841 771 c 257
 643 770 l 257
 643 822 598 880 508 880 c 256
 380 880 332 751 332 597 c 257
 383 656 467 685 554 685 c 256
 742 685 866 563 866 340 c 256
 866 108 718 -11 504 -11 c 256
 230 -11 110 176 110 500 c 256
 110 870 241 1088 509 1088 c 256
EndSplineSet
EndChar

StartChar: six.onum
Encoding: 1114189 -1 398
GlifName: six.onum
Width: 1183
VWidth: 0
GlyphClass: 2
Flags: HW
LayerCount: 2
Fore
SplineSet
604 216 m 256
 731 216 825 307 825 456 c 256
 825 593 733 677 615 677 c 256
 455 677 326 541 272 405 c 257
 239 607 l 257
 318 759 456 888 659 888 c 256
 903 888 1085 719 1085 458 c 256
 1085 172 894 -14 600 -14 c 256
 286 -14 110 199 110 576 c 256
 110 1010 344 1312 787 1452 c 257
 876 1244 l 257
 513 1127 361 933 361 549 c 256
 361 343 434 216 604 216 c 256
EndSplineSet
EndChar

StartChar: slash
Encoding: 47 47 400
GlifName: slash
Width: 1165
VWidth: 0
GlyphClass: 2
Flags: HW
LayerCount: 2
Fore
SplineSet
752 1440 m 257
 1068 1440 l 257
 412 0 l 257
 99 0 l 257
 752 1440 l 257
EndSplineSet
Substitution2: "'tnum' Tabular Numbers lookup 22 subtable" slash.tnum
Substitution2: "'smcp' Lowercase to Small Capitals in Latin lookup 0 subtable" slash.sc
EndChar

StartChar: slash.fraction
Encoding: 1114191 -1 401
GlifName: slash.fraction
Width: 1837
VWidth: 0
GlyphClass: 2
Flags: HW
LayerCount: 2
Fore
SplineSet
602 0 m 257
 325 0 l 257
 1236 1440 l 257
 1512 1440 l 257
 602 0 l 257
EndSplineSet
EndChar

StartChar: slash.sc
Encoding: 1114192 -1 402
GlifName: slash.sc
Width: 1027
VWidth: 0
GlyphClass: 2
Flags: HW
LayerCount: 2
Fore
SplineSet
612 1081 m 257
 928 1081 l 257
 416 0 l 257
 99 0 l 257
 612 1081 l 257
EndSplineSet
EndChar

StartChar: sterling
Encoding: 163 163 405
GlifName: sterling
Width: 1289
VWidth: 0
GlyphClass: 2
Flags: HW
LayerCount: 2
Fore
SplineSet
684 1221 m 256
 597 1221 545 1175 545 1059 c 258
 545 340 l 258
 545 298 534 258 505 227 c 257
 1176 227 l 257
 1176 0 l 257
 115 0 l 257
 115 226 l 257
 220 226 278 254 278 340 c 258
 278 1061 l 258
 278 1276 406 1450 684 1450 c 256
 962 1450 1097 1290 1088 1072 c 257
 825 1072 l 257
 825 1161 782 1221 684 1221 c 256
EndSplineSet
Refer: 1669 57354 N 1 0 0 1 32 16 2
EndChar

StartChar: t
Encoding: 116 116 406
GlifName: t
Width: 773
VWidth: 0
GlyphClass: 2
Flags: HW
LayerCount: 2
Fore
SplineSet
721 206 m 257
 759 30 l 257
 690 4 610 -11 534 -11 c 256
 355 -11 203 70 203 282 c 258
 203 1370 l 257
 469 1370 l 257
 469 312 l 258
 469 230 521 192 609 192 c 256
 645 192 685 197 721 206 c 257
EndSplineSet
Refer: 1669 57354 N 1 0 0 1 -37 360 2
Substitution2: "'smcp' Lowercase to Small Capitals in Latin lookup 0 subtable" uni1D1B
EndChar

StartChar: three.SC
Encoding: 1114194 -1 411
GlifName: three.S_C_
Width: 952
VWidth: 0
GlyphClass: 2
Flags: HW
LayerCount: 2
Fore
SplineSet
78 351 m 257
 304 351 l 257
 304 257 367 206 470 206 c 256
 566 206 626 256 626 342 c 256
 626 434 559 484 443 484 c 258
 362 484 l 257
 364 624 l 257
 454 624 l 258
 551 624 610 676 610 753 c 256
 610 839 544 882 465 882 c 256
 382 882 327 836 327 761 c 257
 126 761 l 257
 113 968 245 1092 466 1092 c 256
 654 1092 810 982 810 780 c 256
 810 706 771 610 686 562 c 257
 779 518 838 415 838 311 c 256
 838 105 673 -5 460 -5 c 256
 223 -5 65 118 78 351 c 257
EndSplineSet
EndChar

StartChar: three.onum
Encoding: 1114195 -1 412
GlifName: three.onum
Width: 1151
VWidth: 0
GlyphClass: 2
Flags: HW
LayerCount: 2
Fore
SplineSet
544 300 m 258
 418 300 l 257
 418 489 l 257
 544 489 l 258
 658 489 753 591 753 693 c 256
 753 803 667 869 549 869 c 256
 426 869 351 798 358 687 c 257
 119 687 l 257
 104 924 285 1091 559 1091 c 256
 815 1091 995 944 995 721 c 256
 995 584 916 473 784 402 c 257
 948 350 1024 229 1024 66 c 256
 1024 -185 837 -346 533 -346 c 256
 214 -346 31 -177 48 120 c 257
 309 120 l 257
 298 -40 392 -126 564 -126 c 256
 711 -126 800 -47 800 78 c 256
 800 196 716 300 544 300 c 258
EndSplineSet
EndChar

StartChar: two.SC
Encoding: 1114197 -1 418
GlifName: two.S_C_
Width: 925
VWidth: 0
GlyphClass: 2
Flags: HW
LayerCount: 2
Fore
SplineSet
90 708 m 257
 72 931 229 1088 468 1088 c 256
 696 1088 839 951 839 731 c 256
 839 557 748 487 588 391 c 256
 526 354 431 296 405 227 c 257
 845 227 l 257
 845 0 l 257
 85 0 l 257
 53 255 192 387 401 496 c 256
 561 582 614 639 614 721 c 256
 614 811 551 866 458 866 c 256
 363 866 298 806 306 713 c 257
 90 708 l 257
EndSplineSet
EndChar

StartChar: two.onum
Encoding: 1114198 -1 419
GlifName: two.onum
Width: 1070
VWidth: 0
GlyphClass: 2
Flags: HW
LayerCount: 2
Fore
SplineSet
723 700 m 256
 723 801 638 869 518 869 c 256
 396 869 317 797 322 687 c 257
 89 687 l 257
 73 923 257 1091 531 1091 c 256
 785 1091 958 947 958 738 c 256
 958 603 886 492 748 412 c 257
 478 228 l 257
 977 228 l 257
 977 0 l 257
 83 0 l 257
 83 224 l 257
 540 482 l 258
 668 552 723 618 723 700 c 256
EndSplineSet
EndChar

StartChar: u
Encoding: 117 117 422
GlifName: u
Width: 1206
VWidth: 0
GlyphClass: 2
Flags: HW
LayerCount: 2
Fore
SplineSet
812 1081 m 257
 1078 1081 l 257
 1078 0 l 257
 824 0 l 257
 812 272 l 257
 812 1081 l 257
EndSplineSet
Refer: 1672 57357 N -1 0 0 -1 1165 1081 2
Substitution2: "'smcp' Lowercase to Small Capitals in Latin lookup 0 subtable" uni1D1C
EndChar

StartChar: underscore
Encoding: 95 95 431
GlifName: underscore
Width: 1050
VWidth: 0
GlyphClass: 2
Flags: HW
LayerCount: 2
Fore
SplineSet
950 0 m 257
 950 -266 l 257
 100 -266 l 257
 100 0 l 257
 950 0 l 257
EndSplineSet
EndChar

StartChar: uni00AD
Encoding: 173 173 433
GlifName: uni00A_D_
Width: 1047
VWidth: 0
GlyphClass: 2
Flags: HW
LayerCount: 2
Fore
SplineSet
956 709 m 257
 956 514 l 257
 93 514 l 257
 93 709 l 257
 956 709 l 257
EndSplineSet
EndChar

StartChar: uni00B2
Encoding: 178 178 434
GlifName: uni00B_2
Width: 675
VWidth: 0
GlyphClass: 2
Flags: HW
LayerCount: 2
Fore
SplineSet
107 1134 m 257
 107 1242 l 257
 396 1492 l 258
 432 1523 451 1548 451 1598 c 256
 451 1666 399 1706 334 1706 c 256
 265 1706 219 1663 219 1589 c 257
 107 1589 l 257
 107 1744 221 1819 334 1819 c 256
 442 1819 564 1747 564 1598 c 256
 564 1516 524 1453 472 1411 c 258
 282 1246 l 257
 567 1246 l 257
 567 1134 l 257
 107 1134 l 257
EndSplineSet
EndChar

StartChar: uni00B3
Encoding: 179 179 435
GlifName: uni00B_3
Width: 684
VWidth: 0
GlyphClass: 2
Flags: HW
LayerCount: 2
Fore
SplineSet
243 1619 m 257
 131 1619 l 257
 131 1745 215 1819 345 1819 c 256
 452 1819 562 1747 562 1618 c 256
 562 1568 529 1503 467 1479 c 257
 532 1457 578 1393 578 1323 c 256
 578 1190 478 1124 344 1124 c 256
 200 1124 107 1199 107 1334 c 257
 230 1334 l 257
 230 1265 277 1234 344 1234 c 256
 416 1234 458 1264 458 1330 c 256
 458 1396 411 1431 335 1431 c 258
 276 1431 l 257
 276 1525 l 257
 335 1525 l 258
 396 1525 437 1560 437 1614 c 256
 437 1667 399 1705 340 1705 c 256
 280 1705 243 1673 243 1619 c 257
EndSplineSet
EndChar

StartChar: uni00B9
Encoding: 185 185 436
GlifName: uni00B_9
Width: 526
VWidth: 0
GlyphClass: 2
Flags: HW
LayerCount: 2
Fore
SplineSet
107 1545 m 257
 107 1658 l 257
 308 1658 l 257
 308 1809 l 257
 420 1809 l 257
 420 1134 l 257
 308 1134 l 257
 308 1545 l 257
 107 1545 l 257
EndSplineSet
EndChar

StartChar: uni018F
Encoding: 399 399 451
GlifName: uni018F_
Width: 1505
VWidth: 0
GlyphClass: 2
Flags: HW
LayerCount: 2
Fore
SplineSet
1118 573 m 257
 376 573 l 257
 396 365 521 218 752 218 c 256
 962 218 1095 352 1118 573 c 257
1127 785 m 257
 1113 1075 976 1222 746 1222 c 256
 562 1222 441 1132 388 970 c 257
 144 1056 l 257
 229 1289 433 1450 742 1450 c 256
 1179 1450 1398 1130 1398 717 c 256
 1398 318 1194 -12 738 -12 c 256
 295 -12 59 354 109 785 c 257
 1127 785 l 257
EndSplineSet
EndChar

StartChar: uni01B7
Encoding: 439 439 452
GlifName: uni01B_7
Width: 1330
VWidth: 0
GlyphClass: 2
Flags: HW
LayerCount: 2
Fore
SplineSet
643 -487 m 256
 347 -487 112 -341 80 -55 c 257
 348 -46 l 257
 379 -174 488 -260 650 -260 c 256
 877 -260 986 -124 986 125 c 256
 986 421 776 541 496 489 c 257
 391 612 l 257
 881 1212 l 257
 101 1212 l 257
 101 1440 l 257
 1180 1440 l 257
 1180 1246 l 257
 767 733 l 257
 1095 685 1252 478 1252 125 c 256
 1252 -270 1036 -487 643 -487 c 256
EndSplineSet
EndChar

StartChar: uni0237
Encoding: 567 567 544
GlifName: uni0237
Width: 532
VWidth: 0
GlyphClass: 2
Flags: HW
LayerCount: 2
Fore
SplineSet
-157 -415 m 257
 -120 -240 l 257
 -84 -249 -43 -254 -8 -254 c 256
 80 -254 130 -215 130 -133 c 258
 130 1081 l 257
 399 1081 l 257
 399 -164 l 258
 399 -376 246 -456 67 -456 c 256
 -9 -456 -88 -441 -157 -415 c 257
EndSplineSet
EndChar

StartChar: uni0239
Encoding: 569 569 546
GlifName: uni0239
Width: 1762
VWidth: 0
GlyphClass: 2
Flags: HW
LayerCount: 2
Fore
SplineSet
747 1081 m 257
 1014 1081 l 257
 1014 -453 l 257
 747 -453 l 257
 747 1081 l 257
EndSplineSet
Refer: 1674 57359 N -1 0 0 -1 1120 1080 2
Refer: 1674 57359 N 1 0 0 1 643 0 2
EndChar

StartChar: uni0240
Encoding: 576 576 547
GlifName: uni0240
Width: 1020
VWidth: 0
GlyphClass: 2
Flags: HW
LayerCount: 2
Fore
SplineSet
798 -280 m 256
 650 -280 570 -217 495 -150 c 256
 408 -72 317 0 74 0 c 257
 74 192 l 257
 635 853 l 257
 74 853 l 257
 74 1081 l 257
 942 1081 l 257
 942 888 l 257
 332 172 l 257
 469 164 534 112 596 52 c 256
 653 -2 716 -53 798 -53 c 256
 886 -53 934 -4 984 67 c 257
 1161 -63 l 257
 1074 -189 976 -280 798 -280 c 256
EndSplineSet
EndChar

StartChar: uni0255
Encoding: 597 597 550
GlifName: uni0255
Width: 1140
VWidth: 0
GlyphClass: 2
Flags: HW
LayerCount: 2
Fore
SplineSet
608 204 m 256
 444 204 350 308 350 540 c 256
 350 772 445 878 592 878 c 256
 698 878 782 828 808 695 c 257
 1064 751 l 257
 1009 971 838 1090 586 1090 c 256
 254 1090 84 866 84 540 c 256
 84 214 254 -11 595 -11 c 256
 835 -11 1037 120 1037 342 c 256
 1037 504 898 607 749 607 c 256
 474 607 268 360 50 29 c 257
 204 -75 l 257
 448 275 577 447 713 447 c 256
 781 447 816 403 816 347 c 256
 816 259 717 204 608 204 c 256
EndSplineSet
EndChar

StartChar: uni0262
Encoding: 610 610 552
GlifName: uni0262
Width: 1134
VWidth: 0
GlyphClass: 2
Flags: HW
LayerCount: 2
Fore
SplineSet
309 542 m 256
 309 312 416 204 613 204 c 256
 711 204 786 236 829 290 c 257
 829 432 l 257
 545 432 l 257
 545 593 l 257
 1060 598 l 257
 1060 201 l 257
 953 64 812 -10 612 -10 c 256
 277 -10 72 189 72 542 c 256
 72 876 264 1091 582 1091 c 256
 798 1091 951 966 1012 801 c 257
 823 722 l 257
 790 813 695 877 581 877 c 256
 405 877 309 750 309 542 c 256
EndSplineSet
EndChar

StartChar: uni0274
Encoding: 628 628 555
GlifName: uni0274
Width: 1271
VWidth: 0
GlyphClass: 2
Flags: HW
LayerCount: 2
Fore
SplineSet
866 1081 m 257
 1133 1081 l 257
 1133 0 l 257
 871 0 l 257
 405 704 l 257
 405 0 l 257
 139 0 l 257
 139 1081 l 257
 400 1081 l 257
 866 376 l 257
 866 1081 l 257
EndSplineSet
EndChar

StartChar: uni0280
Encoding: 640 640 556
GlifName: uni0280
Width: 1142
VWidth: 0
GlyphClass: 2
Flags: HW
LayerCount: 2
Fore
SplineSet
415 546 m 257
 558 546 l 258
 694 546 758 592 758 723 c 256
 758 855 692 897 558 897 c 258
 415 897 l 257
 415 546 l 257
415 364 m 257
 415 0 l 257
 149 0 l 257
 149 1081 l 257
 602 1081 l 258
 871 1081 1024 957 1024 723 c 256
 1024 487 870 364 602 364 c 258
 415 364 l 257
610 465 m 257
 843 465 l 257
 1112 0 l 257
 847 0 l 257
 610 465 l 257
EndSplineSet
EndChar

StartChar: uni0283
Encoding: 643 643 557
GlifName: uni0283
Width: 791
VWidth: 0
GlyphClass: 2
Flags: HW
LayerCount: 2
Fore
SplineSet
810 1451 m 257
 766 1277 l 257
 731 1292 687 1302 644 1302 c 256
 556 1302 505 1264 505 1182 c 258
 505 -184 l 258
 505 -396 352 -477 174 -477 c 256
 86 -477 -1 -457 -68 -424 c 257
 -23 -251 l 257
 12 -266 55 -275 98 -275 c 256
 186 -275 238 -237 238 -155 c 258
 238 1212 l 258
 238 1424 391 1504 569 1504 c 256
 657 1504 743 1484 810 1451 c 257
EndSplineSet
EndChar

StartChar: uni028F
Encoding: 655 655 558
GlifName: uni028F_
Width: 1088
VWidth: 0
GlyphClass: 2
Flags: HW
LayerCount: 2
Fore
SplineSet
786 1081 m 257
 1094 1081 l 257
 679 464 l 257
 679 0 l 257
 411 0 l 257
 411 464 l 257
 -5 1081 l 257
 304 1081 l 257
 545 684 l 257
 786 1081 l 257
EndSplineSet
EndChar

StartChar: uni0291
Encoding: 657 657 559
GlifName: uni0291
Width: 1509
VWidth: 0
GlyphClass: 2
Flags: HW
LayerCount: 2
Fore
SplineSet
1017 227 m 258
 379 227 l 257
 942 888 l 257
 942 1081 l 257
 74 1081 l 257
 74 853 l 257
 635 853 l 257
 74 192 l 257
 74 0 l 257
 1004 0 l 258
 1244 0 1445 130 1445 352 c 256
 1445 514 1349 653 1143 653 c 256
 860 653 653 362 310 -173 c 257
 470 -276 l 257
 830 265 987 456 1123 456 c 256
 1187 456 1223 416 1223 361 c 256
 1223 273 1126 227 1017 227 c 258
EndSplineSet
EndChar

StartChar: uni0292
Encoding: 658 658 560
GlifName: uni0292
Width: 1147
VWidth: 0
GlyphClass: 2
Flags: HW
LayerCount: 2
Fore
SplineSet
561 -487 m 256
 298 -487 114 -371 73 -102 c 257
 336 -78 l 257
 366 -205 444 -274 560 -274 c 256
 694 -274 799 -199 799 9 c 256
 799 270 618 312 426 271 c 257
 315 394 l 257
 683 853 l 257
 112 853 l 257
 112 1081 l 257
 1014 1081 l 257
 1014 888 l 257
 690 486 l 257
 899 461 1067 315 1067 9 c 256
 1067 -320 876 -487 561 -487 c 256
EndSplineSet
EndChar

StartChar: uni0293
Encoding: 659 659 561
GlifName: uni0293
Width: 1152
VWidth: 0
GlyphClass: 2
Flags: HW
LayerCount: 2
Fore
SplineSet
117 853 m 257
 117 1081 l 257
 1019 1081 l 257
 1019 888 l 257
 695 486 l 257
 904 461 1072 315 1072 9 c 256
 1072 -320 850 -488 535 -488 c 256
 290 -488 78 -361 78 -135 c 256
 78 27 219 130 368 130 c 256
 643 130 848 -117 1066 -448 c 257
 912 -552 l 257
 668 -202 538 -31 402 -31 c 256
 334 -31 299 -75 299 -131 c 256
 299 -226 420 -274 534 -274 c 256
 668 -274 804 -199 804 9 c 256
 804 270 623 312 431 271 c 257
 320 394 l 257
 688 853 l 257
 117 853 l 257
EndSplineSet
EndChar

StartChar: uni0299
Encoding: 665 665 562
GlifName: uni0299
Width: 1127
VWidth: 0
GlyphClass: 2
Flags: HW
LayerCount: 2
Fore
SplineSet
149 1081 m 257
 624 1081 l 258
 868 1081 978 951 978 769 c 256
 978 677 936 604 868 563 c 257
 968 519 1028 421 1028 306 c 256
 1028 109 901 0 694 0 c 258
 149 0 l 257
 149 1081 l 257
417 897 m 257
 417 610 l 257
 593 610 l 258
 686 610 742 654 742 755 c 256
 742 857 684 897 593 897 c 258
 417 897 l 257
417 469 m 257
 417 183 l 257
 609 183 l 258
 702 183 758 225 758 326 c 256
 758 428 700 469 609 469 c 258
 417 469 l 257
EndSplineSet
EndChar

StartChar: uni029C
Encoding: 668 668 563
GlifName: uni029C_
Width: 1260
VWidth: 0
GlyphClass: 2
Flags: HW
LayerCount: 2
Fore
SplineSet
856 1081 m 257
 1122 1081 l 257
 1122 0 l 257
 856 0 l 257
 856 434 l 257
 405 434 l 257
 405 0 l 257
 139 0 l 257
 139 1081 l 257
 405 1081 l 257
 405 647 l 257
 856 647 l 257
 856 1081 l 257
EndSplineSet
EndChar

StartChar: uni029F
Encoding: 671 671 565
GlifName: uni029F_
Width: 955
VWidth: 0
GlyphClass: 2
Flags: HW
LayerCount: 2
Fore
SplineSet
159 1081 m 257
 424 1081 l 257
 424 214 l 257
 906 214 l 257
 906 0 l 257
 159 0 l 257
 159 1081 l 257
EndSplineSet
EndChar

StartChar: uni02C2
Encoding: 706 706 575
GlifName: uni02C_2
Width: 672
VWidth: 0
GlyphClass: 2
Flags: HW
LayerCount: 2
Fore
SplineSet
306 717 m 257
 590 433 l 257
 478 320 l 257
 82 717 l 257
 478 1114 l 257
 590 1001 l 257
 306 717 l 257
EndSplineSet
EndChar

StartChar: uni02C3
Encoding: 707 707 576
GlifName: uni02C_3
Width: 672
VWidth: 0
GlyphClass: 2
Flags: HW
LayerCount: 2
Fore
SplineSet
366 717 m 257
 82 1001 l 257
 194 1114 l 257
 590 717 l 257
 194 320 l 257
 82 433 l 257
 366 717 l 257
EndSplineSet
EndChar

StartChar: uni02C4
Encoding: 708 708 577
GlifName: uni02C_4
Width: 956
VWidth: 0
GlyphClass: 2
Flags: HW
LayerCount: 2
Fore
SplineSet
478 746 m 257
 194 462 l 257
 82 575 l 257
 478 972 l 257
 874 575 l 257
 762 462 l 257
 478 746 l 257
EndSplineSet
EndChar

StartChar: uni02C5
Encoding: 709 709 578
GlifName: uni02C_5
Width: 956
VWidth: 0
GlyphClass: 2
Flags: HW
LayerCount: 2
Fore
SplineSet
478 688 m 257
 762 972 l 257
 874 859 l 257
 478 462 l 257
 82 859 l 257
 194 972 l 257
 478 688 l 257
EndSplineSet
EndChar

StartChar: uni02D2
Encoding: 722 722 579
GlifName: uni02D_2
Width: 479
VWidth: 0
GlyphClass: 2
Flags: HW
LayerCount: 2
Fore
SplineSet
93 1254 m 257
 202 1254 263 1320 263 1418 c 256
 263 1516 203 1581 94 1581 c 257
 94 1704 l 257
 268 1704 386 1596 386 1418 c 256
 386 1240 268 1131 93 1131 c 257
 93 1254 l 257
EndSplineSet
EndChar

StartChar: uni02D3
Encoding: 723 723 580
GlifName: uni02D_3
Width: 591
VWidth: 0
GlyphClass: 2
Flags: HW
LayerCount: 2
Fore
SplineSet
443 1581 m 257
 333 1581 273 1516 273 1418 c 256
 273 1320 333 1254 442 1254 c 257
 442 1131 l 257
 268 1131 150 1240 150 1418 c 256
 150 1596 267 1704 443 1704 c 257
 443 1581 l 257
EndSplineSet
EndChar

StartChar: uni031B
Encoding: 795 795 584
GlifName: uni031B_
Width: 702
VWidth: 0
GlyphClass: 2
Flags: HW
LayerCount: 2
Fore
SplineSet
502 1584 m 257
 528 1501 552 1417 552 1336 c 256
 552 1211 472 1134 312 1134 c 258
 150 1134 l 257
 150 1262 l 257
 322 1262 l 258
 397 1262 420 1284 420 1337 c 256
 420 1386 400 1468 378 1539 c 257
 502 1584 l 257
EndSplineSet
EndChar

StartChar: uni0600
Encoding: 1536 1536 585
GlifName: uni0600
Width: 3013
VWidth: 0
GlyphClass: 2
Flags: HW
LayerCount: 2
Fore
SplineSet
2217 267 m 257
 2189 298 2174 341 2174 392 c 256
 2174 600 2294 795 2467 988 c 257
 2664 813 l 257
 2511 646 2440 516 2440 407 c 256
 2440 289 2539 246 2674 216 c 258
 2939 160 l 257
 2859 -102 l 257
 2624 -30 2464 0 2328 0 c 258
 76 0 l 257
 76 267 l 257
 2217 267 l 257
EndSplineSet
EndChar

StartChar: uni0601
Encoding: 1537 1537 586
GlifName: uni0601
Width: 3973
VWidth: 0
GlyphClass: 2
Flags: HW
LayerCount: 2
Fore
SplineSet
76 319 m 257
 288 427 l 257
 348 292 377 244 431 244 c 256
 483 244 507 303 546 406 c 256
 640 642 728 769 890 769 c 256
 1032 769 1132 668 1262 471 c 256
 1357 327 1424 245 1521 245 c 256
 1625 245 1692 357 1766 547 c 257
 1925 569 l 257
 2121 340 2389 245 2627 245 c 256
 2853 245 3042 337 3265 486 c 256
 3440 604 3531 646 3633 646 c 256
 3786 646 3896 530 3896 373 c 256
 3896 241 3825 110 3650 -70 c 257
 3491 82 l 257
 3570 152 3606 213 3606 261 c 256
 3606 301 3581 325 3548 325 c 256
 3510 325 3474 305 3389 248 c 256
 3149 89 2899 -22 2629 -22 c 256
 2395 -22 2128 52 1894 243 c 257
 1802 85 1696 -22 1521 -22 c 256
 1327 -22 1193 105 1046 333 c 256
 979 434 934 492 881 492 c 256
 819 492 790 424 752 315 c 256
 667 87 585 -22 420 -22 c 256
 259 -22 186 66 76 319 c 257
EndSplineSet
EndChar

StartChar: uni0603
Encoding: 1539 1539 587
GlifName: uni0603
Width: 2056
VWidth: 0
GlyphClass: 2
Flags: HW
LayerCount: 2
Fore
SplineSet
76 0 m 257
 76 267 l 257
 374 267 533 397 625 795 c 257
 884 736 l 257
 768 222 522 0 76 0 c 257
1691 443 m 256
 1691 531 1634 589 1537 589 c 256
 1426 589 1285 500 1134 285 c 257
 957 400 l 257
 1185 722 1381 852 1582 852 c 256
 1826 852 1982 680 1982 439 c 256
 1982 137 1744 0 1379 0 c 256
 1040 0 802 124 575 385 c 257
 753 586 l 257
 971 370 1161 266 1405 266 c 256
 1568 266 1691 310 1691 443 c 256
EndSplineSet
EndChar

StartChar: uni0604
Encoding: 1540 1540 588
GlifName: uni0604
Width: 2873
VWidth: 0
GlyphClass: 2
Flags: HW
LayerCount: 2
Fore
SplineSet
1284 -192 m 257
 1062 -79 899 0 673 0 c 258
 76 0 l 257
 76 267 l 257
 554 267 l 258
 609 267 654 260 703 245 c 257
 673 285 661 336 661 388 c 256
 661 651 858 889 1125 889 c 256
 1341 889 1449 767 1549 649 c 256
 1646 534 1714 467 1857 467 c 256
 1979 467 2036 525 2036 654 c 258
 2036 890 l 257
 2266 890 l 257
 2266 654 l 258
 2266 538 2298 467 2403 467 c 256
 2508 467 2533 533 2533 634 c 256
 2533 717 2518 838 2496 936 c 257
 2755 990 l 257
 2785 859 2797 755 2797 618 c 256
 2797 350 2681 200 2438 200 c 256
 2270 200 2182 272 2156 379 c 257
 2130 272 2049 200 1878 200 c 256
 1653 200 1532 329 1424 446 c 256
 1339 540 1260 622 1142 622 c 256
 997 622 926 511 926 386 c 256
 926 246 1096 174 1238 116 c 256
 1296 92 1350 69 1400 46 c 257
 1284 -192 l 257
EndSplineSet
EndChar

StartChar: uni060C
Encoding: 1548 1548 592
GlifName: uni060C_
Width: 602
VWidth: 0
GlyphClass: 2
Flags: HW
LayerCount: 2
Fore
SplineSet
288 306 m 257
 392 315 470 251 470 152 c 256
 470 62 403 -4 319 -4 c 256
 209 -4 133 76 133 214 c 256
 133 383 215 541 344 661 c 257
 439 566 l 257
 360 484 305 407 288 306 c 257
EndSplineSet
EndChar

StartChar: uni060D
Encoding: 1549 1549 593
GlifName: uni060D_
Width: 883
VWidth: 0
GlyphClass: 2
Flags: HW
LayerCount: 2
Fore
SplineSet
261 -634 m 257
 -25 -634 l 257
 488 680 l 257
 774 680 l 257
 261 -634 l 257
EndSplineSet
EndChar

StartChar: uni060E
Encoding: 1550 1550 594
GlifName: uni060E_
Width: 2193
VWidth: 0
GlyphClass: 2
Flags: HW
LayerCount: 2
Fore
SplineSet
1083 415 m 256
 1083 208 957 20 873 -88 c 257
 667 73 l 257
 730 152 817 275 817 391 c 256
 817 530 725 615 589 615 c 256
 461 615 341 517 341 365 c 256
 341 214 499 161 663 161 c 258
 2118 161 l 257
 2118 -103 l 257
 659 -103 l 258
 330 -103 76 43 76 351 c 256
 76 665 327 880 589 880 c 256
 868 880 1083 692 1083 415 c 256
EndSplineSet
EndChar

StartChar: uni060F
Encoding: 1551 1551 595
GlifName: uni060F_
Width: 1550
VWidth: 0
GlyphClass: 2
Flags: HW
LayerCount: 2
Fore
SplineSet
827 -743 m 256
 398 -743 76 -536 76 -167 c 256
 76 66 212 263 459 403 c 257
 293 455 174 588 174 776 c 256
 174 1067 406 1282 684 1282 c 256
 849 1282 991 1212 1097 1105 c 257
 955 909 l 257
 892 969 797 1016 689 1016 c 256
 556 1016 443 929 443 790 c 256
 443 643 584 580 832 580 c 256
 910 580 1017 590 1133 601 c 257
 1146 341 l 257
 692 319 342 150 342 -152 c 256
 342 -369 568 -477 842 -477 c 256
 1027 -477 1183 -426 1183 -295 c 256
 1183 -211 1124 -151 1026 -151 c 256
 916 -151 782 -232 642 -442 c 257
 343 -887 l 257
 153 -759 l 257
 466 -329 l 257
 672 -34 893 98 1094 98 c 256
 1326 98 1474 -63 1474 -286 c 256
 1474 -585 1197 -743 827 -743 c 256
EndSplineSet
EndChar

StartChar: uni0615.alt
Encoding: 1114200 -1 597
GlifName: uni0615.alt
Width: 743
VWidth: 0
GlyphClass: 2
Flags: HW
LayerCount: 2
Fore
SplineSet
333 88 m 257
 387 88 l 258
 444 88 521 93 521 147 c 256
 521 175 502 195 470 195 c 256
 427 195 382 153 333 88 c 257
227 88 m 257
 227 410 l 257
 316 410 l 257
 316 176 l 257
 372 239 419 284 488 284 c 256
 553 284 610 238 610 148 c 256
 610 35 508 0 387 -0 c 258
 133 -0 l 257
 133 88 l 257
 227 88 l 257
EndSplineSet
EndChar

StartChar: uni061C
Encoding: 1564 1564 599
GlifName: uni061C_
Width: 2495
VWidth: 0
GlyphClass: 2
Flags: HW
LayerCount: 2
Fore
SplineSet
902 1127 m 257
 1136 1127 l 257
 1136 1047 l 257
 902 1047 l 257
 902 1127 l 257
1368 1127 m 257
 1602 1127 l 257
 1602 1047 l 257
 1368 1047 l 257
 1368 1127 l 257
2214 1047 m 257
 1834 1047 l 257
 1834 1127 l 257
 2296 1125 l 257
 2296 817 l 257
 2214 817 l 257
 2214 1047 l 257
200 1127 m 257
 670 1127 l 257
 670 1047 l 257
 281 1049 l 257
 281 819 l 257
 200 819 l 257
 200 1127 l 257
1604 -280 m 257
 1370 -280 l 257
 1370 -199 l 257
 1604 -199 l 257
 1604 -280 l 257
200 -280 m 257
 672 -280 l 257
 672 -199 l 257
 281 -199 l 257
 281 30 l 257
 200 30 l 257
 200 -280 l 257
2214 -199 m 257
 1836 -199 l 257
 1836 -280 l 257
 2296 -280 l 257
 2296 28 l 257
 2214 28 l 257
 2214 -199 l 257
1138 -280 m 257
 904 -280 l 257
 904 -199 l 257
 1138 -199 l 257
 1138 -280 l 257
2214 261 m 257
 2214 585 l 257
 2296 585 l 257
 2296 261 l 257
 2214 261 l 257
281 587 m 257
 281 263 l 257
 200 263 l 257
 200 587 l 257
 281 587 l 257
EndSplineSet
Refer: 1334 7437 N 0.5 0 0 0.5 1353 146 2
Refer: 1327 7424 N 0.5 0 0 0.5 386 146 2
Refer: 565 671 N 0.5 0 0 0.5 884 146 2
EndChar

StartChar: uni061F
Encoding: 1567 1567 601
GlifName: uni061F_
Width: 1124
VWidth: 0
GlyphClass: 2
Flags: HW
LayerCount: 2
Fore
SplineSet
589 -11 m 256
 505 -11 436 57 436 140 c 256
 436 223 505 287 589 287 c 256
 673 287 741 223 741 140 c 256
 741 57 673 -11 589 -11 c 256
749 911 m 257
 756 947 761 991 761 1029 c 256
 761 1142 700 1228 578 1228 c 256
 454 1228 384 1144 384 1028 c 256
 384 924 430 863 524 786 c 256
 631 697 716 621 716 457 c 257
 470 457 l 257
 470 581 399 644 318 712 c 256
 228 788 138 871 138 1057 c 256
 138 1246 293 1440 571 1440 c 256
 830 1440 988 1289 988 1061 c 256
 988 1015 984 957 970 907 c 257
 749 911 l 257
EndSplineSet
Substitution2: "'tnum' Tabular Numbers lookup 22 subtable" uni061F.tnum
EndChar

StartChar: uni0652.alt
Encoding: 1114236 -1 688
GlifName: uni0652.alt
Width: 380
VWidth: 0
GlyphClass: 2
Flags: HW
LayerCount: 2
Fore
SplineSet
190 195 m 256
 148 195 130 171 130 135 c 256
 130 98 149 73 190 73 c 256
 230 73 250 100 250 135 c 256
 250 169 232 195 190 195 c 256
190 268 m 256
 271 268 325 211 325 135 c 256
 325 58 271 0 190 0 c 256
 108 0 56 59 56 135 c 256
 56 210 108 268 190 268 c 256
EndSplineSet
EndChar

StartChar: uni0660
Encoding: 1632 1632 702
GlifName: uni0660
Width: 734
VWidth: 0
GlyphClass: 2
Flags: HW
LayerCount: 2
Fore
SplineSet
367 698 m 257
 118 449 l 257
 367 199 l 257
 615 449 l 257
 367 698 l 257
EndSplineSet
PairPos2: "'kern' Horizontal Kerning in Arabic lookup 7 subtable" uni0661 dx=45 dy=0 dh=45 dv=0 dx=0 dy=0 dh=0 dv=0
PairPos2: "'kern' Horizontal Kerning in Arabic lookup 7 subtable" uni0667 dx=-89 dy=0 dh=-89 dv=0 dx=0 dy=0 dh=0 dv=0
PairPos2: "'kern' Horizontal Kerning in Arabic lookup 7 subtable" uni0662 dx=-111 dy=0 dh=-111 dv=0 dx=0 dy=0 dh=0 dv=0
Substitution2: "'tnum' Tabular Numbers lookup 22 subtable" uni0660.tnum
EndChar

StartChar: uni0661
Encoding: 1633 1633 704
GlifName: uni0661
Width: 722
VWidth: 0
GlyphClass: 2
Flags: HW
LayerCount: 2
Fore
SplineSet
593 0 m 257
 326 0 l 257
 326 542 257 895 77 1363 c 257
 330 1456 l 257
 515 968 593 569 593 0 c 257
EndSplineSet
PairPos2: "'kern' Horizontal Kerning in Arabic lookup 7 subtable" uni0665 dx=-56 dy=0 dh=-56 dv=0 dx=0 dy=0 dh=0 dv=0
Substitution2: "'tnum' Tabular Numbers lookup 22 subtable" uni0661.tnum
EndChar

StartChar: uni0662
Encoding: 1634 1634 706
GlifName: uni0662
Width: 1233
VWidth: 0
GlyphClass: 2
Flags: HW
LayerCount: 2
Fore
SplineSet
627 995 m 256
 767 995 807 1086 832 1303 c 258
 850 1448 l 257
 1111 1408 l 257
 1077 1089 1029 732 670 732 c 256
 615 732 562 749 524 777 c 257
 573 532 592 285 592 0 c 257
 326 0 l 257
 326 512 266 866 76 1363 c 257
 330 1456 l 257
 385 1303 l 258
 473 1063 520 995 627 995 c 256
EndSplineSet
Substitution2: "'tnum' Tabular Numbers lookup 22 subtable" uni0662.tnum
EndChar

StartChar: uni0663
Encoding: 1635 1635 708
GlifName: uni0663
Width: 1544
VWidth: 0
GlyphClass: 2
Flags: HW
LayerCount: 2
Fore
SplineSet
576 985 m 256
 656 985 695 1042 703 1173 c 256
 706 1281 707 1336 708 1403 c 257
 910 1401 l 257
 904 1329 899 1268 899 1151 c 256
 899 1034 941 985 1028 985 c 256
 1117 985 1146 1039 1146 1152 c 256
 1146 1230 1137 1316 1122 1413 c 257
 1384 1457 l 257
 1402 1363 1412 1272 1412 1186 c 256
 1412 918 1312 718 1053 718 c 256
 926 718 830 779 795 881 c 257
 771 779 702 720 608 718 c 256
 569 718 546 731 524 758 c 257
 571 510 584 276 584 0 c 257
 317 0 l 257
 317 553 237 944 76 1366 c 257
 330 1456 l 257
 397 1206 l 257
 450 1050 491 985 576 985 c 256
EndSplineSet
PairPos2: "'kern' Horizontal Kerning in Arabic lookup 7 subtable" uni0668 dx=-56 dy=0 dh=-56 dv=0 dx=0 dy=0 dh=0 dv=0
Substitution2: "'tnum' Tabular Numbers lookup 22 subtable" uni0663.tnum
EndChar

StartChar: uni0664
Encoding: 1636 1636 710
GlifName: uni0664
Width: 1031
VWidth: 0
GlyphClass: 2
Flags: HW
LayerCount: 2
Fore
SplineSet
391 728 m 257
 246 765 166 859 166 981 c 256
 166 1269 477 1418 785 1456 c 257
 812 1200 l 257
 542 1173 438 1079 438 988 c 256
 438 892 540 852 813 852 c 257
 813 628 l 257
 542 628 371 542 371 400 c 256
 371 289 476 259 599 259 c 258
 917 259 l 257
 917 0 l 257
 596 0 l 258
 312 0 104 98 104 361 c 256
 104 513 200 662 391 728 c 257
EndSplineSet
PairPos2: "'kern' Horizontal Kerning in Arabic lookup 7 subtable" uni0666 dx=56 dy=0 dh=56 dv=0 dx=0 dy=0 dh=0 dv=0
Substitution2: "'tnum' Tabular Numbers lookup 22 subtable" uni0664.tnum
EndChar

StartChar: uni0664.urdu
Encoding: 1114242 -1 712
GlifName: uni0664.urdu
Width: 1205
VWidth: 0
GlyphClass: 2
Flags: HW
LayerCount: 2
Fore
SplineSet
1131 1229 m 257
 981 1142 861 1050 760 933 c 257
 635 934 l 257
 490 1129 l 258
 465 1162 437 1176 409 1176 c 256
 367 1176 331 1143 331 1099 c 256
 331 1081 337 1061 351 1041 c 258
 663 521 l 258
 718 429 750 325 750 218 c 256
 750 126 728 33 684 -55 c 257
 439 50 l 257
 469 104 486 157 486 210 c 256
 486 269 466 328 434 384 c 258
 129 911 l 258
 88 977 62 1047 62 1118 c 256
 62 1303 215 1450 395 1450 c 256
 507 1450 601 1396 667 1315 c 257
 710 1258 l 257
 793 1332 902 1404 998 1459 c 257
 1131 1229 l 257
EndSplineSet
Substitution2: "'tnum' Tabular Numbers lookup 22 subtable" uni0664.urdu.tnum
EndChar

StartChar: uni0665
Encoding: 1637 1637 714
GlifName: uni0665
Width: 1319
VWidth: 0
GlyphClass: 2
Flags: HW
LayerCount: 2
Fore
SplineSet
553 1456 m 257
 861 1218 1204 881 1204 459 c 256
 1204 120 972 -16 665 -16 c 256
 371 -16 116 116 116 436 c 256
 116 712 265 944 508 1146 c 257
 478 1174 422 1223 385 1252 c 257
 553 1456 l 257
660 989 m 257
 452 802 382 621 382 467 c 256
 382 320 473 251 665 251 c 256
 857 251 938 313 938 470 c 256
 938 620 841 805 660 989 c 257
EndSplineSet
PairPos2: "'kern' Horizontal Kerning in Arabic lookup 7 subtable" uni0661 dx=56 dy=0 dh=56 dv=0 dx=0 dy=0 dh=0 dv=0
PairPos2: "'kern' Horizontal Kerning in Arabic lookup 7 subtable" uni0667 dx=-111 dy=0 dh=-111 dv=0 dx=0 dy=0 dh=0 dv=0
Substitution2: "'tnum' Tabular Numbers lookup 22 subtable" uni0665.tnum
EndChar

StartChar: uni0666
Encoding: 1638 1638 716
GlifName: uni0666
Width: 1201
VWidth: 0
GlyphClass: 2
Flags: HW
LayerCount: 2
Fore
SplineSet
104 1166 m 257
 104 1440 l 257
 840 1440 l 257
 994 1266 l 257
 991 1188 989 1115 989 1010 c 256
 989 597 1022 415 1123 56 c 257
 864 -8 l 257
 762 368 721 578 721 1010 c 256
 721 1057 722 1117 724 1166 c 257
 104 1166 l 257
EndSplineSet
PairPos2: "'kern' Horizontal Kerning in Arabic lookup 7 subtable" uni0664 dx=-56 dy=0 dh=-56 dv=0 dx=0 dy=0 dh=0 dv=0
PairPos2: "'kern' Horizontal Kerning in Arabic lookup 7 subtable" uni0665 dx=-195 dy=0 dh=-195 dv=0 dx=0 dy=0 dh=0 dv=0
PairPos2: "'kern' Horizontal Kerning in Arabic lookup 7 subtable" uni0660 dx=-222 dy=0 dh=-222 dv=0 dx=0 dy=0 dh=0 dv=0
PairPos2: "'kern' Horizontal Kerning in Arabic lookup 7 subtable" uni066B dx=-167 dy=0 dh=-167 dv=0 dx=0 dy=0 dh=0 dv=0
PairPos2: "'kern' Horizontal Kerning in Arabic lookup 7 subtable" uni0668 dx=-222 dy=0 dh=-222 dv=0 dx=0 dy=0 dh=0 dv=0
Substitution2: "'tnum' Tabular Numbers lookup 22 subtable" uni0666.tnum
EndChar

StartChar: uni0667
Encoding: 1639 1639 718
GlifName: uni0667
Width: 1430
VWidth: 0
GlyphClass: 2
Flags: HW
LayerCount: 2
Fore
SplineSet
1142 1488 m 257
 1352 1324 l 257
 1061 946 896 605 834 0 c 257
 599 0 l 257
 537 605 370 946 79 1324 c 257
 290 1488 l 257
 494 1225 661 857 715 500 c 257
 769 857 938 1225 1142 1488 c 257
EndSplineSet
PairPos2: "'kern' Horizontal Kerning in Arabic lookup 7 subtable" uni0660 dx=-111 dy=0 dh=-111 dv=0 dx=0 dy=0 dh=0 dv=0
PairPos2: "'kern' Horizontal Kerning in Arabic lookup 7 subtable" uni0665 dx=-111 dy=0 dh=-111 dv=0 dx=0 dy=0 dh=0 dv=0
PairPos2: "'kern' Horizontal Kerning in Arabic lookup 7 subtable" uni0668 dx=-167 dy=0 dh=-167 dv=0 dx=0 dy=0 dh=0 dv=0
PairPos2: "'kern' Horizontal Kerning in Arabic lookup 7 subtable" uni066B dx=-139 dy=0 dh=-139 dv=0 dx=0 dy=0 dh=0 dv=0
Substitution2: "'tnum' Tabular Numbers lookup 22 subtable" uni0667.tnum
Substitution2: "'locl' Localized Forms in Arabic lookup 5 subtable" uni0667.urdu
EndChar

StartChar: uni0667.urdu
Encoding: 1114247 -1 720
GlifName: uni0667.urdu
Width: 1214
VWidth: 0
GlyphClass: 2
Flags: HW
LayerCount: 2
Fore
SplineSet
1045 334 m 257
 1140 86 l 257
 974 22 798 -10 620 -10 c 256
 464 -10 308 19 148 69 c 257
 75 267 l 257
 261 587 385 1034 443 1459 c 257
 708 1423 l 257
 655 1029 546 618 388 286 c 257
 471 267 549 257 626 257 c 256
 774 257 910 282 1045 334 c 257
EndSplineSet
Substitution2: "'tnum' Tabular Numbers lookup 22 subtable" uni0667.urdu.tnum
EndChar

StartChar: uni0668
Encoding: 1640 1640 722
GlifName: uni0668
Width: 1430
VWidth: 0
GlyphClass: 2
Flags: HW
LayerCount: 2
Fore
SplineSet
290 -36 m 257
 79 128 l 257
 370 506 537 847 599 1452 c 257
 834 1452 l 257
 896 847 1061 506 1352 128 c 257
 1142 -36 l 257
 938 227 769 596 715 952 c 257
 661 596 494 227 290 -36 c 257
EndSplineSet
PairPos2: "'kern' Horizontal Kerning in Arabic lookup 7 subtable" uni0663 dx=-222 dy=0 dh=-222 dv=0 dx=0 dy=0 dh=0 dv=0
PairPos2: "'kern' Horizontal Kerning in Arabic lookup 7 subtable" uni0662 dx=-195 dy=0 dh=-195 dv=0 dx=0 dy=0 dh=0 dv=0
PairPos2: "'kern' Horizontal Kerning in Arabic lookup 7 subtable" uni0667 dx=-167 dy=0 dh=-167 dv=0 dx=0 dy=0 dh=0 dv=0
Substitution2: "'tnum' Tabular Numbers lookup 22 subtable" uni0668.tnum
EndChar

StartChar: uni0669
Encoding: 1641 1641 724
GlifName: uni0669
Width: 1151
VWidth: 0
GlyphClass: 2
Flags: HW
LayerCount: 2
Fore
SplineSet
684 599 m 257
 630 581 574 572 506 572 c 256
 313 572 108 661 108 951 c 256
 108 1182 222 1459 516 1459 c 256
 844 1459 915 1210 923 851 c 257
 931 507 970 300 1061 96 c 257
 815 -11 l 257
 741 183 697 393 684 599 c 257
665 850 m 257
 665 874 l 258
 665 1092 623 1191 511 1191 c 256
 428 1191 357 1112 357 969 c 256
 357 871 408 833 525 833 c 256
 578 833 621 839 665 850 c 257
EndSplineSet
PairPos2: "'kern' Horizontal Kerning in Arabic lookup 7 subtable" uni0668 dx=-167 dy=0 dh=-167 dv=0 dx=0 dy=0 dh=0 dv=0
PairPos2: "'kern' Horizontal Kerning in Arabic lookup 7 subtable" uni0665 dx=-56 dy=0 dh=-56 dv=0 dx=0 dy=0 dh=0 dv=0
Substitution2: "'tnum' Tabular Numbers lookup 22 subtable" uni0669.tnum
EndChar

StartChar: uni066B
Encoding: 1643 1643 728
GlifName: uni066B_
Width: 883
VWidth: 0
GlyphClass: 2
Flags: HW
LayerCount: 2
Fore
SplineSet
261 -634 m 257
 -24 -633 l 257
 489 680 l 257
 774 680 l 257
 261 -634 l 257
EndSplineSet
PairPos2: "'kern' Horizontal Kerning in Arabic lookup 7 subtable" uni066B dx=-56 dy=0 dh=-56 dv=0 dx=0 dy=0 dh=0 dv=0
PairPos2: "'kern' Horizontal Kerning in Arabic lookup 7 subtable" uni0663 dx=-167 dy=0 dh=-167 dv=0 dx=0 dy=0 dh=0 dv=0
PairPos2: "'kern' Horizontal Kerning in Arabic lookup 7 subtable" uni0662 dx=-111 dy=0 dh=-111 dv=0 dx=0 dy=0 dh=0 dv=0
PairPos2: "'kern' Horizontal Kerning in Arabic lookup 7 subtable" uni0667 dx=-111 dy=0 dh=-111 dv=0 dx=0 dy=0 dh=0 dv=0
PairPos2: "'kern' Horizontal Kerning in Arabic lookup 7 subtable" zero dx=-56 dy=0 dh=-56 dv=0 dx=0 dy=0 dh=0 dv=0
PairPos2: "'kern' Horizontal Kerning in Arabic lookup 7 subtable" two dx=-111 dy=0 dh=-111 dv=0 dx=0 dy=0 dh=0 dv=0
PairPos2: "'kern' Horizontal Kerning in Arabic lookup 7 subtable" three dx=-84 dy=0 dh=-84 dv=0 dx=0 dy=0 dh=0 dv=0
PairPos2: "'kern' Horizontal Kerning in Arabic lookup 7 subtable" seven dx=-111 dy=0 dh=-111 dv=0 dx=0 dy=0 dh=0 dv=0
Substitution2: "'tnum' Tabular Numbers lookup 22 subtable" uni066B.tnum
EndChar

StartChar: uni066C
Encoding: 1644 1644 730
GlifName: uni066C_
Width: 633
VWidth: 0
GlyphClass: 2
Flags: HW
LayerCount: 2
Fore
SplineSet
335 0 m 257
 236 7 174 59 174 143 c 256
 174 222 236 279 320 279 c 256
 409 279 476 218 476 93 c 256
 476 -61 403 -206 253 -316 c 257
 166 -216 l 257
 239 -161 314 -74 335 0 c 257
EndSplineSet
Substitution2: "'tnum' Tabular Numbers lookup 22 subtable" uni066C.tnum
EndChar

StartChar: uni066D
Encoding: 1645 1645 732
GlifName: uni066D_
Width: 983
VWidth: 0
GlyphClass: 2
Flags: HW
LayerCount: 2
Fore
SplineSet
587 710 m 257
 399 710 l 257
 409 1028 l 257
 141 861 l 257
 45 1024 l 257
 326 1174 l 257
 45 1325 l 257
 141 1486 l 257
 409 1321 l 257
 399 1636 l 257
 587 1636 l 257
 577 1321 l 257
 845 1486 l 257
 940 1325 l 257
 661 1174 l 257
 940 1024 l 257
 845 861 l 257
 577 1028 l 257
 587 710 l 257
EndSplineSet
Substitution2: "'tnum' Tabular Numbers lookup 22 subtable" uni066D.tnum
EndChar

StartChar: uni06DD
Encoding: 1757 1757 985
GlifName: uni06D_D_
Width: 0
VWidth: 0
GlyphClass: 2
Flags: H
LayerCount: 2
Fore
SplineSet
1044 641 m 256
 1044 421 1055 159 1085 -97 c 256
 1085 -98 1085 -100 1085 -101 c 256
 1085 -114 1074 -125 1062 -127 c 256
 813 -173 661 -238 526 -297 c 256
 368 -366 212 -424 0 -424 c 256
 -212 -424 -368 -366 -526 -297 c 256
 -661 -238 -813 -173 -1062 -127 c 256
 -1074 -125 -1085 -114 -1085 -101 c 256
 -1085 -100 -1085 -98 -1085 -97 c 256
 -1055 159 -1044 421 -1044 641 c 256
 -1044 861 -1055 1125 -1085 1381 c 256
 -1085 1382 -1085 1382 -1085 1383 c 256
 -1085 1396 -1074 1408 -1062 1410 c 256
 -813 1456 -661 1521 -526 1580 c 256
 -368 1649 -212 1706 0 1706 c 256
 212 1706 368 1649 526 1580 c 256
 661 1521 813 1456 1062 1410 c 256
 1074 1408 1085 1396 1085 1383 c 256
 1085 1382 1085 1382 1085 1381 c 256
 1055 1125 1044 861 1044 641 c 256
0 1594 m 256
 -189 1594 -328 1544 -475 1479 c 256
 -598 1425 -743 1363 -969 1320 c 257
 -943 1084 -933 843 -933 641 c 256
 -933 439 -943 199 -969 -37 c 257
 -743 -80 -598 -142 -475 -196 c 256
 -328 -261 -189 -311 0 -311 c 256
 189 -311 328 -261 475 -196 c 256
 598 -142 743 -80 969 -37 c 257
 943 199 933 439 933 641 c 256
 933 843 943 1084 969 1320 c 257
 743 1363 598 1425 475 1479 c 256
 328 1544 189 1594 0 1594 c 256
EndSplineSet
EndChar

StartChar: uni06DE
Encoding: 1758 1758 986
GlifName: uni06D_E_
Width: 2663
VWidth: 0
GlyphClass: 2
Flags: HW
LayerCount: 2
Fore
SplineSet
1331 1485 m 256
 1371 1485 1404 1451 1404 1411 c 256
 1404 1371 1371 1337 1331 1337 c 256
 1291 1337 1257 1371 1257 1411 c 256
 1257 1451 1291 1485 1331 1485 c 256
1331 -117 m 256
 1371 -117 1405 -151 1405 -191 c 256
 1405 -231 1371 -265 1331 -265 c 256
 1291 -265 1258 -231 1258 -191 c 256
 1258 -151 1291 -117 1331 -117 c 256
530 683 m 256
 570 683 604 650 604 610 c 256
 604 570 570 536 530 536 c 256
 490 536 456 570 456 610 c 256
 456 650 490 683 530 683 c 256
2132 684 m 256
 2172 684 2206 650 2206 610 c 256
 2206 570 2172 537 2132 537 c 256
 2092 537 2058 570 2058 610 c 256
 2058 650 2092 684 2132 684 c 256
790 1224 m 256
 829 1224 864 1189 864 1150 c 256
 864 1111 829 1077 790 1077 c 256
 751 1077 717 1111 717 1150 c 256
 717 1189 751 1224 790 1224 c 256
1872 143 m 256
 1911 143 1945 109 1945 70 c 256
 1945 31 1911 -4 1872 -4 c 256
 1833 -4 1798 31 1798 70 c 256
 1798 109 1833 143 1872 143 c 256
791 143 m 256
 830 143 864 108 864 69 c 256
 864 30 830 -4 791 -4 c 256
 752 -4 717 30 717 69 c 256
 717 108 752 143 791 143 c 256
1871 1224 m 256
 1910 1224 1945 1190 1945 1151 c 256
 1945 1112 1910 1077 1871 1077 c 256
 1832 1077 1798 1112 1798 1151 c 256
 1798 1190 1832 1224 1871 1224 c 256
1332 1670 m 257
 1021 1360 l 257
 581 1360 l 257
 581 921 l 257
 271 610 l 257
 581 299 l 257
 581 -140 l 257
 1021 -140 l 257
 1332 -450 l 257
 1642 -140 l 257
 2081 -140 l 257
 2081 299 l 257
 2392 610 l 257
 2081 921 l 257
 2081 1360 l 257
 1642 1360 l 257
 1332 1670 l 257
1331 1812 m 257
 1684 1460 l 257
 2181 1460 l 257
 2181 963 l 257
 2534 610 l 257
 2181 257 l 257
 2181 -240 l 257
 1684 -240 l 257
 1331 -592 l 257
 979 -240 l 257
 481 -240 l 257
 481 258 l 257
 129 610 l 257
 481 962 l 257
 481 1460 l 257
 979 1460 l 257
 1331 1812 l 257
EndSplineSet
Refer: 1700 57390 N 1 0 0 1 869 101 2
EndChar

StartChar: uni06DF
Encoding: 1759 1759 987
GlifName: uni06D_F_
Width: 0
VWidth: 0
GlyphClass: 2
Flags: H
LayerCount: 2
Fore
SplineSet
-82 1464 m 256
 -82 1509 -45 1545 0 1545 c 256
 45 1545 82 1509 82 1464 c 256
 82 1419 45 1382 0 1382 c 256
 -45 1382 -82 1419 -82 1464 c 256
EndSplineSet
EndChar

StartChar: uni06E0
Encoding: 1760 1760 988
GlifName: uni06E_0
Width: 0
VWidth: 0
GlyphClass: 2
Flags: H
LayerCount: 2
Fore
SplineSet
-82 1382 m 257
 -82 1545 l 257
 82 1545 l 257
 82 1382 l 257
 -82 1382 l 257
EndSplineSet
EndChar

StartChar: uni06E9
Encoding: 1769 1769 997
GlifName: uni06E_9
Width: 1236
VWidth: 0
GlyphClass: 2
Flags: HW
LayerCount: 2
Fore
SplineSet
341 70 m 257
 341 684 l 257
 102 956 l 257
 618 1429 l 257
 1134 956 l 257
 895 684 l 257
 895 70 l 257
 1067 70 l 257
 1067 0 l 257
 169 0 l 257
 169 70 l 257
 341 70 l 257
813 717 m 257
 1025 947 l 257
 618 1316 l 257
 211 947 l 257
 423 717 l 257
 423 70 l 257
 813 70 l 257
 813 717 l 257
656 910 m 257
 656 200 l 257
 580 200 l 257
 580 910 l 257
 656 910 l 257
EndSplineSet
EndChar

StartChar: uni06F0
Encoding: 1776 1776 1005
GlifName: uni06F_0
Width: 945
VWidth: 0
GlyphClass: 2
Flags: HW
LayerCount: 2
Fore
SplineSet
472 637 m 256
 381 637 339 578 339 503 c 256
 339 428 381 369 472 369 c 256
 563 369 606 428 606 503 c 256
 606 577 563 637 472 637 c 256
472 840 m 256
 676 840 810 692 810 503 c 256
 810 316 679 165 472 165 c 256
 265 165 136 316 136 503 c 256
 136 690 267 840 472 840 c 256
EndSplineSet
Substitution2: "'tnum' Tabular Numbers lookup 22 subtable" uni06F0.tnum
EndChar

StartChar: uni06F4
Encoding: 1780 1780 1010
GlifName: uni06F_4
Width: 1240
VWidth: 0
GlyphClass: 2
Flags: HW
LayerCount: 2
Fore
SplineSet
907 1462 m 256
 981 1462 1064 1444 1150 1408 c 257
 1077 1161 l 257
 1019 1186 942 1202 872 1202 c 256
 722 1202 624 1104 621 947 c 257
 648 865 764 831 884 831 c 256
 968 831 1055 847 1113 877 c 257
 1171 638 l 257
 1076 597 980 576 889 576 c 256
 745 576 614 635 522 745 c 257
 578 483 590 286 590 0 c 257
 324 0 l 257
 324 528 257 916 84 1369 c 257
 346 1456 l 257
 393 1318 440 1193 496 1087 c 257
 535 1325 692 1462 907 1462 c 256
EndSplineSet
Substitution2: "'tnum' Tabular Numbers lookup 22 subtable" uni06F4.tnum
Substitution2: "'locl' Localized Forms in Arabic lookup 5 subtable" uni0664.urdu
EndChar

StartChar: uni06F5
Encoding: 1781 1781 1012
GlifName: uni06F_5
Width: 1392
VWidth: 0
GlyphClass: 2
Flags: HW
LayerCount: 2
Fore
SplineSet
705 150 m 257
 667 50 589 -7 456 -7 c 256
 258 -7 116 142 116 395 c 256
 116 650 234 918 538 1155 c 257
 510 1180 444 1232 412 1256 c 257
 558 1456 l 257
 633 1404 697 1356 775 1290 c 256
 1098 1015 1279 716 1279 410 c 256
 1279 137 1141 -7 950 -7 c 256
 827 -7 740 50 705 150 c 257
616 476 m 257
 786 476 l 257
 790 408 l 258
 794 311 831 260 916 260 c 256
 979 260 1036 291 1036 415 c 256
 1036 582 937 782 690 1003 c 257
 431 793 364 583 364 436 c 256
 364 301 421 260 492 260 c 256
 575 260 609 316 613 405 c 258
 616 476 l 257
EndSplineSet
Substitution2: "'tnum' Tabular Numbers lookup 22 subtable" uni06F5.tnum
EndChar

StartChar: uni06F6
Encoding: 1782 1782 1014
GlifName: uni06F_6
Width: 1184
VWidth: 0
GlyphClass: 2
Flags: HW
LayerCount: 2
Fore
SplineSet
530 602 m 257
 299 627 144 767 144 974 c 256
 144 1273 382 1450 626 1450 c 256
 764 1450 881 1407 988 1321 c 257
 865 1116 l 257
 807 1164 728 1189 644 1189 c 256
 522 1189 401 1122 401 982 c 256
 401 864 513 806 663 806 c 256
 769 806 867 842 963 878 c 257
 1001 894 l 257
 1106 644 l 257
 1084 637 l 257
 755 525 558 290 318 -53 c 257
 104 107 l 257
 222 299 374 487 530 602 c 257
EndSplineSet
Substitution2: "'tnum' Tabular Numbers lookup 22 subtable" uni0666.tnum
Substitution2: "'locl' Localized Forms in Arabic lookup 5 subtable" uni0666
EndChar

StartChar: uni1D00
Encoding: 7424 7424 1327
GlifName: uni1D_00
Width: 1061
VWidth: 0
GlyphClass: 2
Flags: HW
LayerCount: 2
Fore
SplineSet
738 246 m 257
 326 246 l 257
 378 409 l 257
 688 409 l 257
 738 246 l 257
273 0 m 257
 1 0 l 257
 371 1081 l 257
 681 1081 l 257
 1055 0 l 257
 783 0 l 257
 527 830 l 257
 273 0 l 257
EndSplineSet
EndChar

StartChar: uni1D01
Encoding: 7425 7425 1328
GlifName: uni1D_01
Width: 1338
VWidth: 0
GlyphClass: 2
Flags: HW
LayerCount: 2
Fore
SplineSet
392 409 m 257
 569 409 l 257
 569 829 l 257
 527 829 l 257
 392 409 l 257
273 0 m 257
 1 0 l 257
 371 1081 l 257
 1276 1081 l 257
 1276 864 l 257
 835 864 l 257
 835 626 l 257
 1226 626 l 257
 1226 453 l 257
 835 453 l 257
 835 214 l 257
 1276 214 l 257
 1276 0 l 257
 569 0 l 257
 569 246 l 257
 348 246 l 257
 273 0 l 257
EndSplineSet
EndChar

StartChar: uni1D04
Encoding: 7428 7428 1329
GlifName: uni1D_04
Width: 1086
VWidth: 0
GlyphClass: 2
Flags: HW
LayerCount: 2
Fore
SplineSet
568 1091 m 256
 841 1091 1006 912 1021 704 c 257
 789 697 l 257
 764 802 689 878 573 878 c 256
 411 878 332 747 332 540 c 256
 332 334 412 202 571 202 c 256
 690 202 764 277 789 383 c 257
 1021 376 l 257
 1006 169 841 -11 571 -11 c 256
 261 -11 88 189 88 540 c 256
 88 891 261 1091 568 1091 c 256
EndSplineSet
EndChar

StartChar: uni1D05
Encoding: 7429 7429 1330
GlifName: uni1D_05
Width: 1115
VWidth: 0
GlyphClass: 2
Flags: HW
LayerCount: 2
Fore
SplineSet
128 1081 m 257
 550 1081 l 258
 878 1081 1031 860 1031 540 c 256
 1031 220 878 0 550 0 c 258
 128 0 l 257
 128 1081 l 257
394 897 m 257
 394 193 l 257
 525 193 l 258
 692 193 775 296 775 540 c 256
 775 783 692 897 525 897 c 258
 394 897 l 257
EndSplineSet
EndChar

StartChar: uni1D07
Encoding: 7431 7431 1331
GlifName: uni1D_07
Width: 897
VWidth: 0
GlyphClass: 2
Flags: HW
LayerCount: 2
Fore
SplineSet
835 214 m 257
 835 0 l 257
 128 0 l 257
 128 1081 l 257
 835 1081 l 257
 835 865 l 257
 394 865 l 257
 394 626 l 257
 785 626 l 257
 785 453 l 257
 394 453 l 257
 394 214 l 257
 835 214 l 257
EndSplineSet
EndChar

StartChar: uni1D0A
Encoding: 7434 7434 1332
GlifName: uni1D_0A_
Width: 734
VWidth: 0
GlyphClass: 2
Flags: HW
LayerCount: 2
Fore
SplineSet
54 30 m 257
 91 206 l 257
 127 197 168 192 204 192 c 256
 292 192 340 230 340 312 c 258
 340 1081 l 257
 606 1081 l 257
 606 282 l 258
 606 70 457 -11 278 -11 c 256
 202 -11 123 4 54 30 c 257
EndSplineSet
EndChar

StartChar: uni1D0B
Encoding: 7435 7435 1333
GlifName: uni1D_0B_
Width: 1095
VWidth: 0
GlyphClass: 2
Flags: HW
LayerCount: 2
Fore
SplineSet
128 1081 m 257
 394 1081 l 257
 394 642 l 257
 760 1081 l 257
 1072 1081 l 257
 631 538 l 257
 1073 0 l 257
 761 0 l 257
 475 351 l 257
 394 257 l 257
 394 0 l 257
 128 0 l 257
 128 1081 l 257
EndSplineSet
EndChar

StartChar: uni1D0D
Encoding: 7437 7437 1334
GlifName: uni1D_0D_
Width: 1526
VWidth: 0
GlyphClass: 2
Flags: HW
LayerCount: 2
Fore
SplineSet
394 0 m 257
 128 0 l 257
 128 1081 l 257
 447 1081 l 257
 753 256 l 257
 1077 1081 l 257
 1398 1081 l 257
 1398 0 l 257
 1131 0 l 257
 1131 690 l 257
 848 0 l 257
 658 0 l 257
 394 687 l 257
 394 0 l 257
EndSplineSet
EndChar

StartChar: uni1D0F
Encoding: 7439 7439 1335
GlifName: uni1D_0F_
Width: 1123
VWidth: 0
GlyphClass: 2
Flags: HW
LayerCount: 2
Fore
SplineSet
563 1091 m 256
 904 1091 1052 864 1052 540 c 256
 1052 216 902 -11 563 -11 c 256
 224 -11 72 216 72 540 c 256
 72 864 222 1091 563 1091 c 256
563 878 m 256
 404 878 316 756 316 540 c 256
 316 324 403 201 563 201 c 256
 723 201 809 324 809 540 c 256
 809 756 722 878 563 878 c 256
EndSplineSet
EndChar

StartChar: uni1D18
Encoding: 7448 7448 1336
GlifName: uni1D_18
Width: 1057
VWidth: 0
GlyphClass: 2
Flags: HW
LayerCount: 2
Fore
SplineSet
394 0 m 257
 128 0 l 257
 128 1081 l 257
 595 1081 l 258
 843 1081 985 948 985 735 c 256
 985 520 842 385 595 385 c 258
 394 385 l 257
 394 0 l 257
394 897 m 257
 394 568 l 257
 551 568 l 258
 669 568 720 621 720 735 c 256
 720 849 667 897 551 897 c 258
 394 897 l 257
EndSplineSet
EndChar

StartChar: uni1D1B
Encoding: 7451 7451 1337
GlifName: uni1D_1B_
Width: 1036
VWidth: 0
GlyphClass: 2
Flags: HW
LayerCount: 2
Fore
SplineSet
652 0 m 257
 385 0 l 257
 385 852 l 257
 47 852 l 257
 47 1081 l 257
 990 1081 l 257
 990 852 l 257
 652 852 l 257
 652 0 l 257
EndSplineSet
EndChar

StartChar: uni1D1C
Encoding: 7452 7452 1338
GlifName: uni1D_1C_
Width: 1139
VWidth: 0
GlyphClass: 2
Flags: HW
LayerCount: 2
Fore
SplineSet
787 1081 m 257
 1036 1081 l 257
 1036 418 l 258
 1036 134 851 -9 570 -9 c 256
 289 -9 103 134 103 418 c 258
 103 1081 l 257
 352 1081 l 257
 352 437 l 258
 352 292 409 206 570 206 c 256
 731 206 787 292 787 437 c 258
 787 1081 l 257
EndSplineSet
EndChar

StartChar: uni1D20
Encoding: 7456 7456 1339
GlifName: uni1D_20
Width: 1055
VWidth: 0
GlyphClass: 2
Flags: HW
LayerCount: 2
Fore
SplineSet
273 1081 m 257
 529 251 l 257
 783 1081 l 257
 1055 1081 l 257
 685 0 l 257
 374 0 l 257
 1 1081 l 257
 273 1081 l 257
EndSplineSet
EndChar

StartChar: uni1D21
Encoding: 7457 7457 1340
GlifName: uni1D_21
Width: 1593
VWidth: 0
GlyphClass: 2
Flags: HW
LayerCount: 2
Fore
SplineSet
32 1081 m 257
 282 1081 l 257
 476 316 l 257
 688 1081 l 257
 905 1081 l 257
 1118 316 l 257
 1310 1081 l 257
 1561 1081 l 257
 1287 0 l 257
 1004 0 l 257
 796 708 l 257
 587 0 l 257
 306 0 l 257
 32 1081 l 257
EndSplineSet
EndChar

StartChar: uni1D22
Encoding: 7458 7458 1341
GlifName: uni1D_22
Width: 1021
VWidth: 0
GlyphClass: 2
Flags: HW
LayerCount: 2
Fore
SplineSet
93 1081 m 257
 922 1081 l 257
 922 905 l 257
 388 226 l 257
 922 226 l 257
 922 0 l 257
 93 0 l 257
 93 177 l 257
 627 853 l 257
 93 853 l 257
 93 1081 l 257
EndSplineSet
EndChar

StartChar: uni1E9E
Encoding: 7838 7838 1495
GlifName: uni1E_9E_
Width: 1301
VWidth: 0
GlyphClass: 2
Flags: HW
LayerCount: 2
Fore
SplineSet
132 0 m 257
 132 976 l 258
 132 1297 301 1512 631 1512 c 256
 885 1512 1102 1376 1102 1120 c 256
 1102 945 1020 845 880 799 c 257
 1084 755 1225 641 1225 375 c 256
 1225 119 1074 -10 842 -10 c 256
 615 -10 493 115 493 346 c 257
 657 346 l 257
 657 251 713 204 805 204 c 256
 918 204 962 293 962 406 c 256
 962 627 796 696 599 696 c 257
 599 908 l 257
 782 908 839 1005 839 1100 c 256
 839 1234 741 1292 631 1292 c 256
 471 1292 399 1177 399 1012 c 258
 399 0 l 257
 132 0 l 257
EndSplineSet
EndChar

StartChar: uni200C
Encoding: 8204 8204 1584
GlifName: uni200C_
Width: 0
VWidth: 0
GlyphClass: 2
Flags: H
LayerCount: 2
Fore
SplineSet
48 1366 m 257
 48 -291 l 257
 -48 -291 l 257
 -48 1366 l 257
 48 1366 l 257
EndSplineSet
EndChar

StartChar: uni200D
Encoding: 8205 8205 1585
GlifName: uni200D_
Width: 0
VWidth: 0
GlyphClass: 2
Flags: H
LayerCount: 2
Fore
SplineSet
171 -294 m 257
 44 -168 l 257
 115 -97 l 257
 241 -224 l 257
 171 -294 l 257
-115 -9 m 257
 -241 118 l 257
 -171 188 l 257
 -44 62 l 257
 -115 -9 l 257
241 118 m 257
 -171 -294 l 257
 -241 -224 l 257
 171 188 l 257
 241 118 l 257
171 1019 m 257
 44 1145 l 257
 115 1216 l 257
 241 1089 l 257
 171 1019 l 257
-115 1304 m 257
 -241 1431 l 257
 -171 1501 l 257
 -44 1375 l 257
 -115 1304 l 257
241 1431 m 257
 -171 1019 l 257
 -241 1089 l 257
 171 1501 l 257
 241 1431 l 257
-48 1036 m 257
 48 1036 l 257
 48 170 l 257
 -48 170 l 257
 -48 1036 l 257
EndSplineSet
EndChar

StartChar: uni200E
Encoding: 8206 8206 1586
GlifName: uni200E_
Width: 0
VWidth: 0
GlyphClass: 2
Flags: H
LayerCount: 2
Fore
SplineSet
295 1030 m 257
 225 1100 l 257
 395 1271 l 257
 225 1442 l 257
 295 1512 l 257
 537 1271 l 257
 295 1030 l 257
296 -303 m 257
 226 -233 l 257
 397 -62 l 257
 226 109 l 257
 296 179 l 257
 537 -62 l 257
 296 -303 l 257
48 49 m 258
 48 10 73 -14 112 -14 c 258
 242 -14 l 257
 242 -112 l 257
 112 -112 l 258
 20 -112 -48 -43 -48 49 c 258
 -48 1159 l 258
 -48 1251 20 1320 112 1320 c 258
 242 1320 l 257
 242 1222 l 257
 112 1222 l 258
 73 1222 48 1198 48 1159 c 258
 48 49 l 258
EndSplineSet
EndChar

StartChar: uni200F
Encoding: 8207 8207 1587
GlifName: uni200F_
Width: 0
VWidth: 0
GlyphClass: 2
Flags: H
LayerCount: 2
Fore
SplineSet
-295 1030 m 257
 -537 1271 l 257
 -295 1512 l 257
 -225 1442 l 257
 -395 1271 l 257
 -225 1100 l 257
 -295 1030 l 257
-296 -303 m 257
 -537 -62 l 257
 -296 179 l 257
 -226 109 l 257
 -397 -62 l 257
 -226 -233 l 257
 -296 -303 l 257
-48 49 m 258
 -48 1159 l 258
 -48 1198 -73 1222 -112 1222 c 258
 -242 1222 l 257
 -242 1320 l 257
 -112 1320 l 258
 -20 1320 48 1251 48 1159 c 258
 48 49 l 258
 48 -43 -20 -112 -112 -112 c 258
 -242 -112 l 257
 -242 -14 l 257
 -112 -14 l 258
 -73 -14 -48 10 -48 49 c 258
EndSplineSet
EndChar

StartChar: uni202A
Encoding: 8234 8234 1592
GlifName: uni202A_
Width: 0
VWidth: 0
GlyphClass: 2
Flags: H
LayerCount: 2
Fore
SplineSet
-61 994 m 257
 -131 1064 l 257
 40 1236 l 257
 -131 1406 l 257
 -61 1476 l 257
 180 1236 l 257
 -61 994 l 257
-53 868 m 257
 52 868 l 257
 52 48 l 257
 -53 48 l 257
 -53 868 l 257
EndSplineSet
EndChar

StartChar: uni202B
Encoding: 8235 8235 1593
GlifName: uni202B_
Width: 0
VWidth: 0
GlyphClass: 2
Flags: H
LayerCount: 2
Fore
SplineSet
61 994 m 257
 -180 1236 l 257
 61 1476 l 257
 131 1406 l 257
 -40 1236 l 257
 131 1064 l 257
 61 994 l 257
-52 868 m 257
 53 868 l 257
 53 48 l 257
 -52 48 l 257
 -52 868 l 257
EndSplineSet
EndChar

StartChar: uni202C
Encoding: 8236 8236 1594
GlifName: uni202C_
Width: 0
VWidth: 0
GlyphClass: 2
Flags: H
LayerCount: 2
Fore
SplineSet
-240 1153 m 257
 0 1394 l 257
 241 1153 l 257
 172 1083 l 257
 0 1253 l 257
 -171 1083 l 257
 -240 1153 l 257
-53 888 m 257
 52 888 l 257
 52 48 l 257
 -53 48 l 257
 -53 888 l 257
EndSplineSet
EndChar

StartChar: uni202D
Encoding: 8237 8237 1595
GlifName: uni202D_
Width: 0
VWidth: 0
GlyphClass: 2
Flags: H
LayerCount: 2
Fore
SplineSet
86 994 m 257
 16 1064 l 257
 187 1236 l 257
 16 1406 l 257
 86 1476 l 257
 328 1236 l 257
 86 994 l 257
-170 994 m 257
 -241 1064 l 257
 -69 1236 l 257
 -241 1406 l 257
 -170 1476 l 257
 70 1236 l 257
 -170 994 l 257
-53 868 m 257
 52 868 l 257
 52 48 l 257
 -53 48 l 257
 -53 868 l 257
EndSplineSet
EndChar

StartChar: uni202E
Encoding: 8238 8238 1596
GlifName: uni202E_
Width: 0
VWidth: 0
GlyphClass: 2
Flags: H
LayerCount: 2
Fore
SplineSet
-86 994 m 257
 -328 1236 l 257
 -86 1476 l 257
 -16 1406 l 257
 -187 1236 l 257
 -16 1064 l 257
 -86 994 l 257
170 994 m 257
 -70 1236 l 257
 170 1476 l 257
 241 1406 l 257
 69 1236 l 257
 241 1064 l 257
 170 994 l 257
-52 868 m 257
 53 868 l 257
 53 48 l 257
 -52 48 l 257
 -52 868 l 257
EndSplineSet
EndChar

StartChar: uni2035
Encoding: 8245 8245 1598
GlifName: uni2035
Width: 464
VWidth: 0
GlyphClass: 2
Flags: HW
LayerCount: 2
Fore
SplineSet
256 1440 m 257
 366 962 l 257
 242 962 l 257
 98 1440 l 257
 256 1440 l 257
EndSplineSet
EndChar

StartChar: uni2070
Encoding: 8304 8304 1601
GlifName: uni2070
Width: 731
VWidth: 0
GlyphClass: 2
Flags: HW
LayerCount: 2
Fore
SplineSet
366 1694 m 256
 275 1694 242 1627 242 1472 c 256
 242 1317 275 1248 366 1248 c 256
 457 1248 491 1317 491 1472 c 256
 491 1627 457 1694 366 1694 c 256
366 1820 m 256
 591 1820 626 1625 626 1472 c 256
 626 1319 591 1124 366 1124 c 256
 141 1124 107 1319 107 1472 c 256
 107 1625 141 1820 366 1820 c 256
EndSplineSet
EndChar

StartChar: uni2074
Encoding: 8308 8308 1602
GlifName: uni2074
Width: 770
VWidth: 0
GlyphClass: 2
Flags: HW
LayerCount: 2
Fore
SplineSet
429 1359 m 257
 429 1631 l 257
 224 1359 l 257
 429 1359 l 257
429 1252 m 257
 107 1252 l 257
 107 1354 l 257
 441 1809 l 257
 563 1809 l 257
 563 1359 l 257
 664 1359 l 257
 664 1252 l 257
 563 1252 l 257
 563 1134 l 257
 429 1134 l 257
 429 1252 l 257
EndSplineSet
EndChar

StartChar: uni2075
Encoding: 8309 8309 1603
GlifName: uni2075
Width: 683
VWidth: 0
GlyphClass: 2
Flags: HW
LayerCount: 2
Fore
SplineSet
107 1337 m 257
 240 1337 l 257
 240 1272 268 1238 338 1238 c 256
 412 1238 445 1276 445 1366 c 256
 445 1449 402 1488 328 1488 c 256
 274 1488 232 1454 196 1417 c 257
 112 1466 l 257
 146 1809 l 257
 565 1809 l 257
 565 1698 l 257
 259 1698 l 257
 244 1569 l 257
 280 1587 321 1597 360 1597 c 256
 490 1597 577 1513 577 1376 c 256
 577 1214 486 1124 330 1124 c 256
 188 1124 107 1203 107 1337 c 257
EndSplineSet
EndChar

StartChar: uni2076
Encoding: 8310 8310 1604
GlifName: uni2076
Width: 683
VWidth: 0
GlyphClass: 2
Flags: HW
LayerCount: 2
Fore
SplineSet
359 1819 m 256
 479 1819 570 1746 570 1625 c 257
 456 1625 l 257
 456 1671 426 1705 356 1705 c 256
 268 1705 234 1631 233 1528 c 257
 272 1568 315 1584 372 1584 c 256
 490 1584 578 1497 578 1365 c 256
 578 1222 491 1124 347 1124 c 256
 166 1124 107 1250 107 1446 c 256
 107 1687 191 1819 359 1819 c 256
347 1466 m 256
 310 1466 269 1453 236 1414 c 257
 236 1289 271 1240 346 1240 c 256
 405 1240 444 1282 444 1355 c 256
 444 1425 406 1466 347 1466 c 256
EndSplineSet
EndChar

StartChar: uni2077
Encoding: 8311 8311 1605
GlifName: uni2077
Width: 689
VWidth: 0
GlyphClass: 2
Flags: HW
LayerCount: 2
Fore
SplineSet
582 1696 m 257
 441 1540 347 1357 347 1134 c 257
 218 1134 l 257
 218 1342 306 1542 425 1688 c 257
 107 1688 l 257
 107 1809 l 257
 559 1809 l 257
 582 1696 l 257
EndSplineSet
EndChar

StartChar: uni2078
Encoding: 8312 8312 1606
GlifName: uni2078
Width: 693
VWidth: 0
GlyphClass: 2
Flags: HW
LayerCount: 2
Fore
SplineSet
347 1819 m 256
 480 1819 564 1732 564 1633 c 256
 564 1577 536 1523 485 1486 c 257
 551 1442 588 1380 588 1316 c 256
 588 1211 500 1124 347 1124 c 256
 194 1124 107 1211 107 1316 c 256
 107 1380 142 1443 208 1487 c 257
 158 1524 130 1577 130 1633 c 256
 130 1732 213 1819 347 1819 c 256
347 1711 m 256
 295 1711 262 1678 262 1623 c 256
 262 1567 296 1533 347 1533 c 256
 398 1533 431 1567 431 1623 c 256
 431 1679 399 1711 347 1711 c 256
345 1430 m 256
 285 1430 243 1393 243 1333 c 256
 243 1273 282 1236 347 1236 c 256
 411 1236 450 1271 450 1331 c 256
 450 1391 407 1430 345 1430 c 256
EndSplineSet
EndChar

StartChar: uni2079
Encoding: 8313 8313 1607
GlifName: uni2079
Width: 683
VWidth: 0
GlyphClass: 2
Flags: HW
LayerCount: 2
Fore
SplineSet
448 1527 m 257
 448 1652 413 1702 338 1702 c 256
 279 1702 240 1660 240 1587 c 256
 240 1517 278 1476 337 1476 c 256
 374 1476 415 1488 448 1527 c 257
451 1414 m 257
 412 1374 368 1357 311 1357 c 256
 193 1357 107 1444 107 1576 c 256
 107 1719 192 1819 336 1819 c 256
 517 1819 578 1692 578 1496 c 256
 578 1255 492 1124 324 1124 c 256
 204 1124 114 1196 114 1317 c 257
 228 1317 l 257
 228 1271 258 1237 328 1237 c 256
 416 1237 449 1311 451 1414 c 257
EndSplineSet
EndChar

StartChar: uni2196
Encoding: 8598 8598 1629
GlifName: uni2196
Width: 1246
VWidth: 0
GlyphClass: 2
Flags: HW
LayerCount: 2
Fore
SplineSet
1001 62 m 257
 320 745 l 257
 286 798 l 257
 286 373 l 257
 150 373 l 257
 150 1009 l 257
 786 1009 l 257
 786 872 l 257
 360 872 l 257
 414 839 l 257
 1096 158 l 257
 1001 62 l 257
EndSplineSet
EndChar

StartChar: uni2197
Encoding: 8599 8599 1630
GlifName: uni2197
Width: 1246
VWidth: 0
GlyphClass: 2
Flags: HW
LayerCount: 2
Fore
SplineSet
150 158 m 257
 832 839 l 257
 887 872 l 257
 461 872 l 257
 461 1009 l 257
 1096 1009 l 257
 1096 373 l 257
 960 373 l 257
 960 798 l 257
 927 745 l 257
 245 62 l 257
 150 158 l 257
EndSplineSet
EndChar

StartChar: uni2198
Encoding: 8600 8600 1631
GlifName: uni2198
Width: 1246
VWidth: 0
GlyphClass: 2
Flags: HW
LayerCount: 2
Fore
SplineSet
245 1009 m 257
 927 326 l 257
 960 272 l 257
 960 698 l 257
 1096 698 l 257
 1096 62 l 257
 461 62 l 257
 461 198 l 257
 887 198 l 257
 832 232 l 257
 150 914 l 257
 245 1009 l 257
EndSplineSet
EndChar

StartChar: uni2199
Encoding: 8601 8601 1632
GlifName: uni2199
Width: 1246
VWidth: 0
GlyphClass: 2
Flags: HW
LayerCount: 2
Fore
SplineSet
1096 914 m 257
 414 232 l 257
 360 198 l 257
 786 198 l 257
 786 62 l 257
 150 62 l 257
 150 698 l 257
 286 698 l 257
 286 272 l 257
 320 326 l 257
 1001 1009 l 257
 1096 914 l 257
EndSplineSet
EndChar

StartChar: uni220E
Encoding: 8718 8718 1633
GlifName: uni220E_
Width: 1079
VWidth: 0
GlyphClass: 2
Flags: HW
LayerCount: 2
Fore
SplineSet
174 1217 m 257
 907 1217 l 257
 907 0 l 257
 174 0 l 257
 174 1217 l 257
EndSplineSet
EndChar

StartChar: uni25CC
Encoding: 9676 9676 1634
GlifName: uni25C_C_
Width: 1702
VWidth: 0
GlyphClass: 2
Flags: HW
LayerCount: 2
Fore
SplineSet
780 91 m 256
 780 143 799 162 851 162 c 256
 903 162 922 143 922 91 c 256
 922 39 903 20 851 20 c 256
 799 20 780 39 780 91 c 256
780 1447 m 256
 780 1499 799 1518 851 1518 c 256
 903 1518 922 1499 922 1447 c 256
 922 1395 903 1376 851 1376 c 256
 799 1376 780 1395 780 1447 c 256
1529 698 m 256
 1477 698 1458 717 1458 769 c 256
 1458 821 1477 840 1529 840 c 256
 1581 840 1600 821 1600 769 c 256
 1600 717 1581 698 1529 698 c 256
173 698 m 256
 121 698 102 717 102 769 c 256
 102 821 121 840 173 840 c 256
 225 840 244 821 244 769 c 256
 244 717 225 698 173 698 c 256
1260 290 m 256
 1260 342 1278 360 1330 360 c 256
 1382 360 1400 342 1400 290 c 256
 1400 238 1382 220 1330 220 c 256
 1278 220 1260 238 1260 290 c 256
302 1248 m 256
 302 1300 320 1318 372 1318 c 256
 424 1318 442 1300 442 1248 c 256
 442 1196 424 1178 372 1178 c 256
 320 1178 302 1196 302 1248 c 256
1330 1178 m 256
 1278 1178 1260 1196 1260 1248 c 256
 1260 1300 1278 1318 1330 1318 c 256
 1382 1318 1400 1300 1400 1248 c 256
 1400 1196 1382 1178 1330 1178 c 256
372 220 m 256
 320 220 302 238 302 290 c 256
 302 342 320 360 372 360 c 256
 424 360 442 342 442 290 c 256
 442 238 424 220 372 220 c 256
522 143 m 256
 522 195 540 212 592 212 c 256
 644 212 662 195 662 143 c 256
 662 91 644 72 592 72 c 256
 540 72 522 91 522 143 c 256
1110 1466 m 256
 1162 1466 1180 1447 1180 1395 c 256
 1180 1343 1162 1326 1110 1326 c 256
 1058 1326 1040 1343 1040 1395 c 256
 1040 1447 1058 1466 1110 1466 c 256
1477 440 m 256
 1425 440 1408 458 1408 510 c 256
 1408 562 1425 580 1477 580 c 256
 1529 580 1548 562 1548 510 c 256
 1548 458 1529 440 1477 440 c 256
154 1028 m 256
 154 1080 173 1098 225 1098 c 256
 277 1098 294 1080 294 1028 c 256
 294 976 277 958 225 958 c 256
 173 958 154 976 154 1028 c 256
1040 143 m 256
 1040 195 1058 212 1110 212 c 256
 1162 212 1180 195 1180 143 c 256
 1180 91 1162 72 1110 72 c 256
 1058 72 1040 91 1040 143 c 256
522 1395 m 256
 522 1447 540 1466 592 1466 c 256
 644 1466 662 1447 662 1395 c 256
 662 1343 644 1326 592 1326 c 256
 540 1326 522 1343 522 1395 c 256
1477 958 m 256
 1425 958 1408 976 1408 1028 c 256
 1408 1080 1425 1098 1477 1098 c 256
 1529 1098 1548 1080 1548 1028 c 256
 1548 976 1529 958 1477 958 c 256
225 440 m 256
 173 440 154 458 154 510 c 256
 154 562 173 580 225 580 c 256
 277 580 294 562 294 510 c 256
 294 458 277 440 225 440 c 256
EndSplineSet
EndChar

StartChar: uniA729
Encoding: 42793 42793 1636
GlifName: uniA_729
Width: 1842
VWidth: 0
GlyphClass: 2
Flags: HW
LayerCount: 2
Fore
SplineSet
721 206 m 257
 759 30 l 257
 690 4 610 -11 534 -11 c 256
 355 -11 203 70 203 282 c 258
 203 1370 l 257
 469 1370 l 257
 469 312 l 258
 469 230 521 192 609 192 c 256
 645 192 685 197 721 206 c 257
EndSplineSet
Refer: 1669 57354 N 1 0 0 1 -24 404 2
Refer: 560 658 N 1 0 0 1 695 0 2
EndChar

StartChar: uniA730
Encoding: 42800 42800 1637
GlifName: uniA_730
Width: 893
VWidth: 0
GlyphClass: 2
Flags: HW
LayerCount: 2
Fore
SplineSet
128 0 m 257
 128 1081 l 257
 835 1081 l 257
 835 864 l 257
 394 864 l 257
 394 592 l 257
 785 592 l 257
 785 419 l 257
 394 419 l 257
 394 0 l 257
 128 0 l 257
EndSplineSet
EndChar

StartChar: uniA731
Encoding: 42801 42801 1638
GlifName: uniA_731
Width: 960
VWidth: 0
GlyphClass: 2
Flags: HW
LayerCount: 2
Fore
SplineSet
72 348 m 257
 304 348 l 257
 304 239 377 197 493 197 c 256
 582 197 655 225 655 304 c 256
 655 387 577 412 446 451 c 256
 282 499 96 559 96 774 c 256
 96 972 256 1091 463 1091 c 256
 696 1091 873 970 873 748 c 257
 640 750 l 257
 640 838 571 883 480 883 c 256
 388 883 330 848 330 774 c 256
 330 700 406 672 530 637 c 256
 703 589 889 528 889 309 c 256
 889 99 713 -10 500 -10 c 256
 252 -10 72 104 72 348 c 257
EndSplineSet
EndChar

StartChar: uniA733
Encoding: 42803 42803 1640
GlifName: uniA_733
Width: 1778
VWidth: 0
GlyphClass: 2
Flags: HW
LayerCount: 2
Fore
SplineSet
545 1091 m 256
 837 1091 994 949 994 732 c 258
 994 294 l 257
 728 295 l 257
 728 732 l 258
 728 835 657 883 533 883 c 256
 409 883 337 837 337 732 c 257
 109 732 l 257
 97 957 256 1091 545 1091 c 256
1207 1091 m 256
 1499 1091 1662 949 1662 732 c 258
 1662 277 l 258
 1662 203 1685 164 1765 164 c 257
 1765 -1 l 257
 1555 -29 1395 47 1395 278 c 258
 1395 732 l 258
 1395 835 1319 883 1195 883 c 256
 1071 883 994 837 994 732 c 257
 766 732 l 257
 754 957 918 1091 1207 1091 c 256
EndSplineSet
Refer: 1670 57355 N 1 0 0 1 676 0 2
Refer: 1670 57355 N 1 0 0 1 -8 0 2
EndChar

StartChar: uniA735
Encoding: 42805 42805 1642
GlifName: uniA_735
Width: 1815
VWidth: 0
GlyphClass: 2
Flags: HW
LayerCount: 2
Fore
SplineSet
727 292 m 257
 727 732 l 258
 727 835 656 883 532 883 c 256
 408 883 336 837 336 732 c 257
 108 732 l 257
 96 957 256 1091 545 1091 c 256
 837 1091 994 949 994 732 c 258
 994 289 l 257
 727 292 l 257
84 283 m 256
 84 521 291 616 515 616 c 258
 966 616 l 257
 966 468 l 257
 532 468 l 258
 417 468 320 422 320 315 c 256
 320 242 364 187 474 187 c 256
 606 187 696 271 733 320 c 257
 814 312 l 257
 772 196 659 -17 387 -17 c 256
 191 -17 84 94 84 283 c 256
EndSplineSet
Refer: 324 111 N 1 0 0 1 655 0 2
EndChar

StartChar: uniA736
Encoding: 42806 42806 1643
GlifName: uniA_736
Width: 2076
VWidth: 0
GlyphClass: 2
Flags: HW
LayerCount: 2
Fore
SplineSet
1669 1447 m 257
 1936 1447 l 257
 1936 568 l 258
 1936 214 1728 0 1353 0 c 257
 1244 240 l 257
 1353 240 l 258
 1573 240 1669 370 1669 569 c 258
 1669 1447 l 257
EndSplineSet
Refer: 0 65 N 1 0 0 1 0 0 2
EndChar

StartChar: uniA737
Encoding: 42807 42807 1644
GlifName: uniA_737
Width: 1804
VWidth: 0
GlyphClass: 2
Flags: HW
LayerCount: 2
Fore
SplineSet
108 732 m 257
 96 957 256 1091 545 1091 c 256
 837 1091 994 949 994 732 c 258
 994 444 l 258
 994 336 1060 254 1182 254 c 256
 1324 254 1398 362 1411 492 c 257
 1452 382 l 257
 1437 165 1304 -10 1069 -10 c 256
 852 -10 727 146 727 353 c 258
 727 732 l 258
 727 835 656 883 532 883 c 256
 408 883 336 837 336 732 c 257
 108 732 l 257
1411 1081 m 257
 1676 1081 l 257
 1676 0 l 257
 1423 0 l 257
 1411 272 l 257
 1411 1081 l 257
959 616 m 257
 959 468 l 257
 532 468 l 258
 417 468 320 422 320 315 c 256
 320 242 364 187 474 187 c 256
 606 187 696 271 733 320 c 257
 814 312 l 257
 772 196 659 -17 387 -17 c 256
 191 -17 84 94 84 283 c 256
 84 521 291 616 515 616 c 258
 959 616 l 257
EndSplineSet
EndChar

StartChar: uniA738
Encoding: 42808 42808 1645
GlifName: uniA_738
Width: 1895
VWidth: 0
GlyphClass: 2
Flags: HW
LayerCount: 2
Fore
SplineSet
475 559 m 257
 881 559 l 257
 679 1140 l 257
 475 559 l 257
407 350 m 257
 286 0 l 257
 1 0 l 257
 532 1440 l 257
 826 1440 l 257
 1218 300 l 257
 1610 1440 l 257
 1894 1440 l 257
 1365 0 l 257
 1069 0 l 257
 948 350 l 257
 407 350 l 257
EndSplineSet
EndChar

StartChar: uniA739
Encoding: 42809 42809 1646
GlifName: uniA_739
Width: 1709
VWidth: 0
GlyphClass: 2
Flags: HW
LayerCount: 2
Fore
SplineSet
108 732 m 257
 96 957 256 1091 545 1091 c 256
 783 1091 924 994 973 843 c 258
 1166 284 l 257
 1427 1081 l 257
 1710 1081 l 257
 1323 0 l 257
 1009 0 l 257
 722 781 l 258
 695 853 626 883 532 883 c 256
 408 883 336 837 336 732 c 257
 108 732 l 257
851 616 m 257
 851 468 l 257
 532 468 l 258
 417 468 320 422 320 315 c 256
 320 242 364 187 474 187 c 256
 606 187 696 271 733 320 c 257
 814 312 l 257
 772 196 659 -17 387 -17 c 256
 191 -17 84 94 84 283 c 256
 84 521 291 616 515 616 c 258
 851 616 l 257
EndSplineSet
EndChar

StartChar: uniA73A
Encoding: 42810 42810 1647
GlifName: uniA_73A_
Width: 1895
VWidth: 0
GlyphClass: 2
Flags: HW
LayerCount: 2
Fore
SplineSet
895 1089 m 257
 1545 1089 l 257
 1545 880 l 257
 895 880 l 257
 895 1089 l 257
475 559 m 257
 881 559 l 257
 679 1140 l 257
 475 559 l 257
407 350 m 257
 286 0 l 257
 1 0 l 257
 532 1440 l 257
 826 1440 l 257
 1218 300 l 257
 1610 1440 l 257
 1894 1440 l 257
 1365 0 l 257
 1069 0 l 257
 948 350 l 257
 407 350 l 257
EndSplineSet
EndChar

StartChar: uniA73B
Encoding: 42811 42811 1648
GlifName: uniA_73B_
Width: 1709
VWidth: 0
GlyphClass: 2
Flags: HW
LayerCount: 2
Fore
SplineSet
937 854 m 257
 1363 854 l 257
 1363 705 l 257
 980 705 l 257
 937 854 l 257
108 732 m 257
 96 957 256 1091 545 1091 c 256
 783 1091 924 994 973 843 c 258
 1166 284 l 257
 1427 1081 l 257
 1710 1081 l 257
 1323 0 l 257
 1009 0 l 257
 722 781 l 258
 695 853 626 883 532 883 c 256
 408 883 336 837 336 732 c 257
 108 732 l 257
851 616 m 257
 851 468 l 257
 532 468 l 258
 417 468 320 422 320 315 c 256
 320 242 364 187 474 187 c 256
 606 187 696 271 733 320 c 257
 814 312 l 257
 772 196 659 -17 387 -17 c 256
 191 -17 84 94 84 283 c 256
 84 521 291 616 515 616 c 258
 851 616 l 257
EndSplineSet
EndChar

StartChar: uniA73C
Encoding: 42812 42812 1649
GlifName: uniA_73C_
Width: 1876
VWidth: 0
GlyphClass: 2
Flags: HW
LayerCount: 2
Fore
SplineSet
697 1199 m 257
 475 559 l 257
 1080 559 l 257
 1080 624 l 257
 697 1199 l 257
532 1440 m 257
 848 1440 l 257
 1215 846 l 257
 1580 1440 l 257
 1888 1440 l 257
 1348 624 l 257
 1348 0 l 257
 1080 0 l 257
 1080 350 l 257
 407 350 l 257
 286 0 l 257
 1 0 l 257
 532 1440 l 257
EndSplineSet
EndChar

StartChar: uniA73D
Encoding: 42813 42813 1650
GlifName: uniA_73D_
Width: 1709
VWidth: 0
GlyphClass: 2
Flags: HW
LayerCount: 2
Fore
SplineSet
108 732 m 257
 96 957 256 1091 545 1091 c 256
 783 1091 924 994 973 843 c 258
 1166 284 l 257
 1427 1081 l 257
 1710 1081 l 257
 1153 -467 l 257
 848 -467 l 257
 1035 -16 l 257
 722 781 l 258
 695 853 626 883 532 883 c 256
 408 883 336 837 336 732 c 257
 108 732 l 257
851 616 m 257
 851 468 l 257
 532 468 l 258
 417 468 320 422 320 315 c 256
 320 242 364 187 474 187 c 256
 606 187 696 271 733 320 c 257
 814 312 l 257
 772 196 659 -17 387 -17 c 256
 191 -17 84 94 84 283 c 256
 84 521 291 616 515 616 c 258
 851 616 l 257
EndSplineSet
EndChar

StartChar: uniA760
Encoding: 42848 42848 1653
GlifName: uniA_760
Width: 2407
VWidth: 0
GlyphClass: 2
Flags: HW
LayerCount: 2
Fore
SplineSet
2112 1440 m 257
 2419 1440 l 257
 1878 624 l 257
 1878 0 l 257
 1612 0 l 257
 1612 624 l 257
 1253 1162 l 257
 824 0 l 257
 530 0 l 257
 1 1440 l 257
 286 1440 l 257
 677 300 l 257
 1069 1440 l 257
 1379 1440 l 257
 1745 846 l 257
 2112 1440 l 257
EndSplineSet
EndChar

StartChar: uniA761
Encoding: 42849 42849 1654
GlifName: uniA_761
Width: 1909
VWidth: 0
GlyphClass: 2
Flags: HW
LayerCount: 2
Fore
SplineSet
1099 1081 m 257
 1366 284 l 257
 1627 1081 l 257
 1911 1081 l 257
 1352 -467 l 257
 1048 -467 l 257
 1234 -16 l 257
 960 694 l 257
 709 0 l 257
 395 0 l 257
 -1 1081 l 257
 284 1081 l 257
 552 284 l 257
 813 1081 l 257
 1099 1081 l 257
EndSplineSet
EndChar

StartChar: uniAB50
Encoding: 43856 43856 1657
GlifName: uniA_B_50
Width: 1888
VWidth: 0
GlyphClass: 2
Flags: HW
LayerCount: 2
Fore
SplineSet
812 586 m 257
 1079 586 l 257
 1079 444 l 258
 1079 336 1144 254 1266 254 c 256
 1408 254 1483 362 1496 492 c 257
 1537 382 l 257
 1522 165 1389 -10 1154 -10 c 256
 937 -10 812 146 812 353 c 258
 812 586 l 257
1496 1081 m 257
 1761 1081 l 257
 1761 0 l 257
 1507 0 l 257
 1496 272 l 257
 1496 1081 l 257
EndSplineSet
Refer: 1672 57357 N -1 0 0 -1 1165 1082 2
Refer: 357 46 N 1 0 0 1 653 804 2
EndChar

StartChar: uniAB5B
Encoding: 43867 43867 1658
GlifName: uniA_B_5B_
Width: 809
VWidth: 0
GlyphClass: 2
Flags: HW
LayerCount: 2
Fore
SplineSet
405 1452 m 256
 602 1452 715 1326 715 1134 c 257
 593 1134 l 257
 593 1261 527 1330 405 1330 c 256
 283 1330 216 1261 216 1134 c 257
 93 1134 l 257
 93 1326 207 1452 405 1452 c 256
EndSplineSet
EndChar

StartChar: uniE000
Encoding: 57344 57344 1659
GlifName: uniE_000
Width: 112
VWidth: 0
GlyphClass: 2
Flags: HW
LayerCount: 2
Fore
SplineSet
0 267 m 258
 114 267 l 257
 114 0 l 257
 0 0 l 258
 -73 0 -133 60 -133 133 c 256
 -133 206 -73 267 0 267 c 258
EndSplineSet
EndChar

StartChar: uniE001
Encoding: 57345 57345 1660
GlifName: uniE_001
Width: 329
VWidth: 0
GlyphClass: 2
Flags: HW
LayerCount: 2
Fore
SplineSet
0 267 m 258
 330 267 l 257
 330 0 l 257
 0 0 l 258
 -73 0 -133 60 -133 133 c 256
 -133 206 -73 267 0 267 c 258
EndSplineSet
EndChar

StartChar: uniE002
Encoding: 57346 57346 1661
GlifName: uniE_002
Width: 461
VWidth: 0
GlyphClass: 2
Flags: HW
LayerCount: 2
Fore
SplineSet
0 267 m 258
 464 267 l 257
 464 0 l 257
 0 0 l 258
 -73 0 -133 60 -133 133 c 256
 -133 206 -73 267 0 267 c 258
EndSplineSet
EndChar

StartChar: uniE003
Encoding: 57347 57347 1662
GlifName: uniE_003
Width: 1906
VWidth: 0
GlyphClass: 2
Flags: HW
LayerCount: 2
Fore
SplineSet
1409 1454 m 257
 1539 1319 l 257
 212 -34 l 257
 81 101 l 257
 1409 1454 l 257
EndSplineSet
EndChar

StartChar: uniE004
Encoding: 57348 57348 1663
GlifName: uniE_004
Width: 1125
VWidth: 0
GlyphClass: 2
Flags: HW
LayerCount: 2
Fore
SplineSet
134 -99 m 257
 1 1 l 257
 890 1160 l 257
 1023 1061 l 257
 134 -99 l 257
EndSplineSet
EndChar

StartChar: uniE005
Encoding: 57349 57349 1664
GlifName: uniE_005
Width: 1517
VWidth: 0
GlyphClass: 2
Flags: HW
LayerCount: 2
Fore
SplineSet
1297 -147 m 257
 1036 -147 l 257
 730 425 l 257
 890 517 l 257
 1297 -147 l 257
EndSplineSet
EndChar

StartChar: uniE006
Encoding: 57350 57350 1665
GlifName: uniE_006
Width: 1341
VWidth: 0
GlyphClass: 2
Flags: HW
LayerCount: 2
Fore
SplineSet
282 140 m 257
 282 300 l 257
 1060 300 l 257
 1060 140 l 257
 282 140 l 257
282 420 m 257
 282 580 l 257
 1060 580 l 257
 1060 420 l 257
 282 420 l 257
EndSplineSet
EndChar

StartChar: uniE007
Encoding: 57351 57351 1666
GlifName: uniE_007
Width: 931
VWidth: 0
GlyphClass: 2
Flags: HW
LayerCount: 2
Fore
SplineSet
338 1228 m 256
 293 1228 248 1232 206 1243 c 257
 241 1365 l 257
 271 1357 321 1350 370 1350 c 256
 444 1350 520 1366 520 1419 c 256
 520 1445 487 1455 439 1463 c 256
 355 1478 270 1508 270 1618 c 256
 270 1750 358 1841 487 1841 c 256
 531 1841 576 1830 620 1810 c 257
 582 1713 l 257
 557 1724 528 1731 496 1731 c 256
 434 1731 380 1702 380 1637 c 256
 380 1593 428 1584 478 1575 c 256
 561 1559 629 1531 629 1427 c 256
 629 1290 488 1228 338 1228 c 256
EndSplineSet
EndChar

StartChar: uniE008
Encoding: 57352 57352 1667
GlifName: uniE_008
Width: 1128
VWidth: 0
GlyphClass: 2
Flags: HW
LayerCount: 2
Fore
SplineSet
544 1282 m 256
 544 1350 496 1408 425 1408 c 256
 354 1408 306 1350 306 1282 c 256
 306 1213 355 1158 425 1158 c 256
 495 1158 544 1213 544 1282 c 256
725 1282 m 256
 725 1122 607 975 425 975 c 256
 243 975 123 1122 123 1282 c 256
 123 1441 241 1592 425 1592 c 256
 609 1592 725 1441 725 1282 c 256
EndSplineSet
EndChar

StartChar: uniE009
Encoding: 57353 57353 1668
GlifName: uniE_009
Width: 1239
VWidth: 0
GlyphClass: 2
Flags: HW
LayerCount: 2
Fore
SplineSet
567 1637 m 257
 688 1637 l 257
 688 -202 l 257
 567 -202 l 257
 567 1637 l 257
EndSplineSet
EndChar

StartChar: uniE00A
Encoding: 57354 57354 1669
GlifName: uniE_00A_
Width: 1314
VWidth: 0
GlyphClass: 2
Flags: HW
LayerCount: 2
Fore
SplineSet
85 510 m 257
 85 686 l 257
 757 686 l 257
 757 510 l 257
 85 510 l 257
EndSplineSet
EndChar

StartChar: uniE00B
Encoding: 57355 57355 1670
GlifName: uniE_00B_
Width: 1198
VWidth: 0
GlyphClass: 2
Flags: HW
LayerCount: 2
Fore
SplineSet
833 306 m 257
 779 144 661 -11 405 -11 c 256
 212 -11 93 98 93 284 c 256
 93 522 293 644 529 644 c 256
 647 644 746 625 840 598 c 257
 755 458 l 257
 697 473 638 478 569 478 c 256
 424 478 329 422 329 323 c 256
 329 243 378 193 487 193 c 256
 624 193 711 280 747 326 c 257
 833 306 l 257
EndSplineSet
EndChar

StartChar: uniE00C
Encoding: 57356 57356 1671
GlifName: uniE_00C_
Width: 1669
VWidth: 0
GlyphClass: 2
Flags: HW
LayerCount: 2
Fore
SplineSet
1622 712 m 258
 1622 0 l 257
 1356 0 l 257
 1356 664 l 258
 1356 770 1304 828 1201 828 c 256
 1067 828 990 738 963 589 c 257
 922 699 l 257
 938 932 1071 1091 1278 1091 c 256
 1481 1091 1622 934 1622 712 c 258
EndSplineSet
EndChar

StartChar: uniE00D
Encoding: 57357 57357 1672
GlifName: uniE_00D_
Width: 1133
VWidth: 0
GlyphClass: 2
Flags: HW
LayerCount: 2
Fore
SplineSet
1036 710 m 258
 1036 0 l 257
 770 0 l 257
 770 663 l 258
 770 771 708 828 601 828 c 256
 471 828 381 745 353 589 c 257
 312 699 l 257
 329 939 475 1091 677 1091 c 256
 885 1091 1036 934 1036 710 c 258
EndSplineSet
EndChar

StartChar: uniE00E
Encoding: 57358 57358 1673
GlifName: uniE_00E_
Width: 846
VWidth: 0
GlyphClass: 2
Flags: HW
LayerCount: 2
Fore
SplineSet
835 842 m 257
 815 847 788 851 760 851 c 256
 544 851 418 656 405 424 c 257
 333 443 l 257
 348 756 451 1092 781 1092 c 256
 801 1092 822 1089 841 1086 c 257
 835 842 l 257
EndSplineSet
EndChar

StartChar: uniE00F
Encoding: 57359 57359 1674
GlifName: uniE_00F_
Width: 1221
VWidth: 0
GlyphClass: 2
Flags: HW
LayerCount: 2
Fore
SplineSet
1056 541 m 256
 1056 231 919 -10 659 -10 c 256
 494 -10 374 84 284 243 c 257
 359 320 l 257
 411 241 487 203 565 203 c 256
 694 203 790 325 790 541 c 256
 790 758 694 877 565 877 c 256
 487 877 411 840 359 761 c 257
 284 837 l 257
 374 996 494 1090 659 1090 c 256
 919 1090 1056 851 1056 541 c 256
EndSplineSet
EndChar

StartChar: uniE010
Encoding: 57360 57360 1675
GlifName: uniE_010
Width: 1581
VWidth: 0
GlyphClass: 2
Flags: HW
LayerCount: 2
Fore
SplineSet
1341 -214 m 257
 1057 -214 l 257
 906 96 l 257
 1076 197 l 257
 1341 -214 l 257
EndSplineSet
EndChar

StartChar: uniE011
Encoding: 57361 57361 1676
GlifName: uniE_011
Width: 1112
VWidth: 0
GlyphClass: 2
Flags: HW
LayerCount: 2
Fore
SplineSet
438 1475 m 257
 704 1475 l 257
 704 923 l 257
 438 923 l 257
 438 1475 l 257
438 122 m 257
 704 122 l 257
 704 -451 l 257
 438 -451 l 257
 438 122 l 257
EndSplineSet
EndChar

StartChar: uniE012
Encoding: 57362 57362 1677
GlifName: uniE_012
Width: 1623
VWidth: 0
GlyphClass: 2
Flags: HW
LayerCount: 2
Fore
SplineSet
1161 1207 m 257
 1411 1454 l 257
 1542 1319 l 257
 1222 1009 l 257
 1161 1207 l 257
427 181 m 257
 214 -34 l 257
 82 101 l 257
 350 366 l 257
 427 181 l 257
EndSplineSet
EndChar

StartChar: uniE013
Encoding: 57363 57363 1678
GlifName: uniE_013
Width: 1123
VWidth: 0
GlyphClass: 2
Flags: HW
LayerCount: 2
Fore
SplineSet
784 932 m 257
 959 1160 l 257
 1091 1061 l 257
 893 803 l 257
 784 932 l 257
380 134 m 257
 202 -99 l 257
 69 1 l 257
 280 275 l 257
 380 134 l 257
EndSplineSet
EndChar

StartChar: uniE014
Encoding: 57364 57364 1679
GlifName: uniE_014
Width: 1341
VWidth: 0
GlyphClass: 2
Flags: HW
LayerCount: 2
Fore
SplineSet
282 280 m 257
 282 440 l 257
 1060 440 l 257
 1060 280 l 257
 282 280 l 257
EndSplineSet
EndChar

StartChar: uniE015
Encoding: 57365 57365 1680
GlifName: uniE_015
Width: 1523
VWidth: 0
GlyphClass: 2
Flags: HW
LayerCount: 2
Fore
SplineSet
1471 1060 m 257
 1471 969 l 257
 53 969 l 257
 53 1060 l 257
 1471 1060 l 257
EndSplineSet
EndChar

StartChar: uniE016
Encoding: 57366 57366 1681
GlifName: uniE_016
Width: 415
VWidth: 0
GlyphClass: 2
Flags: HW
LayerCount: 2
Fore
SplineSet
73 899 m 257
 73 1041 l 257
 343 1041 l 257
 343 899 l 257
 73 899 l 257
EndSplineSet
EndChar

StartChar: uniE017
Encoding: 57367 57367 1682
GlifName: uniE_017
Width: 669
VWidth: 0
GlyphClass: 2
Flags: HW
LayerCount: 2
Fore
SplineSet
610 1008 m 257
 660 894 l 257
 60 637 l 257
 9 751 l 257
 610 1008 l 257
EndSplineSet
EndChar

StartChar: uniE018
Encoding: 57368 57368 1683
GlifName: uniE_018
Width: 1142
VWidth: 0
GlyphClass: 2
Flags: HW
LayerCount: 2
Fore
SplineSet
305 31 m 257
 158 31 l 257
 837 1224 l 257
 985 1224 l 257
 305 31 l 257
EndSplineSet
EndChar

StartChar: uniE019
Encoding: 57369 57369 1684
GlifName: uniE_019
Width: 1532
VWidth: 0
GlyphClass: 2
Flags: HW
LayerCount: 2
Fore
SplineSet
588 32 m 257
 727 171 l 257
 866 32 l 257
 727 -108 l 257
 588 32 l 257
866 31 m 257
 1006 171 l 257
 1145 31 l 257
 1006 -108 l 257
 866 31 l 257
735 -196 m 257
 866 -65 l 257
 997 -196 l 257
 866 -327 l 257
 735 -196 l 257
EndSplineSet
EndChar

StartChar: uniE01A
Encoding: 57370 57370 1685
GlifName: uniE_01A_
Width: 1292
VWidth: 0
GlyphClass: 2
Flags: HW
LayerCount: 2
Fore
SplineSet
332 210 m 257
 254 326 l 257
 966 1250 l 257
 1039 1129 l 257
 332 210 l 257
EndSplineSet
EndChar

StartChar: uniE020
Encoding: 57376 57376 1686
GlifName: uniE_020
Width: 885
VWidth: 0
GlyphClass: 2
Flags: HW
LayerCount: 2
Fore
SplineSet
126 462 m 256
 126 683 288 806 461 806 c 256
 561 806 657 768 735 693 c 257
 656 579 l 257
 604 622 538 646 472 646 c 256
 372 646 285 581 285 465 c 256
 285 365 365 305 489 305 c 256
 565 305 639 319 756 358 c 257
 811 209 l 257
 122 -11 l 257
 75 141 l 257
 322 220 l 257
 209 248 126 343 126 462 c 256
EndSplineSet
EndChar

StartChar: uniE021
Encoding: 57377 57377 1687
GlifName: uniE_021
Width: 549
VWidth: 0
GlyphClass: 2
Flags: HW
LayerCount: 2
Fore
SplineSet
563 1857 m 257
 670 1802 l 257
 603 1661 535 1599 426 1599 c 256
 361 1599 298 1623 245 1647 c 256
 203 1667 166 1682 133 1682 c 256
 67 1682 29 1625 -19 1554 c 257
 -119 1615 l 257
 -47 1753 45 1828 147 1828 c 256
 197 1828 248 1809 296 1787 c 256
 344 1766 388 1747 434 1747 c 256
 482 1747 519 1774 563 1857 c 257
409 1427 m 257
 409 0 l 257
 142 0 l 257
 142 1427 l 257
 409 1427 l 257
EndSplineSet
EndChar

StartChar: uniE022
Encoding: 57378 57378 1688
GlifName: uniE_022
Width: 549
VWidth: 0
GlyphClass: 2
Flags: HW
LayerCount: 2
Fore
SplineSet
409 0 m 257
 142 0 l 257
 142 1427 l 257
 409 1427 l 257
 409 0 l 257
EndSplineSet
EndChar

StartChar: uniE023
Encoding: 57379 57379 1689
GlifName: uniE_023
Width: 1448
VWidth: 0
GlyphClass: 2
Flags: HW
LayerCount: 2
Fore
SplineSet
499 973 m 256
 589 973 678 941 845 868 c 256
 1018 792 1155 741 1304 711 c 257
 1303 439 l 257
 776 327 340 108 340 -193 c 256
 340 -385 535 -483 810 -483 c 256
 978 -483 1162 -447 1289 -395 c 257
 1387 -645 l 257
 1226 -723 1022 -771 814 -771 c 256
 382 -771 75 -568 75 -224 c 256
 75 151 432 421 926 574 c 257
 846 591 778 621 712 651 c 256
 626 689 571 709 523 709 c 256
 424 709 374 640 350 527 c 258
 342 489 l 257
 132 527 l 257
 140 573 l 258
 188 836 297 973 499 973 c 256
EndSplineSet
EndChar

StartChar: uniE024
Encoding: 57380 57380 1690
GlifName: uniE_024
Width: 1032
VWidth: 0
GlyphClass: 2
Flags: HW
LayerCount: 2
Fore
SplineSet
958 408 m 256
 958 106 676 -7 404 -7 c 256
 285 -7 165 11 65 39 c 257
 124 292 l 257
 192 275 296 258 396 258 c 256
 558 258 695 301 695 428 c 256
 695 535 579 706 360 897 c 257
 532 1101 l 257
 780 885 958 661 958 408 c 256
EndSplineSet
EndChar

StartChar: uniE025
Encoding: 57381 57381 1691
GlifName: uniE_025
Width: 801
VWidth: 0
GlyphClass: 2
Flags: HW
LayerCount: 2
Fore
SplineSet
348 649 m 257
 602 735 l 257
 676 497 717 312 717 151 c 256
 717 -192 527 -420 67 -590 c 257
 -48 -350 l 257
 311 -221 450 -89 450 149 c 256
 450 274 415 443 348 649 c 257
EndSplineSet
EndChar

StartChar: uniE026
Encoding: 57382 57382 1692
GlifName: uniE_026
Width: 2564
VWidth: 0
GlyphClass: 2
Flags: HW
LayerCount: 2
Fore
SplineSet
1608 0 m 256
 1534 0 1480 26 1444 70 c 257
 1426 -327 1158 -512 766 -512 c 256
 292 -512 75 -287 75 114 c 256
 75 283 113 487 176 673 c 257
 417 600 l 257
 375 457 334 287 334 144 c 256
 334 -112 455 -245 764 -245 c 256
 1081 -245 1189 -111 1189 110 c 256
 1189 254 1133 446 1078 610 c 257
 1340 711 l 257
 1415 457 l 257
 1448 325 1489 267 1587 267 c 256
 1674 267 1720 319 1730 434 c 258
 1747 649 l 257
 1981 632 l 257
 1968 438 l 258
 1959 320 2007 267 2105 267 c 256
 2195 267 2237 317 2237 423 c 256
 2237 478 2224 578 2202 702 c 257
 2462 764 l 257
 2487 649 2500 526 2500 426 c 256
 2500 140 2383 0 2149 0 c 256
 1993 0 1894 64 1855 178 c 257
 1825 64 1723 0 1608 0 c 256
EndSplineSet
EndChar

StartChar: uniE027
Encoding: 57383 57383 1693
GlifName: uniE_027
Width: 2520
VWidth: 0
GlyphClass: 2
Flags: HW
LayerCount: 2
Fore
SplineSet
1998 596 m 256
 1895 596 1764 515 1613 299 c 257
 1669 275 1744 267 1828 267 c 256
 2002 267 2155 310 2155 448 c 256
 2155 534 2093 596 1998 596 c 256
2044 858 m 256
 2291 858 2446 677 2446 445 c 256
 2446 111 2165 0 1803 0 c 256
 1664 0 1546 19 1452 53 c 257
 1423 -331 1157 -500 764 -500 c 256
 291 -500 75 -275 75 124 c 256
 75 296 113 498 176 684 c 257
 417 613 l 257
 375 470 334 298 334 149 c 256
 334 -100 455 -234 764 -234 c 256
 1080 -234 1189 -99 1189 123 c 256
 1189 266 1138 441 1078 618 c 257
 1339 736 l 257
 1371 640 1404 509 1424 397 c 257
 1626 689 1814 858 2044 858 c 256
EndSplineSet
EndChar

StartChar: uniE028
Encoding: 57384 57384 1694
GlifName: uniE_028
Width: 1608
VWidth: 0
GlyphClass: 2
Flags: HW
LayerCount: 2
Fore
SplineSet
675 267 m 257
 921 267 l 258
 1106 267 1242 299 1242 438 c 256
 1242 531 1182 596 1085 596 c 256
 980 596 838 511 675 267 c 257
362 267 m 257
 373 284 384 299 394 315 c 257
 394 1427 l 257
 660 1427 l 257
 660 805 l 258
 660 719 655 634 638 553 c 257
 788 753 958 858 1133 858 c 256
 1380 858 1534 673 1534 445 c 256
 1534 206 1407 0 862 0 c 258
 75 0 l 257
 75 267 l 257
 362 267 l 257
EndSplineSet
EndChar

StartChar: uniE029
Encoding: 57385 57385 1695
GlifName: uniE_029
Width: 1430
VWidth: 0
GlyphClass: 2
Flags: HW
LayerCount: 2
Fore
SplineSet
1097 1105 m 257
 954 909 l 257
 892 969 797 1016 692 1016 c 256
 560 1016 442 925 442 784 c 256
 442 639 579 580 832 580 c 256
 930 580 1042 591 1133 601 c 257
 1146 341 l 257
 694 319 342 147 342 -155 c 256
 342 -365 546 -461 828 -461 c 256
 979 -461 1151 -434 1268 -390 c 257
 1356 -644 l 257
 1213 -704 1013 -741 820 -741 c 256
 380 -741 75 -554 75 -189 c 256
 75 52 219 268 459 403 c 257
 285 461 173 567 173 749 c 256
 173 1050 408 1282 682 1282 c 256
 843 1282 995 1210 1097 1105 c 257
EndSplineSet
EndChar

StartChar: uniE02A
Encoding: 57386 57386 1696
GlifName: uniE_02A_
Width: 877
VWidth: 0
GlyphClass: 2
Flags: HW
LayerCount: 2
Fore
SplineSet
0 267 m 258
 877 267 l 257
 877 0 l 257
 0 0 l 258
 -26 0 -38 28 -38 133 c 256
 -38 238 -26 267 0 267 c 258
EndSplineSet
EndChar

StartChar: uniE02B
Encoding: 57387 57387 1697
GlifName: uniE_02B_
Width: 1697
VWidth: 0
GlyphClass: 2
Flags: HW
LayerCount: 2
Fore
SplineSet
802 267 m 256
 1178 267 1298 322 1298 612 c 258
 1298 1421 l 257
 1564 1421 l 257
 1564 612 l 258
 1564 169 1311 0 782 0 c 256
 285 0 75 142 75 474 c 256
 75 562 89 673 115 777 c 257
 356 724 l 257
 336 628 326 545 326 487 c 256
 326 314 429 267 802 267 c 256
EndSplineSet
EndChar

StartChar: uniE02C
Encoding: 57388 57388 1698
GlifName: uniE_02C_
Width: 1449
VWidth: 0
GlyphClass: 2
Flags: HW
LayerCount: 2
Fore
SplineSet
682 -279 m 256
 935 -279 1050 -155 1050 100 c 258
 1050 1427 l 257
 1316 1427 l 257
 1316 100 l 258
 1316 -320 1066 -546 666 -546 c 256
 272 -546 75 -330 75 -12 c 256
 75 128 108 293 173 457 c 257
 408 373 l 257
 363 248 335 121 335 22 c 256
 335 -164 443 -279 682 -279 c 256
EndSplineSet
EndChar

StartChar: uniE02D
Encoding: 57389 57389 1699
GlifName: uniE_02D_
Width: 1314
VWidth: 0
GlyphClass: 2
Flags: HW
LayerCount: 2
Fore
SplineSet
825 594 m 256
 707 594 653 432 629 309 c 257
 650 304 681 297 703 291 c 256
 773 271 840 256 891 256 c 256
 955 256 980 293 980 367 c 256
 980 474 942 594 825 594 c 256
832 856 m 256
 1079 856 1220 648 1220 357 c 256
 1220 121 1115 -11 915 -11 c 256
 833 -11 726 8 596 40 c 256
 516 60 465 71 428 71 c 256
 367 71 342 38 342 -32 c 258
 342 -729 l 257
 75 -729 l 257
 75 -3 l 258
 75 217 197 365 395 352 c 257
 444 637 594 856 832 856 c 256
EndSplineSet
EndChar

StartChar: uniE02E
Encoding: 57390 57390 1700
GlifName: uniE_02E_
Width: 931
VWidth: 0
GlyphClass: 2
Flags: HW
LayerCount: 2
Fore
SplineSet
461 257 m 256
 557 257 606 308 606 385 c 256
 606 467 559 570 461 660 c 257
 364 571 314 467 314 385 c 256
 314 309 363 257 461 257 c 256
461 -11 m 256
 220 -11 75 144 75 332 c 256
 75 509 164 670 314 817 c 257
 283 846 249 877 212 909 c 257
 372 1100 l 257
 612 906 857 640 857 354 c 256
 857 150 692 -11 461 -11 c 256
EndSplineSet
EndChar

StartChar: uniE02F
Encoding: 57391 57391 1701
GlifName: uniE_02F_
Width: 981
VWidth: 0
GlyphClass: 2
Flags: HW
LayerCount: 2
Fore
SplineSet
624 9 m 257
 573 2 519 -5 459 -5 c 256
 238 -5 105 115 105 350 c 256
 105 586 225 859 489 859 c 256
 821 859 907 505 907 134 c 256
 907 -219 663 -441 187 -588 c 257
 75 -346 l 257
 375 -260 572 -139 624 9 c 257
657 280 m 257
 642 458 596 603 484 603 c 256
 385 603 340 490 340 374 c 256
 340 291 388 262 492 262 c 256
 554 262 614 271 657 280 c 257
EndSplineSet
EndChar

StartChar: uniE030
Encoding: 57392 57392 1702
GlifName: uniE_030
Width: 0
VWidth: 0
GlyphClass: 2
Flags: H
LayerCount: 2
Fore
SplineSet
72 1530 m 256
 31 1530 -15 1491 -15 1448 c 256
 -15 1396 42 1370 86 1356 c 257
 114 1388 124 1422 124 1458 c 256
 124 1498 107 1530 72 1530 c 256
84 1644 m 256
 176 1644 239 1568 239 1465 c 256
 239 1260 -6 1137 -203 1083 c 257
 -235 1176 -284 1249 -366 1301 c 257
 -303 1397 l 257
 -233 1357 -180 1299 -137 1225 c 257
 -97 1240 -44 1265 -3 1287 c 257
 -58 1309 -126 1358 -126 1446 c 256
 -126 1544 -26 1644 84 1644 c 256
EndSplineSet
EndChar

StartChar: uniE031
Encoding: 57393 57393 1703
GlifName: uniE_031
Width: 0
VWidth: 0
GlyphClass: 2
Flags: H
LayerCount: 2
Fore
SplineSet
214 1357 m 257
 247 1248 l 257
 -214 1101 l 257
 -247 1212 l 257
 214 1357 l 257
EndSplineSet
EndChar

StartChar: uniE032
Encoding: 57394 57394 1704
GlifName: uniE_032
Width: 0
VWidth: 0
GlyphClass: 2
Flags: H
LayerCount: 2
Fore
SplineSet
72 1530 m 256
 31 1530 -15 1491 -15 1448 c 256
 -15 1396 42 1370 86 1356 c 257
 114 1388 124 1422 124 1458 c 256
 124 1498 107 1530 72 1530 c 256
85 1644 m 256
 178 1644 239 1568 239 1465 c 256
 239 1259 -8 1136 -207 1082 c 257
 -238 1190 l 257
 -165 1210 -46 1264 -3 1288 c 257
 -60 1311 -126 1361 -126 1445 c 256
 -126 1548 -23 1644 85 1644 c 256
EndSplineSet
EndChar

StartChar: uniE033
Encoding: 57395 57395 1705
GlifName: uniE_033
Width: 0
VWidth: 0
GlyphClass: 2
Flags: H
LayerCount: 2
Fore
SplineSet
177 1282 m 256
 177 1321 164 1377 152 1412 c 257
 259 1445 l 257
 274 1401 291 1347 291 1268 c 256
 291 1167 234 1101 134 1101 c 256
 78 1101 18 1132 0 1185 c 257
 -18 1132 -78 1101 -134 1101 c 256
 -234 1101 -291 1167 -291 1268 c 256
 -291 1347 -274 1401 -259 1445 c 257
 -152 1412 l 257
 -164 1377 -177 1321 -177 1282 c 256
 -177 1239 -162 1216 -118 1216 c 256
 -68 1216 -49 1256 -49 1340 c 258
 -49 1375 l 257
 49 1375 l 257
 49 1340 l 258
 49 1256 68 1216 118 1216 c 256
 162 1216 177 1239 177 1282 c 256
EndSplineSet
EndChar

StartChar: uniE034
Encoding: 57396 57396 1706
GlifName: uniE_034
Width: 0
VWidth: 0
GlyphClass: 2
Flags: H
LayerCount: 2
Fore
SplineSet
0 1350 m 256
 -57 1350 -87 1316 -87 1267 c 256
 -87 1218 -56 1182 0 1182 c 256
 54 1182 87 1220 87 1267 c 256
 87 1314 57 1350 0 1350 c 256
0 1459 m 256
 117 1459 194 1376 194 1267 c 256
 194 1158 117 1073 0 1073 c 256
 -118 1073 -194 1159 -194 1267 c 256
 -194 1375 -118 1459 0 1459 c 256
EndSplineSet
EndChar

StartChar: uniE035
Encoding: 57397 57397 1707
GlifName: uniE_035
Width: 0
VWidth: 0
GlyphClass: 2
Flags: H
LayerCount: 2
Fore
SplineSet
-289 1142 m 257
 -256 1206 -195 1286 -102 1286 c 256
 -52 1286 -14 1265 20 1244 c 256
 47 1227 71 1215 93 1215 c 256
 136 1215 161 1247 183 1296 c 257
 288 1252 l 257
 256 1178 194 1101 101 1101 c 256
 57 1101 23 1119 -11 1143 c 256
 -36 1161 -61 1171 -84 1171 c 256
 -128 1171 -164 1136 -186 1092 c 257
 -289 1142 l 257
EndSplineSet
EndChar

StartChar: uniE036
Encoding: 57398 57398 1708
GlifName: uniE_036
Width: 0
VWidth: 0
GlyphClass: 2
Flags: H
LayerCount: 2
Fore
SplineSet
154 1589 m 257
 125 1487 l 257
 105 1493 63 1498 40 1498 c 256
 -21 1498 -64 1460 -64 1401 c 256
 -64 1346 -25 1303 26 1303 c 256
 39 1303 55 1307 69 1311 c 258
 214 1357 l 257
 247 1248 l 257
 -214 1101 l 257
 -247 1212 l 257
 -105 1257 l 257
 -144 1290 -168 1346 -168 1406 c 256
 -168 1526 -76 1609 48 1609 c 256
 81 1609 114 1602 154 1589 c 257
EndSplineSet
EndChar

StartChar: uniE037
Encoding: 57399 57399 1709
GlifName: uniE_037
Width: 0
VWidth: 0
GlyphClass: 2
Flags: H
LayerCount: 2
Fore
SplineSet
48 1101 m 257
 -48 1101 l 257
 -260 1374 l 257
 -169 1445 l 257
 0 1219 l 257
 169 1445 l 257
 260 1374 l 257
 48 1101 l 257
EndSplineSet
EndChar

StartChar: uniE038
Encoding: 57400 57400 1710
GlifName: uniE_038
Width: 1795
VWidth: 0
GlyphClass: 2
Flags: HW
LayerCount: 2
Fore
SplineSet
1669 850 m 257
 1702 724 1721 611 1721 511 c 256
 1721 136 1491 0 897 0 c 256
 303 0 75 136 75 511 c 256
 75 611 94 724 127 850 c 257
 365 797 l 257
 342 695 329 609 329 539 c 256
 329 316 458 267 897 267 c 256
 1337 267 1466 316 1466 539 c 256
 1466 609 1454 695 1431 797 c 257
 1669 850 l 257
EndSplineSet
EndChar

StartChar: uniE039
Encoding: 57401 57401 1711
GlifName: uniE_039
Width: 1555
VWidth: 0
GlyphClass: 2
Flags: HW
LayerCount: 2
Fore
SplineSet
1227 269 m 257
 1212 447 1167 591 1055 591 c 256
 956 591 910 479 910 363 c 256
 910 280 959 251 1062 251 c 256
 1124 251 1184 260 1227 269 c 257
1060 859 m 256
 1357 859 1481 550 1481 165 c 257
 1481 -285 1242 -548 767 -548 c 256
 332 -548 75 -317 75 69 c 256
 75 212 108 376 176 556 c 257
 418 450 l 257
 371 302 340 173 340 70 c 256
 340 -164 493 -280 790 -280 c 256
 1036 -280 1186 -171 1204 21 c 257
 1156 6 1090 -5 1029 -5 c 256
 809 -5 676 115 676 349 c 256
 676 585 796 859 1060 859 c 256
EndSplineSet
EndChar

StartChar: uniE03A
Encoding: 57402 57402 1712
GlifName: uniE_03A_
Width: 0
VWidth: 0
GlyphClass: 2
Flags: H
LayerCount: 2
Fore
SplineSet
-66 1457 m 257
 66 1457 l 257
 66 1073 l 257
 -66 1073 l 257
 -66 1457 l 257
EndSplineSet
EndChar

StartChar: uniE03B
Encoding: 57403 57403 1713
GlifName: uniE_03B_
Width: 1822
VWidth: 0
GlyphClass: 2
Flags: HW
LayerCount: 2
Fore
SplineSet
1511 474 m 257
 1439 454 1364 444 1280 444 c 256
 1066 444 927 524 927 756 c 256
 927 987 1033 1278 1308 1278 c 256
 1703 1278 1748 738 1748 526 c 256
 1748 72 1439 0 889 0 c 256
 307 0 75 125 75 504 c 256
 75 601 91 716 120 834 c 257
 364 780 l 257
 342 683 329 596 329 528 c 256
 329 317 452 267 910 267 c 256
 1426 268 1511 288 1511 474 c 257
1475 695 m 257
 1460 873 1414 1017 1302 1017 c 256
 1203 1017 1158 905 1158 789 c 256
 1158 706 1206 677 1310 677 c 256
 1372 677 1432 686 1475 695 c 257
EndSplineSet
EndChar

StartChar: uniE03C
Encoding: 57404 57404 1714
GlifName: uniE_03C_
Width: 1686
VWidth: 0
GlyphClass: 2
Flags: HW
LayerCount: 2
Fore
SplineSet
120 835 m 257
 364 780 l 257
 341 677 329 592 329 528 c 256
 329 331 444 267 798 267 c 256
 1141 267 1318 327 1318 447 c 256
 1318 564 1149 742 840 955 c 257
 840 1178 l 257
 1134 1359 1428 1485 1734 1560 c 257
 1790 1299 l 257
 1553 1235 1353 1160 1151 1056 c 257
 1151 1046 l 257
 1454 792 1585 611 1585 428 c 256
 1585 152 1304 0 794 0 c 256
 288 0 75 151 75 505 c 256
 75 602 91 716 120 835 c 257
EndSplineSet
EndChar

StartChar: uniE03D
Encoding: 57405 57405 1715
GlifName: uniE_03D_
Width: 1597
VWidth: 0
GlyphClass: 2
Flags: HW
LayerCount: 2
Fore
SplineSet
1125 627 m 257
 1377 746 l 257
 1465 534 1523 376 1523 139 c 256
 1523 -295 1213 -518 797 -518 c 256
 311 -518 75 -284 75 129 c 256
 75 294 110 488 175 689 c 257
 420 610 l 257
 379 463 337 294 337 154 c 256
 337 -100 468 -251 798 -251 c 256
 1117 -251 1255 -102 1255 129 c 256
 1255 277 1201 451 1125 627 c 257
EndSplineSet
EndChar

StartChar: uniE03E
Encoding: 57406 57406 1716
GlifName: uniE_03E_
Width: 1572
VWidth: 0
GlyphClass: 2
Flags: HW
LayerCount: 2
Fore
SplineSet
1447 845 m 257
 1366 605 l 257
 1313 625 1231 640 1166 640 c 256
 997 640 872 548 872 394 c 256
 872 298 942 275 1125 263 c 256
 1336 250 1497 206 1497 -39 c 256
 1497 -405 1161 -548 759 -548 c 256
 310 -548 87 -360 87 72 c 256
 87 208 103 339 132 479 c 257
 381 433 l 257
 357 295 343 190 343 66 c 256
 343 -200 470 -281 762 -281 c 256
 981 -281 1243 -218 1243 -89 c 256
 1243 -26 1206 -8 1066 2 c 256
 762 22 614 103 614 356 c 256
 614 665 825 903 1148 903 c 256
 1250 903 1361 881 1447 845 c 257
EndSplineSet
EndChar

StartChar: uniE03F
Encoding: 57407 57407 1717
GlifName: uniE_03F_
Width: 1962
VWidth: 0
GlyphClass: 2
Flags: HW
LayerCount: 2
Fore
SplineSet
120 835 m 257
 364 780 l 257
 341 677 329 593 329 528 c 256
 329 330 441 267 797 267 c 256
 1140 267 1312 326 1312 446 c 256
 1312 562 1154 731 840 955 c 257
 840 1178 l 257
 1134 1359 1428 1485 1734 1560 c 257
 1790 1299 l 257
 1553 1235 1353 1160 1151 1056 c 257
 1151 1046 l 257
 1359 871 1467 749 1568 562 c 256
 1693 335 1784 267 1962 267 c 258
 1964 267 l 257
 1964 0 l 257
 1962 0 l 258
 1760 0 1601 83 1503 257 c 257
 1436 87 1194 0 802 0 c 256
 289 0 75 150 75 505 c 256
 75 602 91 716 120 835 c 257
EndSplineSet
EndChar

StartChar: uniE040
Encoding: 57408 57408 1718
GlifName: uniE_040
Width: 1809
VWidth: 0
GlyphClass: 2
Flags: HW
LayerCount: 2
Fore
SplineSet
175 689 m 257
 420 610 l 257
 379 463 337 294 337 154 c 256
 337 -100 466 -251 796 -251 c 256
 1130 -251 1254 -99 1254 150 c 256
 1254 277 1200 445 1126 627 c 257
 1378 747 l 257
 1478 489 l 258
 1533 340 1613 266 1808 266 c 258
 1809 266 l 257
 1809 0 l 257
 1808 0 l 258
 1681 0 1564 47 1504 130 c 257
 1526 -287 1219 -518 797 -518 c 256
 311 -518 75 -284 75 129 c 256
 75 294 110 488 175 689 c 257
EndSplineSet
EndChar

StartChar: uniE041
Encoding: 57409 57409 1719
GlifName: uniE_041
Width: 600
VWidth: 0
GlyphClass: 2
Flags: HW
LayerCount: 2
Fore
SplineSet
463 866 m 257
 501 709 526 567 526 446 c 256
 526 175 387 0 42 0 c 258
 0 0 l 258
 -26 0 -38 28 -38 133 c 256
 -38 238 -26 267 0 267 c 258
 42 267 l 258
 200 267 265 335 265 475 c 256
 265 556 243 664 212 797 c 257
 463 866 l 257
EndSplineSet
EndChar

StartChar: uniE042
Encoding: 57410 57410 1720
GlifName: uniE_042
Width: 829
VWidth: 0
GlyphClass: 2
Flags: HW
LayerCount: 2
Fore
SplineSet
550 524 m 258
 550 333 581 267 780 267 c 258
 830 267 l 257
 830 0 l 257
 777 0 l 258
 610 0 461 71 415 194 c 257
 368 72 209 0 42 0 c 258
 0 0 l 258
 -26 0 -38 28 -38 133 c 256
 -38 238 -26 267 0 267 c 258
 42 267 l 258
 249 267 283 334 283 524 c 258
 283 694 l 257
 550 694 l 257
 550 524 l 258
EndSplineSet
EndChar

StartChar: uniE043
Encoding: 57411 57411 1721
GlifName: uniE_043
Width: 1478
VWidth: 0
GlyphClass: 2
Flags: HW
LayerCount: 2
Fore
SplineSet
1478 267 m 257
 1478 0 l 257
 1278 0 l 257
 1359 -53 1411 -124 1411 -214 c 256
 1411 -463 1113 -607 753 -607 c 256
 314 -607 75 -408 75 -3 c 256
 75 192 110 377 170 596 c 257
 416 529 l 257
 362 316 332 164 332 13 c 256
 332 -242 471 -341 769 -341 c 256
 982 -341 1174 -289 1174 -163 c 256
 1174 -65 1048 -40 722 -0 c 257
 760 267 l 257
 1478 267 l 257
EndSplineSet
EndChar

StartChar: uniE044
Encoding: 57412 57412 1722
GlifName: uniE_044
Width: 634
VWidth: 0
GlyphClass: 2
Flags: HW
LayerCount: 2
Fore
SplineSet
133 1427 m 257
 401 1427 l 257
 401 480 l 258
 401 325 452 267 634 267 c 258
 634 267 l 257
 634 0 l 257
 634 0 l 258
 316 0 133 160 133 475 c 258
 133 1427 l 257
EndSplineSet
EndChar

StartChar: uniE045
Encoding: 57413 57413 1723
GlifName: uniE_045
Width: 1438
VWidth: 0
GlyphClass: 2
Flags: HW
LayerCount: 2
Fore
SplineSet
498 973 m 256
 589 973 678 941 845 868 c 256
 1017 792 1155 740 1304 711 c 257
 1303 439 l 257
 1249 426 1194 412 1139 395 c 257
 1188 279 1270 267 1409 267 c 258
 1438 267 l 257
 1438 0 l 257
 1408 0 l 258
 1166 0 1012 88 957 345 c 257
 595 221 340 37 340 -193 c 256
 340 -386 535 -483 811 -483 c 256
 979 -483 1162 -447 1289 -395 c 257
 1387 -645 l 257
 1226 -723 1021 -771 814 -771 c 256
 382 -771 75 -568 75 -224 c 256
 75 151 432 421 926 574 c 257
 846 592 780 621 713 651 c 256
 628 689 572 709 523 709 c 256
 424 709 375 640 350 527 c 258
 342 489 l 257
 132 527 l 257
 140 573 l 257
 189 836 296 973 498 973 c 256
EndSplineSet
EndChar

StartChar: uniE046
Encoding: 57414 57414 1724
GlifName: uniE_046
Width: 1348
VWidth: 0
GlyphClass: 2
Flags: HW
LayerCount: 2
Fore
SplineSet
477 949 m 256
 577 949 684 903 812 846 c 256
 941 789 1090 723 1274 687 c 257
 1274 469 l 257
 835 176 l 258
 646 50 454 0 219 0 c 258
 0 0 l 258
 -26 0 -38 29 -38 133 c 256
 -38 237 -26 267 0 267 c 258
 268 267 l 258
 443 267 571 294 718 383 c 258
 960 533 l 257
 845 556 756 594 680 627 c 256
 607 659 548 685 488 685 c 256
 398 685 345 620 320 503 c 258
 312 465 l 257
 102 503 l 257
 110 550 l 257
 155 796 257 949 477 949 c 256
EndSplineSet
EndChar

StartChar: uniE047
Encoding: 57415 57415 1725
GlifName: uniE_047
Width: 1397
VWidth: 0
GlyphClass: 2
Flags: HW
LayerCount: 2
Fore
SplineSet
477 949 m 256
 577 949 684 903 812 846 c 256
 941 789 1090 723 1274 687 c 257
 1274 469 l 257
 1121 367 l 257
 1177 290 1231 267 1362 267 c 258
 1398 267 l 257
 1398 0 l 257
 1360 0 l 258
 1164 0 1025 69 948 252 c 257
 835 176 l 258
 646 50 454 0 219 0 c 258
 0 0 l 258
 -26 0 -38 29 -38 133 c 256
 -38 237 -26 267 0 267 c 258
 268 267 l 258
 443 267 571 294 718 383 c 258
 960 533 l 257
 845 556 756 594 680 627 c 256
 607 659 548 685 488 685 c 256
 398 685 345 620 320 503 c 258
 312 465 l 257
 102 503 l 257
 110 550 l 257
 155 796 257 949 477 949 c 256
EndSplineSet
EndChar

StartChar: uniE048
Encoding: 57416 57416 1726
GlifName: uniE_048
Width: 1307
VWidth: 0
GlyphClass: 2
Flags: HW
LayerCount: 2
Fore
SplineSet
762 1086 m 257
 1028 465 l 258
 1094 310 1162 267 1294 267 c 258
 1307 267 l 257
 1307 0 l 257
 1291 0 l 258
 1123 0 983 55 898 199 c 257
 814 58 650 -10 477 -10 c 256
 332 -10 181 38 65 137 c 257
 182 350 l 257
 272 286 377 257 473 257 c 256
 593 257 698 299 770 390 c 257
 515 967 l 257
 762 1086 l 257
EndSplineSet
EndChar

StartChar: uniE049
Encoding: 57417 57417 1727
GlifName: uniE_049
Width: 949
VWidth: 0
GlyphClass: 2
Flags: HW
LayerCount: 2
Fore
SplineSet
348 649 m 257
 602 735 l 257
 666 519 l 258
 728 309 774 267 948 267 c 258
 950 267 l 257
 950 0 l 257
 948 0 l 258
 842 0 756 30 702 88 c 257
 682 -231 489 -433 67 -590 c 257
 -48 -350 l 257
 311 -221 450 -88 450 152 c 256
 450 276 415 444 348 649 c 257
EndSplineSet
EndChar

StartChar: uniE04A
Encoding: 57418 57418 1728
GlifName: uniE_04A_
Width: 2773
VWidth: 0
GlyphClass: 2
Flags: HW
LayerCount: 2
Fore
SplineSet
176 673 m 257
 417 600 l 257
 375 457 334 287 334 144 c 256
 334 -112 455 -245 764 -245 c 256
 1081 -245 1189 -111 1189 110 c 256
 1189 254 1133 446 1078 610 c 257
 1340 711 l 257
 1415 457 l 257
 1448 325 1489 267 1587 267 c 256
 1674 267 1720 319 1730 434 c 258
 1747 649 l 257
 1981 632 l 257
 1968 438 l 258
 1958 320 2007 267 2102 267 c 256
 2194 267 2235 316 2235 423 c 256
 2235 477 2224 566 2200 702 c 257
 2457 756 l 257
 2481 582 l 258
 2519 326 2580 267 2772 267 c 258
 2774 267 l 257
 2774 0 l 257
 2772 0 l 258
 2575 0 2449 73 2416 204 c 257
 2392 73 2287 0 2137 0 c 256
 1981 0 1894 64 1855 178 c 257
 1825 64 1723 0 1608 0 c 256
 1534 0 1480 26 1444 70 c 257
 1426 -327 1158 -512 766 -512 c 256
 292 -512 75 -287 75 114 c 256
 75 283 113 487 176 673 c 257
EndSplineSet
EndChar

StartChar: uniE04B
Encoding: 57419 57419 1729
GlifName: uniE_04B_
Width: 1679
VWidth: 0
GlyphClass: 2
Flags: HW
LayerCount: 2
Fore
SplineSet
685 267 m 256
 776 264 825 316 835 434 c 258
 852 649 l 257
 1086 632 l 257
 1073 438 l 258
 1064 320 1112 267 1210 267 c 256
 1300 267 1342 317 1342 424 c 256
 1342 483 1328 601 1308 715 c 257
 1566 777 l 257
 1590 667 1605 530 1605 427 c 256
 1605 141 1490 0 1255 0 c 256
 1099 0 999 64 960 178 c 257
 918 59 824 0 677 0 c 256
 525 0 431 65 396 190 c 257
 343 75 204 0 42 0 c 258
 0 0 l 258
 -27 0 -38 42 -38 137 c 256
 -38 230 -28 267 0 267 c 258
 42 267 l 258
 201 267 273 331 289 498 c 258
 307 702 l 257
 574 681 l 257
 553 452 l 258
 541 333 587 270 685 267 c 256
EndSplineSet
EndChar

StartChar: uniE04C
Encoding: 57420 57420 1730
GlifName: uniE_04C_
Width: 1878
VWidth: 0
GlyphClass: 2
Flags: HW
LayerCount: 2
Fore
SplineSet
1207 267 m 256
 1299 267 1340 316 1340 423 c 256
 1340 477 1328 566 1304 702 c 257
 1563 756 l 257
 1587 582 l 258
 1625 326 1685 267 1877 267 c 258
 1878 267 l 257
 1878 0 l 257
 1877 0 l 258
 1680 0 1555 73 1522 204 c 257
 1498 73 1392 0 1242 0 c 256
 1095 0 998 67 960 178 c 257
 918 59 825 0 678 0 c 256
 526 0 431 65 396 190 c 257
 343 75 204 0 42 0 c 258
 0 0 l 258
 -27 0 -38 42 -38 137 c 256
 -38 230 -27 267 0 267 c 258
 42 267 l 258
 201 267 273 331 289 498 c 258
 307 702 l 257
 574 681 l 257
 553 452 l 258
 541 333 587 270 685 267 c 256
 776 264 824 316 834 434 c 258
 852 649 l 257
 1086 632 l 257
 1072 438 l 258
 1063 320 1112 267 1207 267 c 256
EndSplineSet
EndChar

StartChar: uniE04D
Encoding: 57421 57421 1731
GlifName: uniE_04D_
Width: 2571
VWidth: 0
GlyphClass: 2
Flags: HW
LayerCount: 2
Fore
SplineSet
1998 596 m 256
 1895 596 1764 515 1613 299 c 257
 1669 275 1744 267 1828 267 c 256
 2002 267 2155 310 2155 448 c 256
 2155 534 2093 596 1998 596 c 256
2044 858 m 256
 2291 858 2446 677 2446 445 c 256
 2446 387 2432 338 2410 297 c 257
 2447 276 2508 267 2570 267 c 258
 2571 267 l 257
 2571 0 l 257
 2570 0 l 258
 2433 0 2334 42 2277 107 c 257
 2161 29 1993 0 1803 0 c 256
 1664 0 1546 19 1452 53 c 257
 1423 -331 1157 -500 764 -500 c 256
 291 -500 75 -275 75 124 c 256
 75 296 113 498 176 684 c 257
 417 613 l 257
 375 470 334 298 334 149 c 256
 334 -100 455 -234 764 -234 c 256
 1080 -234 1189 -99 1189 123 c 256
 1189 266 1138 441 1078 618 c 257
 1339 736 l 257
 1371 640 1404 509 1424 397 c 257
 1626 689 1814 858 2044 858 c 256
EndSplineSet
EndChar

StartChar: uniE04E
Encoding: 57422 57422 1732
GlifName: uniE_04E_
Width: 1690
VWidth: 0
GlyphClass: 2
Flags: HW
LayerCount: 2
Fore
SplineSet
1167 596 m 256
 1064 596 934 515 783 299 c 257
 839 275 914 267 998 267 c 256
 1172 267 1324 310 1324 448 c 256
 1324 534 1262 596 1167 596 c 256
283 694 m 257
 550 694 l 257
 550 512 l 258
 553 432 574 409 607 388 c 257
 779 693 990 858 1214 858 c 256
 1461 858 1616 677 1616 445 c 256
 1616 111 1334 0 972 0 c 256
 701 0 503 71 415 194 c 257
 368 72 209 0 42 0 c 258
 0 0 l 258
 -26 0 -38 28 -38 133 c 256
 -38 238 -26 267 0 267 c 258
 42 267 l 258
 249 267 283 334 283 524 c 258
 283 694 l 257
EndSplineSet
EndChar

StartChar: uniE04F
Encoding: 57423 57423 1733
GlifName: uniE_04F_
Width: 1740
VWidth: 0
GlyphClass: 2
Flags: HW
LayerCount: 2
Fore
SplineSet
283 694 m 257
 550 694 l 257
 550 512 l 258
 553 432 574 409 607 388 c 257
 779 693 990 858 1214 858 c 256
 1461 858 1616 677 1616 445 c 256
 1616 387 1602 338 1580 297 c 257
 1622 276 1674 267 1740 267 c 258
 1740 267 l 257
 1740 0 l 257
 1740 0 l 258
 1618 0 1510 33 1446 107 c 257
 1330 30 1161 0 972 0 c 256
 701 0 503 71 415 194 c 257
 368 72 209 0 42 0 c 258
 0 0 l 258
 -26 0 -38 28 -38 133 c 256
 -38 238 -26 267 0 267 c 258
 42 267 l 258
 249 267 283 334 283 524 c 258
 283 694 l 257
1167 596 m 256
 1064 596 934 515 783 299 c 257
 839 275 914 267 998 267 c 256
 1172 267 1324 310 1324 448 c 256
 1324 534 1262 596 1167 596 c 256
EndSplineSet
EndChar

StartChar: uniE050
Encoding: 57424 57424 1734
GlifName: uniE_050
Width: 1668
VWidth: 0
GlyphClass: 2
Flags: HW
LayerCount: 2
Fore
SplineSet
675 267 m 257
 921 267 l 258
 1106 267 1242 299 1242 438 c 256
 1242 531 1182 596 1085 596 c 256
 980 596 838 511 675 267 c 257
362 267 m 257
 373 284 384 299 394 315 c 257
 394 1427 l 257
 660 1427 l 257
 660 805 l 258
 660 719 655 634 638 553 c 257
 788 753 958 858 1133 858 c 256
 1380 858 1534 673 1534 445 c 256
 1534 393 1523 346 1506 306 c 257
 1547 280 1599 267 1667 267 c 258
 1668 267 l 257
 1668 0 l 257
 1667 0 l 258
 1526 0 1444 48 1384 122 c 257
 1263 27 1074 0 862 0 c 258
 75 0 l 257
 75 267 l 257
 362 267 l 257
EndSplineSet
EndChar

StartChar: uniE051
Encoding: 57425 57425 1735
GlifName: uniE_051
Width: 1375
VWidth: 0
GlyphClass: 2
Flags: HW
LayerCount: 2
Fore
SplineSet
2 0 m 258
 -24 0 -37 28 -37 133 c 256
 -37 238 -24 267 2 267 c 258
 129 267 l 257
 140 284 151 299 161 315 c 257
 161 1427 l 257
 427 1427 l 257
 427 805 l 258
 427 719 422 634 405 553 c 257
 555 753 725 858 900 858 c 256
 1147 858 1300 673 1300 445 c 256
 1300 206 1174 0 629 0 c 258
 2 0 l 258
442 267 m 257
 688 267 l 258
 873 267 1009 299 1009 438 c 256
 1009 531 949 596 852 596 c 256
 747 596 605 511 442 267 c 257
EndSplineSet
EndChar

StartChar: uniE052
Encoding: 57426 57426 1736
GlifName: uniE_052
Width: 1435
VWidth: 0
GlyphClass: 2
Flags: HW
LayerCount: 2
Fore
SplineSet
2 0 m 258
 -24 0 -37 28 -37 133 c 256
 -37 238 -24 267 2 267 c 258
 128 267 l 257
 139 284 150 299 160 315 c 257
 160 1427 l 257
 427 1427 l 257
 427 805 l 258
 427 719 422 634 405 553 c 257
 555 753 725 858 900 858 c 256
 1147 858 1301 673 1301 445 c 256
 1301 393 1291 346 1274 306 c 257
 1315 280 1366 267 1434 267 c 258
 1436 267 l 257
 1436 0 l 257
 1434 0 l 258
 1293 0 1211 48 1151 122 c 257
 1030 27 842 0 630 0 c 258
 2 0 l 258
441 267 m 257
 688 267 l 258
 873 267 1009 299 1009 438 c 256
 1009 531 949 596 852 596 c 256
 747 596 604 511 441 267 c 257
EndSplineSet
EndChar

StartChar: uniE053
Encoding: 57427 57427 1737
GlifName: uniE_053
Width: 1270
VWidth: 0
GlyphClass: 2
Flags: HW
LayerCount: 2
Fore
SplineSet
920 568 m 256
 920 637 843 678 729 678 c 256
 645 678 566 658 496 618 c 257
 496 611 l 257
 737 374 l 257
 840 432 920 510 920 568 c 256
1163 586 m 256
 1163 470 1075 363 968 291 c 257
 1024 267 1113 267 1178 267 c 258
 1271 267 l 257
 1271 0 l 257
 1145 0 l 258
 987 0 834 36 722 113 c 257
 468 10 340 -127 340 -280 c 256
 340 -467 558 -532 790 -532 c 256
 938 -532 1082 -507 1182 -469 c 257
 1269 -711 l 257
 1132 -765 956 -798 784 -798 c 256
 417 -798 75 -657 75 -282 c 256
 75 -22 263 163 509 279 c 257
 212 570 l 257
 216 737 l 257
 363 871 544 930 734 930 c 256
 932 930 1163 823 1163 586 c 256
EndSplineSet
EndChar

StartChar: uniE054
Encoding: 57428 57428 1738
GlifName: uniE_054
Width: 1130
VWidth: 0
GlyphClass: 2
Flags: HW
LayerCount: 2
Fore
SplineSet
364 521 m 256
 364 404 452 333 565 333 c 256
 589 333 632 338 672 346 c 258
 1007 410 l 257
 1056 147 l 257
 510 44 l 258
 360 16 191 0 42 0 c 258
 0 0 l 258
 -28 0 -38 39 -38 133 c 256
 -38 226 -28 267 0 267 c 258
 31 267 l 258
 87 267 138 269 204 278 c 257
 141 332 98 410 98 516 c 256
 98 809 320 1015 592 1015 c 256
 748 1015 861 959 978 839 c 257
 837 646 l 257
 765 714 691 749 600 749 c 256
 470 749 364 666 364 521 c 256
EndSplineSet
EndChar

StartChar: uniE055
Encoding: 57429 57429 1739
GlifName: uniE_055
Width: 1183
VWidth: 0
GlyphClass: 2
Flags: HW
LayerCount: 2
Fore
SplineSet
636 678 m 256
 555 678 473 659 406 618 c 257
 406 611 l 257
 646 374 l 257
 750 434 830 507 830 568 c 256
 830 633 757 678 636 678 c 256
644 930 m 256
 846 930 1076 822 1076 587 c 256
 1076 469 985 363 879 291 c 257
 936 267 1004 267 1072 267 c 258
 1185 267 l 257
 1185 0 l 257
 1042 0 l 258
 879 0 763 27 644 114 c 257
 502 40 334 0 136 0 c 258
 0 0 l 258
 -25 0 -38 28 -38 133 c 256
 -38 238 -25 267 0 267 c 258
 125 267 l 258
 232 267 319 278 402 296 c 257
 121 570 l 257
 125 737 l 257
 269 870 455 930 644 930 c 256
EndSplineSet
EndChar

StartChar: uniE056
Encoding: 57430 57430 1740
GlifName: uniE_056
Width: 1844
VWidth: 0
GlyphClass: 2
Flags: HW
LayerCount: 2
Fore
SplineSet
1564 612 m 258
 1564 331 1618 267 1844 267 c 258
 1845 267 l 257
 1845 0 l 257
 1844 0 l 258
 1626 0 1482 78 1432 222 c 257
 1353 66 1166 0 804 0 c 256
 285 0 75 136 75 473 c 256
 75 562 89 673 115 777 c 257
 356 724 l 257
 336 628 326 545 326 487 c 256
 326 318 425 267 793 267 c 256
 1198 267 1298 336 1298 612 c 258
 1298 1421 l 257
 1564 1421 l 257
 1564 612 l 258
EndSplineSet
EndChar

StartChar: uniE057
Encoding: 57431 57431 1741
GlifName: uniE_057
Width: 901
VWidth: 0
GlyphClass: 2
Flags: HW
LayerCount: 2
Fore
SplineSet
918 1560 m 257
 974 1299 l 257
 738 1235 538 1160 335 1056 c 257
 335 1046 l 257
 634 806 768 614 768 419 c 256
 768 158 531 0 138 0 c 258
 0 0 l 258
 -27 0 -38 39 -38 134 c 256
 -38 229 -27 267 0 267 c 258
 132 267 l 258
 372 267 502 325 502 437 c 256
 502 557 353 717 25 955 c 257
 25 1178 l 257
 320 1360 612 1485 918 1560 c 257
EndSplineSet
EndChar

StartChar: uniE058
Encoding: 57432 57432 1742
GlifName: uniE_058
Width: 1144
VWidth: 0
GlyphClass: 2
Flags: HW
LayerCount: 2
Fore
SplineSet
918 1560 m 257
 974 1299 l 257
 738 1235 538 1160 335 1056 c 257
 335 1046 l 257
 550 872 674 727 767 539 c 256
 868 335 963 267 1144 267 c 258
 1144 267 l 257
 1144 0 l 257
 1144 0 l 258
 940 0 775 86 674 260 c 257
 617 90 431 0 151 0 c 258
 0 0 l 258
 -27 0 -38 39 -38 134 c 256
 -38 229 -27 267 0 267 c 258
 146 267 l 258
 375 267 502 327 502 438 c 256
 502 558 349 721 25 955 c 257
 25 1178 l 257
 320 1360 612 1485 918 1560 c 257
EndSplineSet
EndChar

StartChar: uniE059
Encoding: 57433 57433 1743
GlifName: uniE_059
Width: 1592
VWidth: 0
GlyphClass: 2
Flags: HW
LayerCount: 2
Fore
SplineSet
1592 267 m 257
 1592 0 l 257
 1560 0 l 258
 1453 0 1357 37 1310 114 c 257
 1310 40 l 258
 1310 -319 1061 -546 666 -546 c 256
 272 -546 75 -330 75 -12 c 256
 75 128 108 293 173 457 c 257
 408 373 l 257
 363 248 335 121 335 22 c 256
 335 -164 443 -279 682 -279 c 256
 935 -279 1050 -155 1050 100 c 258
 1050 1427 l 257
 1316 1427 l 257
 1317 510 l 258
 1317 340 1369 267 1560 267 c 258
 1592 267 l 257
EndSplineSet
EndChar

StartChar: uniE05A
Encoding: 57434 57434 1744
GlifName: uniE_05A_
Width: 626
VWidth: 0
GlyphClass: 2
Flags: HW
LayerCount: 2
Fore
SplineSet
0 267 m 256
 195 267 226 316 226 481 c 258
 226 1427 l 257
 493 1427 l 257
 493 481 l 258
 493 169 329 0 0 0 c 256
 -25 0 -39 29 -39 133 c 256
 -39 237 -25 267 0 267 c 256
EndSplineSet
EndChar

StartChar: uniE05B
Encoding: 57435 57435 1745
GlifName: uniE_05B_
Width: 721
VWidth: 0
GlyphClass: 2
Flags: HW
LayerCount: 2
Fore
SplineSet
492 500 m 258
 492 342 529 267 721 267 c 258
 722 267 l 257
 722 0 l 257
 721 0 l 258
 545 0 397 75 359 198 c 257
 321 74 178 0 0 0 c 256
 -25 0 -38 29 -38 133 c 256
 -38 237 -25 267 0 267 c 256
 204 267 226 327 226 488 c 258
 226 1427 l 257
 492 1427 l 257
 492 500 l 258
EndSplineSet
EndChar

StartChar: uniE05C
Encoding: 57436 57436 1746
GlifName: uniE_05C_
Width: 1495
VWidth: 0
GlyphClass: 2
Flags: HW
LayerCount: 2
Fore
SplineSet
825 594 m 256
 707 594 653 432 629 309 c 257
 650 304 681 297 703 291 c 256
 777 271 840 256 891 256 c 256
 954 256 980 290 980 370 c 256
 980 470 944 594 825 594 c 256
831 856 m 256
 1045 856 1125 710 1195 555 c 256
 1258 412 1326 267 1494 267 c 258
 1495 267 l 257
 1495 0 l 257
 1494 0 l 258
 1334 0 1243 71 1178 210 c 257
 1147 82 1066 -11 922 -11 c 256
 825 -11 710 13 608 38 c 256
 534 56 464 71 423 71 c 256
 366 71 342 40 342 -30 c 258
 342 -729 l 257
 75 -729 l 257
 75 -3 l 258
 75 208 190 365 395 352 c 257
 440 612 577 856 831 856 c 256
EndSplineSet
EndChar

StartChar: uniE05D
Encoding: 57437 57437 1747
GlifName: uniE_05D_
Width: 1147
VWidth: 0
GlyphClass: 2
Flags: HW
LayerCount: 2
Fore
SplineSet
0 267 m 256
 151 267 218 398 286 535 c 256
 368 698 451 859 664 859 c 256
 897 859 1054 628 1054 388 c 256
 1054 146 916 -10 681 -10 c 256
 541 -10 404 55 324 158 c 257
 247 62 151 0 0 0 c 256
 -26 0 -38 28 -38 133 c 256
 -38 238 -26 267 0 267 c 256
460 363 m 257
 529 292 607 256 682 256 c 256
 750 256 812 300 812 388 c 256
 812 502 739 596 661 596 c 256
 588 596 535 545 480 411 c 258
 460 363 l 257
EndSplineSet
EndChar

StartChar: uniE05E
Encoding: 57438 57438 1748
GlifName: uniE_05E_
Width: 1325
VWidth: 0
GlyphClass: 2
Flags: HW
LayerCount: 2
Fore
SplineSet
460 363 m 257
 529 292 607 256 682 256 c 256
 750 256 812 300 812 388 c 256
 812 502 739 596 661 596 c 256
 588 596 535 545 480 411 c 258
 460 363 l 257
0 267 m 256
 150 267 218 399 287 537 c 256
 369 699 454 859 657 859 c 256
 871 859 959 699 1031 542 c 256
 1097 399 1162 267 1324 267 c 258
 1325 267 l 257
 1325 0 l 257
 1324 0 l 258
 1171 0 1042 72 997 222 c 257
 966 76 839 -11 681 -11 c 256
 541 -11 404 55 324 158 c 257
 247 62 151 0 0 0 c 256
 -26 0 -38 28 -38 133 c 256
 -38 238 -26 267 0 267 c 256
EndSplineSet
EndChar

StartChar: uniE05F
Encoding: 57439 57439 1749
GlifName: uniE_05F_
Width: 1197
VWidth: 0
GlyphClass: 2
Flags: HW
LayerCount: 2
Fore
SplineSet
666 934 m 257
 654 1106 l 257
 921 1122 l 257
 958 476 l 258
 967 330 1018 267 1196 267 c 258
 1198 267 l 257
 1198 0 l 257
 1196 0 l 258
 972 0 842 57 770 171 c 257
 703 147 629 134 558 134 c 256
 334 134 138 231 138 448 c 256
 138 720 371 882 666 934 c 257
683 690 m 257
 470 673 385 580 385 493 c 256
 385 426 448 377 579 377 c 256
 618 377 671 383 708 393 c 257
 703 414 699 432 697 462 c 258
 683 690 l 257
EndSplineSet
EndChar

StartChar: uniE060
Encoding: 57440 57440 1750
GlifName: uniE_060
Width: 1417
VWidth: 0
GlyphClass: 2
Flags: HW
LayerCount: 2
Fore
SplineSet
0 267 m 258
 72 267 l 258
 144 267 189 273 239 288 c 257
 171 356 106 445 106 550 c 256
 106 671 166 791 271 864 c 257
 146 918 l 257
 250 1164 l 257
 826 917 l 258
 1189 760 1343 610 1343 369 c 256
 1343 156 1191 -11 922 -11 c 256
 764 -11 624 34 496 96 c 257
 386 37 241 0 89 0 c 258
 0 0 l 258
 -25 0 -38 29 -38 133 c 256
 -38 237 -25 267 0 267 c 258
501 345 m 257
 601 394 660 468 660 560 c 256
 660 660 615 735 515 735 c 256
 419 735 354 645 354 545 c 256
 354 455 424 389 501 345 c 257
737 289 m 257
 798 269 867 257 927 257 c 256
 1017 257 1084 290 1084 384 c 256
 1084 474 1018 547 853 618 c 257
 890 485 836 363 737 289 c 257
EndSplineSet
EndChar

StartChar: uniE061
Encoding: 57441 57441 1751
GlifName: uniE_061
Width: 1097
VWidth: 0
GlyphClass: 2
Flags: HW
LayerCount: 2
Fore
SplineSet
570 929 m 256
 765 929 891 789 891 576 c 256
 891 321 702 121 390 38 c 257
 415 -100 488 -197 607 -261 c 257
 634 -248 l 257
 728 100 874 267 1069 267 c 258
 1098 267 l 257
 1098 0 l 257
 1062 0 l 258
 935 0 869 -107 790 -462 c 257
 611 -546 l 257
 368 -449 210 -259 158 0 c 257
 0 0 l 258
 -27 0 -38 39 -38 134 c 256
 -38 228 -27 267 0 267 c 258
 136 267 l 257
 144 670 312 929 570 929 c 256
368 280 m 257
 553 291 672 392 672 534 c 256
 672 615 633 662 564 662 c 256
 440 662 361 507 368 280 c 257
EndSplineSet
EndChar

StartChar: uniE062
Encoding: 57442 57442 1752
GlifName: uniE_062
Width: 986
VWidth: 0
GlyphClass: 2
Flags: HW
LayerCount: 2
Fore
SplineSet
658 269 m 257
 643 450 600 603 484 603 c 256
 385 603 340 495 340 379 c 256
 340 296 389 267 492 267 c 257
 548 267 608 267 658 269 c 257
625 0 m 257
 569 0 513 0 459 0 c 257
 238 0 105 120 105 355 c 256
 105 590 225 861 489 861 c 256
 783 861 881 575 901 267 c 257
 987 267 l 257
 987 0 l 257
 891 0 l 257
 842 -276 600 -461 187 -587 c 257
 75 -345 l 257
 368 -260 569 -142 625 0 c 257
EndSplineSet
EndChar

StartChar: uniE063
Encoding: 57443 57443 1753
GlifName: uniE_063
Width: 1345
VWidth: 0
GlyphClass: 2
Flags: HW
LayerCount: 2
Fore
SplineSet
128 1354 m 257
 377 1449 l 257
 503 1150 587 808 606 487 c 257
 347 453 l 257
 329 745 246 1074 128 1354 c 257
946 1427 m 257
 1212 1427 l 257
 1212 816 l 258
 1212 161 1000 0 322 0 c 258
 105 0 l 257
 105 267 l 257
 340 267 l 258
 825 267 946 312 946 785 c 258
 946 1427 l 257
EndSplineSet
EndChar

StartChar: uniE064
Encoding: 57444 57444 1754
GlifName: uniE_064
Width: 1446
VWidth: 0
GlyphClass: 2
Flags: HW
LayerCount: 2
Fore
SplineSet
134 1354 m 257
 384 1449 l 257
 510 1149 586 827 606 505 c 257
 348 472 l 257
 329 764 252 1073 134 1354 c 257
945 1427 m 257
 1212 1427 l 257
 1212 480 l 258
 1212 318 1269 267 1445 267 c 258
 1446 267 l 257
 1446 0 l 257
 1445 0 l 258
 1192 0 1049 103 1012 310 c 257
 1011 338 l 257
 849 104 574 0 105 0 c 257
 105 267 l 257
 638 267 861 373 945 663 c 257
 945 1427 l 257
EndSplineSet
EndChar

StartChar: uniE065
Encoding: 57445 57445 1755
GlifName: uniE_065
Width: 1960
VWidth: 0
GlyphClass: 2
Flags: HW
LayerCount: 2
Fore
SplineSet
1768 715 m 257
 1750 618 1737 537 1737 464 c 256
 1737 346 1780 267 1960 267 c 258
 1961 267 l 257
 1961 0 l 257
 1960 0 l 258
 1737 0 1607 78 1528 246 c 257
 1372 62 1118 0 789 0 c 256
 276 0 75 202 75 528 c 256
 75 635 96 758 135 884 c 257
 370 818 l 257
 340 718 324 630 324 559 c 256
 324 350 459 267 828 267 c 256
 1298 267 1464 413 1524 755 c 257
 1768 715 l 257
EndSplineSet
EndChar

StartChar: uniE066
Encoding: 57446 57446 1756
GlifName: uniE_066
Width: 962
VWidth: 0
GlyphClass: 2
Flags: HW
LayerCount: 2
Fore
SplineSet
616 695 m 257
 601 873 554 1017 442 1017 c 256
 343 1017 297 905 297 789 c 256
 297 706 346 677 450 677 c 256
 512 677 573 686 616 695 c 257
0 267 m 258
 110 267 l 258
 579 267 651 291 651 474 c 257
 579 454 504 444 420 444 c 256
 206 444 68 524 68 756 c 256
 68 987 173 1278 448 1278 c 256
 843 1278 888 738 888 526 c 256
 888 158 746 0 113 0 c 258
 0 0 l 258
 -26 0 -38 28 -38 133 c 256
 -38 238 -25 267 0 267 c 258
EndSplineSet
EndChar

StartChar: uniE067
Encoding: 57447 57447 1757
GlifName: uniE_067
Width: 1949
VWidth: 0
GlyphClass: 2
Flags: HW
LayerCount: 2
Fore
SplineSet
1442 79 m 257
 1287 30 1081 0 886 0 c 256
 346 0 75 125 75 470 c 256
 75 594 108 731 158 879 c 257
 392 804 l 257
 355 692 330 594 330 512 c 256
 330 311 513 267 886 267 c 256
 981 267 1103 271 1192 285 c 257
 1097 351 1031 447 1031 591 c 256
 1031 839 1210 1012 1446 1012 c 256
 1677 1012 1861 841 1861 595 c 256
 1861 454 1792 351 1698 283 c 257
 1749 271 1801 267 1861 267 c 258
 1949 267 l 257
 1949 0 l 257
 1834 0 l 258
 1693 0 1557 28 1442 79 c 257
1444 345 m 257
 1537 393 1595 473 1595 579 c 256
 1595 670 1542 748 1446 748 c 256
 1348 748 1298 671 1298 579 c 256
 1298 475 1355 393 1444 345 c 257
EndSplineSet
EndChar

StartChar: uniE068
Encoding: 57448 57448 1758
GlifName: uniE_068
Width: 1025
VWidth: 0
GlyphClass: 2
Flags: HW
LayerCount: 2
Fore
SplineSet
97 591 m 256
 97 839 277 1012 513 1012 c 256
 744 1012 928 841 928 595 c 256
 928 454 859 351 764 283 c 257
 815 271 869 267 928 267 c 258
 1026 267 l 257
 1026 0 l 257
 900 0 l 258
 759 0 622 28 507 79 c 257
 392 28 257 0 114 0 c 258
 0 0 l 258
 -26 0 -39 28 -39 133 c 256
 -39 238 -26 267 0 267 c 258
 90 267 l 258
 151 267 206 271 261 283 c 257
 167 349 97 448 97 591 c 256
512 346 m 257
 606 394 660 473 660 579 c 256
 660 670 609 748 513 748 c 256
 415 748 364 671 364 579 c 256
 364 475 424 394 512 346 c 257
EndSplineSet
EndChar

StartChar: uniE069
Encoding: 57449 57449 1759
GlifName: uniE_069
Width: 1565
VWidth: 0
GlyphClass: 2
Flags: HW
LayerCount: 2
Fore
SplineSet
1230 258 m 257
 1215 439 1172 591 1056 591 c 256
 957 591 912 483 912 367 c 256
 912 284 961 255 1064 255 c 256
 1120 255 1180 256 1230 258 c 257
1204 12 m 257
 1154 7 1088 0 1031 0 c 256
 811 0 678 120 678 354 c 256
 678 589 798 860 1062 860 c 256
 1334 860 1457 602 1477 267 c 257
 1566 267 l 257
 1566 0 l 257
 1465 0 l 257
 1427 -352 1138 -548 767 -548 c 256
 332 -548 75 -317 75 69 c 256
 75 212 108 376 176 556 c 257
 418 450 l 257
 371 302 340 173 340 70 c 256
 340 -164 493 -280 790 -280 c 256
 1026 -280 1186 -174 1204 12 c 257
EndSplineSet
EndChar

StartChar: uniE06E
Encoding: 57454 57454 1764
GlifName: uniE_06E_
Width: 0
VWidth: 0
GlyphClass: 2
Flags: H
LayerCount: 2
Fore
SplineSet
-50 1218 m 257
 21 1218 l 258
 98 1218 210 1229 210 1303 c 256
 210 1342 178 1375 135 1375 c 256
 76 1375 17 1308 -50 1218 c 257
-193 1218 m 257
 -193 1617 l 257
 -75 1617 l 257
 -75 1335 l 257
 -1 1428 64 1492 160 1492 c 256
 249 1492 327 1428 327 1304 c 256
 327 1148 187 1101 21 1101 c 258
 -319 1101 l 257
 -319 1218 l 257
 -193 1218 l 257
EndSplineSet
EndChar

StartChar: uniE06F
Encoding: 57455 57455 1765
GlifName: uniE_06F_
Width: 0
VWidth: 0
GlyphClass: 2
Flags: H
LayerCount: 2
Fore
SplineSet
64 1336 m 257
 94 1322 133 1310 170 1310 c 256
 233 1310 297 1334 297 1391 c 256
 297 1427 271 1451 226 1451 c 256
 174 1451 118 1412 64 1336 c 257
-56 1382 m 257
 44 1514 136 1597 238 1597 c 256
 345 1597 425 1534 425 1383 c 256
 425 1243 299 1136 159 1136 c 256
 82 1136 19 1158 -32 1182 c 256
 -71 1200 -103 1214 -132 1214 c 256
 -193 1214 -227 1167 -278 1093 c 257
 -398 1165 l 257
 -327 1306 -229 1391 -114 1391 c 256
 -93 1391 -75 1387 -56 1382 c 257
EndSplineSet
EndChar

StartChar: uniE070
Encoding: 57456 57456 1766
GlifName: uniE_070
Width: 0
VWidth: 0
GlyphClass: 2
Flags: H
LayerCount: 2
Fore
SplineSet
230 1366 m 257
 230 1209 148 1121 0 1121 c 256
 -150 1121 -230 1210 -230 1366 c 257
 -118 1366 l 257
 -118 1276 -85 1232 0 1232 c 256
 83 1232 118 1280 118 1366 c 257
 230 1366 l 257
EndSplineSet
EndChar

StartChar: uniE071
Encoding: 57457 57457 1767
GlifName: uniE_071
Width: 0
VWidth: 0
GlyphClass: 2
Flags: H
LayerCount: 2
Fore
SplineSet
230 1146 m 257
 -230 1146 l 257
 -230 1258 l 257
 230 1258 l 257
 230 1146 l 257
EndSplineSet
EndChar

StartChar: uniE072
Encoding: 57458 57458 1768
GlifName: uniE_072
Width: 0
VWidth: 0
GlyphClass: 2
Flags: H
LayerCount: 2
Fore
SplineSet
-72 1530 m 256
 -107 1530 -124 1498 -124 1458 c 256
 -124 1422 -114 1388 -86 1356 c 257
 -42 1370 15 1396 15 1448 c 256
 15 1491 -31 1530 -72 1530 c 256
-85 1644 m 256
 23 1644 126 1548 126 1445 c 256
 126 1361 60 1311 3 1288 c 257
 46 1264 165 1210 238 1190 c 257
 207 1082 l 257
 8 1136 -239 1259 -239 1465 c 256
 -239 1568 -178 1644 -85 1644 c 256
EndSplineSet
EndChar

StartChar: uniE073
Encoding: 57459 57459 1769
GlifName: uniE_073
Width: 0
VWidth: 0
GlyphClass: 2
Flags: H
LayerCount: 2
Fore
SplineSet
-183 1101 m 257
 -229 1202 l 257
 183 1398 l 257
 230 1297 l 257
 -183 1101 l 257
-192 1420 m 257
 -111 1501 l 257
 -30 1420 l 257
 -111 1340 l 257
 -192 1420 l 257
4 1063 m 257
 85 1144 l 257
 166 1063 l 257
 85 983 l 257
 4 1063 l 257
EndSplineSet
EndChar

StartChar: uniE075
Encoding: 57461 57461 1770
GlifName: uniE_075
Width: 2176
VWidth: 0
GlyphClass: 2
Flags: HW
LayerCount: 2
Fore
SplineSet
1132 1413 m 257
 1270 1188 l 257
 952 1008 789 894 714 794 c 257
 1443 794 l 258
 1820 794 2102 750 2102 477 c 256
 2102 154 1737 0 1329 0 c 258
 75 0 l 257
 75 267 l 257
 1400 267 l 258
 1662 267 1822 345 1822 436 c 256
 1822 500 1745 527 1515 527 c 258
 470 527 l 257
 370 638 l 257
 398 913 565 1086 1132 1413 c 257
EndSplineSet
EndChar

StartChar: uniE076
Encoding: 57462 57462 1771
GlifName: uniE_076
Width: 1968
VWidth: 0
GlyphClass: 2
Flags: HW
LayerCount: 2
Fore
SplineSet
777 433 m 257
 595 320 l 257
 493 290 278 220 153 165 c 257
 76 373 l 257
 263 444 423 505 561 505 c 256
 640 505 714 485 777 433 c 257
EndSplineSet
Refer: 1716 57406 N 1 0 0 1 397 0 2
EndChar

StartChar: uniE077
Encoding: 57463 57463 1772
GlifName: uniE_077
Width: 1737
VWidth: 0
GlyphClass: 2
Flags: HW
LayerCount: 2
Fore
SplineSet
1289 806 m 257
 1249 966 1224 1048 1164 1048 c 256
 1121 1048 1096 999 1076 958 c 256
 967 733 825 566 576 506 c 256
 412 467 339 420 339 346 c 256
 339 284 397 267 552 267 c 258
 1663 267 l 257
 1663 0 l 257
 488 0 l 258
 260 0 75 92 75 325 c 256
 75 600 306 708 522 766 c 256
 682 809 765 910 840 1060 c 256
 901 1184 986 1337 1166 1337 c 256
 1420 1337 1474 1113 1526 864 c 257
 1289 806 l 257
EndSplineSet
EndChar

StartChar: uniE078
Encoding: 57464 57464 1773
GlifName: uniE_078
Width: 1496
VWidth: 0
GlyphClass: 2
Flags: HW
LayerCount: 2
Fore
SplineSet
1057 1214 m 257
 1073 1211 1093 1209 1114 1209 c 256
 1186 1209 1277 1213 1277 1281 c 256
 1277 1317 1257 1337 1219 1337 c 256
 1162 1337 1107 1279 1057 1214 c 257
969 1247 m 257
 1035 1358 1121 1441 1225 1441 c 256
 1320 1441 1391 1380 1391 1281 c 256
 1391 1134 1257 1097 1126 1097 c 256
 1019 1097 948 1117 898 1166 c 257
 863 1118 815 1097 742 1097 c 256
 676 1097 624 1115 589 1156 c 257
 558 1115 513 1097 451 1097 c 258
 419 1097 l 258
 332 1097 221 1070 221 996 c 256
 221 972 246 967 280 967 c 258
 883 967 l 257
 883 855 l 257
 275 855 l 258
 183 855 105 892 105 988 c 256
 105 1136 262 1209 419 1209 c 258
 451 1209 l 258
 526 1209 531 1238 531 1311 c 258
 531 1630 l 257
 645 1630 l 257
 645 1314 l 258
 645 1233 650 1209 742 1209 c 256
 831 1209 839 1233 839 1323 c 258
 839 1388 l 257
 953 1388 l 257
 953 1327 l 258
 953 1274 957 1260 969 1247 c 257
EndSplineSet
EndChar

StartChar: uniE079
Encoding: 57465 57465 1774
GlifName: uniE_079
Width: 1186
VWidth: 0
GlyphClass: 2
Flags: HW
LayerCount: 2
Fore
SplineSet
847 1405 m 256
 847 1373 868 1363 904 1363 c 256
 930 1363 950 1367 972 1372 c 257
 967 1422 954 1505 904 1505 c 256
 865 1505 847 1450 847 1405 c 256
980 1274 m 257
 950 1267 920 1264 891 1264 c 256
 804 1264 741 1302 741 1396 c 256
 741 1505 788 1613 904 1613 c 256
 1050 1613 1091 1458 1091 1315 c 256
 1091 1131 966 1097 791 1097 c 258
 739 1097 l 258
 674 1097 624 1115 589 1156 c 257
 558 1115 513 1097 451 1097 c 258
 419 1097 l 258
 332 1097 221 1070 221 996 c 256
 221 972 246 967 280 967 c 258
 883 967 l 257
 883 855 l 257
 275 855 l 258
 183 855 105 892 105 988 c 256
 105 1136 262 1209 419 1209 c 258
 451 1209 l 258
 526 1209 531 1238 531 1311 c 258
 531 1630 l 257
 645 1630 l 257
 645 1314 l 258
 645 1233 649 1209 739 1209 c 258
 823 1209 l 258
 927 1209 964 1219 980 1274 c 257
1036 1724 m 257
 970 1659 l 257
 906 1724 l 257
 970 1789 l 257
 1036 1724 l 257
905 1724 m 257
 840 1659 l 257
 774 1724 l 257
 840 1789 l 257
 905 1724 l 257
EndSplineSet
EndChar

StartChar: uniE07A
Encoding: 57466 57466 1775
GlifName: uniE_07A_
Width: 0
VWidth: 0
GlyphClass: 2
Flags: H
LayerCount: 2
Fore
SplineSet
-152 1460 m 257
 152 1460 l 257
 152 1331 l 257
 -152 1331 l 257
 -152 1460 l 257
EndSplineSet
EndChar

StartChar: uniE07B
Encoding: 57467 57467 1776
GlifName: uniE_07B_
Width: 0
VWidth: 0
GlyphClass: 2
Flags: H
LayerCount: 2
Fore
SplineSet
-147 1303 m 257
 -238 1658 l 257
 -115 1692 l 257
 -27 1333 l 257
 -147 1303 l 257
240 1687 m 257
 240 1424 l 258
 240 1156 143 1089 -131 1089 c 258
 -241 1089 l 257
 -241 1217 l 257
 -119 1217 l 258
 74 1217 111 1245 111 1413 c 258
 111 1687 l 257
 240 1687 l 257
EndSplineSet
EndChar

StartChar: uniE07C
Encoding: 57468 57468 1777
GlifName: uniE_07C_
Width: 0
VWidth: 0
GlyphClass: 2
Flags: H
LayerCount: 2
Fore
SplineSet
33 1199 m 257
 100 1132 l 257
 33 1065 l 257
 -34 1132 l 257
 33 1199 l 257
78 1382 m 257
 -8 1416 l 258
 -40 1430 -63 1436 -82 1436 c 256
 -123 1436 -142 1406 -153 1345 c 257
 -245 1362 l 257
 -227 1486 -179 1550 -92 1550 c 256
 -58 1550 -23 1540 52 1509 c 258
 244 1430 l 257
 242 1323 l 257
 -10 1269 -142 1190 -142 1094 c 256
 -142 1027 -76 991 32 991 c 256
 100 991 177 1006 232 1028 c 257
 274 921 l 257
 205 887 119 868 33 868 c 256
 -140 868 -256 946 -256 1080 c 256
 -256 1213 -144 1312 78 1382 c 257
EndSplineSet
EndChar

StartChar: uniE07D
Encoding: 57469 57469 1778
GlifName: uniE_07D_
Width: 0
VWidth: 0
GlyphClass: 2
Flags: H
LayerCount: 2
Fore
SplineSet
-106 1272 m 257
 -24 1189 l 257
 -106 1107 l 257
 -188 1189 l 257
 -106 1272 l 257
106 1272 m 257
 188 1189 l 257
 106 1107 l 257
 23 1189 l 257
 106 1272 l 257
0 1447 m 257
 83 1365 l 257
 0 1282 l 257
 -82 1365 l 257
 0 1447 l 257
EndSplineSet
EndChar

StartChar: uniE07E
Encoding: 57470 57470 1779
GlifName: uniE_07E_
Width: 0
VWidth: 0
GlyphClass: 2
Flags: H
LayerCount: 2
Fore
SplineSet
237 1156 m 257
 224 1112 182 1086 135 1086 c 256
 107 1086 85 1096 70 1110 c 257
 60 948 -57 872 -216 872 c 256
 -413 872 -506 966 -506 1135 c 256
 -506 1207 -490 1292 -464 1370 c 257
 -358 1340 l 257
 -376 1280 -393 1208 -393 1147 c 256
 -393 1043 -343 988 -216 988 c 256
 -88 988 -42 1041 -42 1134 c 256
 -42 1194 -65 1275 -88 1344 c 257
 26 1388 l 257
 56 1279 l 258
 70 1222 87 1201 126 1201 c 256
 162 1201 179 1224 184 1268 c 258
 191 1361 l 257
 293 1354 l 257
 286 1270 l 258
 286 1266 286 1262 286 1258 c 256
 286 1219 305 1201 341 1201 c 256
 379 1201 395 1222 395 1264 c 256
 395 1288 390 1330 380 1383 c 257
 492 1409 l 257
 502 1359 509 1309 509 1266 c 256
 509 1147 461 1086 360 1086 c 256
 297 1086 255 1110 237 1156 c 257
EndSplineSet
EndChar

StartChar: uniE07F
Encoding: 57471 57471 1780
GlifName: uniE_07F_
Width: 0
VWidth: 0
GlyphClass: 2
Flags: H
LayerCount: 2
Fore
SplineSet
-112 1413 m 256
 -112 1475 -62 1524 0 1524 c 256
 62 1524 112 1475 112 1413 c 256
 112 1351 62 1301 0 1301 c 256
 -62 1301 -112 1351 -112 1413 c 256
EndSplineSet
EndChar

StartChar: uniE080
Encoding: 57472 57472 1781
GlifName: uniE_080
Width: 0
VWidth: 0
GlyphClass: 2
Flags: H
LayerCount: 2
Fore
SplineSet
-115 1298 m 257
 -115 1527 l 257
 115 1527 l 257
 115 1298 l 257
 -115 1298 l 257
EndSplineSet
EndChar

StartChar: uniE081
Encoding: 57473 57473 1782
GlifName: uniE_081
Width: 0
VWidth: 0
GlyphClass: 2
Flags: H
LayerCount: 2
Fore
SplineSet
-76 1476 m 256
 -47 1476 -15 1468 22 1454 c 258
 236 1369 l 257
 237 1292 l 257
 129 1175 -15 1105 -237 1101 c 257
 -237 1215 l 257
 -99 1215 1 1246 81 1308 c 257
 -22 1348 l 258
 -42 1356 -57 1358 -70 1358 c 256
 -116 1358 -128 1318 -136 1278 c 257
 -229 1297 l 257
 -217 1394 -174 1476 -76 1476 c 256
EndSplineSet
EndChar

StartChar: uniE082
Encoding: 57474 57474 1783
GlifName: uniE_082
Width: 0
VWidth: 0
GlyphClass: 2
Flags: H
LayerCount: 2
Fore
SplineSet
136 1264 m 256
 136 1308 121 1357 74 1357 c 256
 26 1357 5 1292 -5 1242 c 257
 25 1233 75 1221 102 1221 c 256
 128 1221 136 1235 136 1264 c 256
-91 1138 m 256
 -117 1138 -125 1124 -125 1098 c 258
 -125 808 l 257
 -241 808 l 257
 -241 1110 l 258
 -241 1202 -190 1265 -107 1261 c 257
 -87 1379 -23 1470 77 1470 c 256
 181 1470 242 1382 242 1260 c 256
 242 1161 197 1105 112 1105 c 256
 79 1105 35 1114 -19 1126 c 256
 -52 1134 -75 1138 -91 1138 c 256
EndSplineSet
EndChar

StartChar: uniE083
Encoding: 57475 57475 1784
GlifName: uniE_083
Width: 0
VWidth: 0
GlyphClass: 2
Flags: H
LayerCount: 2
Fore
SplineSet
58 1414 m 256
 82 1414 107 1435 128 1466 c 257
 210 1415 l 257
 159 1329 124 1297 63 1297 c 256
 31 1297 6 1310 -17 1322 c 256
 -33 1330 -44 1334 -54 1334 c 256
 -79 1334 -103 1312 -122 1281 c 257
 -210 1331 l 257
 -162 1409 -121 1453 -58 1453 c 256
 -23 1453 2 1440 26 1426 c 256
 39 1418 49 1414 58 1414 c 256
EndSplineSet
EndChar

StartChar: uniE084
Encoding: 57476 57476 1785
GlifName: uniE_084
Width: 0
VWidth: 0
GlyphClass: 2
Flags: H
LayerCount: 2
Fore
SplineSet
54 1106 m 257
 33 1103 11 1100 -13 1100 c 256
 -106 1100 -162 1151 -162 1250 c 256
 -162 1348 -112 1464 0 1464 c 256
 141 1464 176 1314 176 1160 c 256
 176 1011 73 918 -126 857 c 257
 -174 962 l 257
 -51 998 30 1046 54 1106 c 257
-60 1260 m 256
 -60 1227 -41 1215 1 1215 c 256
 26 1215 50 1218 68 1222 c 257
 61 1294 44 1353 -2 1353 c 256
 -41 1353 -60 1307 -60 1260 c 256
EndSplineSet
EndChar

StartChar: uniE085
Encoding: 57477 57477 1786
GlifName: uniE_085
Width: 1022
VWidth: 0
GlyphClass: 2
Flags: HW
LayerCount: 2
Fore
SplineSet
892 1200 m 257
 892 1085 l 257
 262 1085 l 258
 167 1085 88 1123 88 1222 c 256
 88 1338 185 1385 275 1409 c 256
 341 1426 375 1468 406 1530 c 256
 432 1581 468 1646 544 1646 c 256
 652 1646 676 1551 698 1446 c 257
 595 1420 l 257
 578 1487 568 1522 544 1522 c 256
 528 1522 516 1502 508 1485 c 256
 462 1391 404 1321 299 1296 c 256
 231 1280 202 1261 202 1232 c 256
 202 1208 224 1200 288 1200 c 258
 892 1200 l 257
EndSplineSet
EndChar

StartChar: uniE086
Encoding: 57478 57478 1787
GlifName: uniE_086
Width: 0
VWidth: 0
GlyphClass: 2
Flags: H
LayerCount: 2
Fore
SplineSet
134 1446 m 257
 242 1498 l 257
 279 1410 304 1342 304 1242 c 256
 304 1058 172 966 -0 966 c 256
 -203 966 -304 1064 -304 1238 c 256
 -304 1307 -288 1389 -261 1472 c 257
 -155 1439 l 257
 -172 1379 -190 1307 -190 1248 c 256
 -190 1142 -136 1081 -0 1081 c 256
 131 1081 188 1142 188 1238 c 256
 188 1300 166 1373 134 1446 c 257
-0 1416 m 257
 72 1344 l 257
 -0 1271 l 257
 -73 1344 l 257
 -0 1416 l 257
EndSplineSet
EndChar

StartChar: uniE087
Encoding: 57479 57479 1788
GlifName: uniE_087
Width: 0
VWidth: 0
GlyphClass: 2
Flags: H
LayerCount: 2
Fore
SplineSet
-77 1339 m 257
 0 1263 l 257
 77 1340 l 257
 0 1415 l 257
 -77 1339 l 257
-209 1339 m 257
 0 1548 l 257
 209 1340 l 257
 0 1131 l 257
 -209 1339 l 257
EndSplineSet
EndChar

StartChar: uniE088
Encoding: 57480 57480 1789
GlifName: uniE_088
Width: 596
VWidth: 0
GlyphClass: 2
Flags: HW
LayerCount: 2
Fore
SplineSet
125 378 m 257
 267 378 l 257
 267 0 l 257
 125 0 l 257
 125 378 l 257
400 378 m 257
 542 378 l 257
 542 0 l 257
 400 0 l 257
 400 378 l 257
EndSplineSet
EndChar

StartChar: uniE089
Encoding: 57481 57481 1790
GlifName: uniE_089
Width: 738
VWidth: 0
GlyphClass: 2
Flags: HW
LayerCount: 2
Fore
SplineSet
683 117 m 257
 683 0 l 257
 56 0 l 257
 56 117 l 257
 683 117 l 257
EndSplineSet
EndChar

StartChar: uniE08A
Encoding: 57482 57482 1791
GlifName: uniE_08A_
Width: 589
VWidth: 0
GlyphClass: 2
Flags: HW
LayerCount: 2
Fore
SplineSet
203 508 m 257
 248 397 l 258
 266 351 283 329 313 329 c 256
 344 329 362 351 367 407 c 258
 376 505 l 257
 491 498 l 257
 481 353 463 215 306 215 c 256
 300 215 295 217 287 219 c 257
 298 149 305 82 305 0 c 257
 189 0 l 257
 189 185 157 316 98 457 c 257
 203 508 l 257
EndSplineSet
EndChar

StartChar: uniE08B
Encoding: 57483 57483 1792
GlifName: uniE_08B_
Width: 701
VWidth: 0
GlyphClass: 2
Flags: HW
LayerCount: 2
Fore
SplineSet
206 508 m 257
 248 388 l 258
 264 343 274 334 295 334 c 256
 320 334 330 353 332 394 c 258
 338 489 l 257
 432 482 l 257
 427 440 422 394 422 371 c 256
 422 345 439 334 464 334 c 256
 490 334 504 351 504 376 c 256
 504 408 495 464 491 482 c 257
 605 502 l 257
 609 478 618 427 618 385 c 256
 618 290 565 221 468 221 c 256
 434 221 399 234 378 253 c 257
 356 231 326 220 290 224 c 257
 300 153 305 80 305 0 c 257
 189 0 l 257
 189 185 156 322 99 458 c 257
 206 508 l 257
EndSplineSet
EndChar

StartChar: uniE08C
Encoding: 57484 57484 1793
GlifName: uniE_08C_
Width: 602
VWidth: 0
GlyphClass: 2
Flags: HW
LayerCount: 2
Fore
SplineSet
239 524 m 256
 276 524 316 507 344 470 c 258
 353 457 l 257
 445 528 l 257
 517 432 l 257
 372 315 l 257
 328 315 l 257
 279 390 l 258
 271 403 261 408 250 408 c 256
 233 408 217 395 217 378 c 256
 217 372 219 365 223 359 c 258
 346 157 l 258
 366 126 377 87 377 47 c 256
 377 22 373 -3 364 -28 c 257
 259 15 l 257
 264 25 266 36 266 46 c 256
 266 64 258 82 248 100 c 258
 126 307 l 258
 110 334 102 360 102 386 c 256
 102 463 168 524 239 524 c 256
EndSplineSet
EndChar

StartChar: uniE08D
Encoding: 57485 57485 1794
GlifName: uniE_08D_
Width: 1302
VWidth: 0
GlyphClass: 2
Flags: HW
LayerCount: 2
Fore
SplineSet
881 119 m 257
 894 258 848 469 780 646 c 257
 1042 744 l 257
 1114 543 1157 339 1157 173 c 256
 1157 86 1140 0 1112 -79 c 257
 1186 -131 1261 -191 1343 -264 c 257
 1186 -428 l 257
 1124 -372 1061 -319 995 -268 c 257
 885 -423 699 -546 488 -546 c 256
 243 -546 75 -414 75 -192 c 256
 75 50 280 207 526 207 c 256
 655 207 776 177 881 119 c 257
809 -90 m 257
 723 -28 622 7 514 7 c 256
 397 7 297 -44 297 -147 c 256
 297 -237 372 -278 487 -278 c 256
 627 -278 750 -188 809 -90 c 257
EndSplineSet
EndChar

StartChar: uniE08E
Encoding: 57486 57486 1795
GlifName: uniE_08E_
Width: 1665
VWidth: 0
GlyphClass: 2
Flags: HW
LayerCount: 2
Fore
SplineSet
1152 346 m 257
 1246 394 1300 473 1300 579 c 256
 1300 670 1248 746 1152 746 c 256
 1054 746 1004 671 1004 579 c 256
 1004 475 1064 394 1152 346 c 257
1147 79 m 257
 1029 25 903 0 754 0 c 256
 654 0 567 14 491 36 c 256
 455 45 424 52 396 52 c 256
 356 52 342 29 342 -6 c 256
 342 -31 349 -62 359 -96 c 256
 377 -154 401 -219 419 -268 c 257
 167 -360 l 257
 145 -302 121 -231 100 -157 c 256
 86 -101 75 -43 75 15 c 256
 75 175 179 320 352 320 c 256
 400 320 449 308 498 296 c 256
 561 281 642 263 743 263 c 256
 802 263 846 269 898 283 c 257
 804 349 737 448 737 591 c 256
 737 839 916 1012 1152 1012 c 256
 1383 1012 1567 841 1567 595 c 256
 1567 454 1502 351 1407 283 c 257
 1461 271 1525 267 1586 267 c 258
 1666 267 l 257
 1666 0 l 257
 1548 0 l 258
 1407 0 1262 28 1147 79 c 257
EndSplineSet
EndChar

